<svg version="1.2" xmlns="http://www.w3.org/2000/svg" viewBox="0 0 512 512" width="512" height="512">
	<title>Github</title>
	<style>
		.s0 { fill: #ffffff } 
		.s1 { fill: #000000 } 
	</style>
	<path id="Shape 1" class="s0" d="m255.5 491c-122.5 0-221.5-99-221.5-221.5c0-122.5 99-221.5 221.5-221.5c122.5 0 221.5 99 221.5 221.5c0 122.5-99 221.5-221.5 221.5z" />
	<g id="github_black">
		<g id="&lt;Group&gt;">
			<path id="&lt;Path&gt;" class="s1" d="m329.7 478.1c-5.4-4.1-11.3-9.4-11.4-16.8c-0.1-8.3 0.4-13.2 0.4-49.5c0-36.4-4.9-49.8-22-60.5c52.8-5.4 85.4-18.4 101.3-53.1l1.5-3.4q1.2-3 2.4-6.2l1.9-6.7c3.6-13.1 5.5-28.6 5.9-47c-0.1-49.9-24.1-67.5-28.7-75.8c6.8-37.7-1.1-54.9-4.8-60.8c-13.6-4.8-47.3 12.4-65.7 24.5c-30-8.8-93.5-7.9-117.3 2.2q-43.9-31.2-67.1-26.5q-15 26.8-4 66c-14.4 18.3-25.2 31.2-25.2 65.6c0 19.3 2.3 36.6 7.5 51.7l1.2 3.4l4.2 9.5l1.7 3.3c16.5 29.8 48.3 48.4 102 53.5c-7.7 5.8-16.9 16.7-18.1 29.4c-9.7 6.2-29 8.3-44.1 3.5c-21.1-6.6-29.2-48.1-60.7-42.2c-6.9 1.3-5.5 5.8 0.4 9.6c9.6 6.2 18.7 13.9 25.7 30.4c5.3 12.7 16.6 35.4 52.3 35.4q14.2 0 24.1-1.7q0.3 32.3 0.3 44.9c0 8.2-6.3 13.1-11.8 17c-89.7-30.9-154.2-116-154.2-216.2c0-126.3 102.3-228.7 228.6-228.7c126.3 0 228.6 102.4 228.6 228.7c0 100.5-64.8 185.8-154.9 216.5z" />
		</g>
	</g>
</svg>