<svg version="1.2" xmlns="http://www.w3.org/2000/svg" viewBox="0 0 3197 2000" width="600" height="375">
	<title>10130-ai</title>
	<style>
		.s0 { opacity: .3;mix-blend-mode: multiply;fill: #f4b98c } 
		.s1 { opacity: .3;fill: #9bc1f9 } 
		.s2 { opacity: .5;fill: #ffffff } 
		.s3 { fill: #355389 } 
		.s4 { fill: #3c8f7c } 
		.s5 { fill: #50bfa5 } 
		.s6 { fill: #e25a44 } 
		.s7 { fill: #fcf5eb } 
		.s8 { mix-blend-mode: multiply;fill: #fcf5eb } 
		.s9 { fill: #184655 } 
		.s10 { fill: #86b1f2 } 
		.s11 { fill: #f47458 } 
		.s12 { opacity: .5;mix-blend-mode: overlay;fill: #ffffff } 
		.s13 { opacity: .2;mix-blend-mode: overlay;fill: #ffffff } 
		.s14 { fill: #ffffff } 
		.s15 { fill: #0e2e35 } 
		.s16 { opacity: .3;mix-blend-mode: multiply;fill: #e25a44 } 
		.s17 { opacity: .3;mix-blend-mode: multiply;fill: #f7cc7f } 
		.s18 { fill: #31535b } 
		.s19 { fill: #f7cc7f } 
		.s20 { fill: #f8a492 } 
		.s21 { fill: #f7a491 } 
		.s22 { fill: #466eb6 } 
		.s23 { fill: #964538 } 
		.s24 { fill: #b75742 } 
		.s25 { fill: #13375b } 
		.s26 { fill: #f48c7f } 
		.s27 { fill: #89a6e5 } 
		.s28 { fill: #96d9c9 } 
		.s29 { fill: #9bc1f9 } 
		.s30 { fill: #ea9486 } 
		.s31 { fill: #c8c6af } 
		.s32 { fill: #eafcfc } 
		.s33 { fill: #f79c8d } 
		.s34 { fill: #4570af } 
		.s35 { fill: #e5ecf2 } 
		.s36 { fill: #aaa896 } 
		.s37 { fill: #071b1e } 
		.s38 { fill: #7f7f79 } 
		.s39 { fill: #1e634f } 
		.s40 { fill: #adac9e } 
		.s41 { fill: #327f6b } 
		.s42 { fill: #1b1811 } 
		.s43 { opacity: .5;mix-blend-mode: multiply;fill: #f47458 } 
		.s44 { fill: #eab054 } 
		.s45 { opacity: .5;fill: #f47458 } 
	</style>
	<g id="Layer 1">
		<g id="&lt;Group&gt;">
			<path id="&lt;Path&gt;" class="s0" d="m1352.2 1910.3c-68.3-6.7-168.9-51.8-237.3-58c-254.9-23-424.3 28.3-673.1-31.9q-52.9-12.7-72.8-72.2l2481-8.7q23.1 7.4 21.3 8.7c-19.9 14.3-54.7 42.4-81.3 49.4c-26.8 7-55.1 5.6-82.7 8.4c-83.8 8.3-159.7 54.6-243 67.4c-91.8 14.2-184.2-13.2-276.7-21.1c-38.1-3.3-314.9 58-353.1 58c-37.4 0-409.5 7.2-482.3 0z" />
			<path id="&lt;Path&gt;" class="s1" d="m289.2 1335.8c212.1-133.7 59.5-230.8 36.4-292c-26.4-70.2-81.3-410.2 202.7-450c552.2-77.3 368.9-334 706.4-467.1c437.6-172.6 672.5 49.5 813.9 232c120.4 155.4 366.9 74.8 548.7 146.9c278.5 110.6-8.6 451 172.2 549.5c167.9 91.5 271.4 542.6 70.3 692.6h-2425.9c-7.3-3.6-435.6-215.9-124.7-411.9z" />
			<path id="&lt;Path&gt;" class="s2" d="m1207.9 307.2q-0.2-2.9-0.2-5.9c0-33.4 26.8-60.4 60-60.4c10.5 0 20.5 2.8 29.1 7.6c12.2-33.8 44.4-57.9 82.2-57.9c31.8 0 59.6 17 75 42.6c6.6-2.1 13.7-3.3 21.1-3.3c28.4 0 52.9 16.9 64.2 41.2c3.9-1 8-1.6 12.2-1.6c22.9 0 42.1 16.1 47 37.7z" />
			<path id="&lt;Path&gt;" class="s2" d="m2164.6 612.4c2.5-10.9 12.2-19 23.7-19q3.2 0 6.2 0.8c5.7-12.2 18-20.7 32.4-20.7c3.7 0 7.2 0.5 10.6 1.6c7.7-12.9 21.7-21.5 37.8-21.5c19 0 35.3 12.2 41.4 29.2c4.4-2.4 9.4-3.8 14.7-3.8c16.7 0 30.3 13.6 30.3 30.4q0 1.5-0.2 3z" />
			<path id="&lt;Path&gt;" class="s2" d="m1637.7 490.5q-0.2-1.9-0.2-4c0-22.6 18.3-41 40.8-41c7.2 0 13.9 1.9 19.8 5.2c8.3-23 30.1-39.4 55.8-39.4c21.6 0 40.5 11.6 50.9 29c4.5-1.5 9.4-2.2 14.4-2.2c19.3 0 35.9 11.4 43.6 27.9c2.7-0.6 5.4-1 8.3-1c15.5 0 28.5 10.9 31.9 25.5z" />
			<path id="&lt;Path&gt;" class="s2" d="m982.7 580.3c2.3-9.9 11-17.2 21.5-17.2q2.9 0 5.6 0.7c5.1-11.1 16.3-18.8 29.3-18.8c3.4 0 6.6 0.5 9.7 1.4c7-11.6 19.7-19.4 34.2-19.4c17.3 0 32.1 11 37.6 26.5c4-2.2 8.5-3.5 13.4-3.5c15.1 0 27.4 12.4 27.4 27.6q0 1.4-0.1 2.7z" />
			<g id="&lt;Group&gt;">
				<g id="&lt;Group&gt;">
					<path id="&lt;Path&gt;" class="s3" d="m2810.9 1731h-8.3v-146.2h8.3z" />
					<path id="&lt;Path&gt;" class="s4" d="m2850 1619.3h-82.2l41.1-295z" />
					<path id="&lt;Path&gt;" class="s5" d="m2771.6 1591.8l71.5-22.5l1.1 8l-73.8 23.2z" />
					<path id="&lt;Path&gt;" class="s5" d="m2784.6 1498.6l46.6-14.6l1.1 8l-48.9 15.4z" />
				</g>
				<g id="&lt;Group&gt;">
					<path id="&lt;Path&gt;" class="s3" d="m544.4 1656.2h-7.2v-83.8h7.2z" />
					<path id="&lt;Path&gt;" class="s4" d="m565.6 1592.1h-47.1l23.6-169z" />
					<path id="&lt;Path&gt;" class="s5" d="m520.7 1576.4l40.9-12.9l0.7 4.6l-42.3 13.3z" />
					<path id="&lt;Path&gt;" class="s5" d="m528.1 1523l26.7-8.4l0.6 4.6l-28 8.8z" />
				</g>
				<g id="&lt;Group&gt;">
					<path id="&lt;Path&gt;" class="s3" d="m468.5 1693.9h-10.8v-119.2h10.8z" />
					<path id="&lt;Path&gt;" class="s4" d="m498.2 1627.1h-70.2l35.1-283.8z" />
					<path id="&lt;Path&gt;" class="s5" d="m442.3 1511.6l46.6 40l1.9 15.6l-50.1-43z" />
					<path id="&lt;Path&gt;" class="s5" d="m449.7 1451.3l27.9 9.5l1.5 11.7l-30.7-10.5z" />
				</g>
				<g id="&lt;Group&gt;">
					<path id="&lt;Path&gt;" class="s3" d="m2739 1673.7h-7.1v-78.5h7.1z" />
					<path id="&lt;Path&gt;" class="s4" d="m2758.6 1629.8h-46.2l23.1-186.8z" />
					<path id="&lt;Path&gt;" class="s5" d="m2721.8 1553.7l30.6 26.3l1.3 10.3l-32.9-28.3z" />
					<path id="&lt;Path&gt;" class="s5" d="m2726.7 1514l18.4 6.3l0.9 7.7l-20.2-6.9z" />
				</g>
				<g id="&lt;Group&gt;">
					<path id="&lt;Path&gt;" class="s4" d="m2452.9 1699.4q-0.9-5.2-0.9-10.5c0-39.7 37.2-71.9 83.1-71.9c45.9 0 83.1 32.2 83.1 71.9q0 5.3-0.8 10.5z" />
					<path id="&lt;Path&gt;" class="s5" d="m2546.9 1681.7q-0.8-7.3-0.8-14.8c0-56 37.2-101.4 83.1-101.4c45.9 0 83.1 45.4 83.1 101.4q0 7.5-0.9 14.8z" />
					<path id="&lt;Path&gt;" class="s5" d="m2681 1743.8q-0.9-5.1-0.9-10.5c0-39.7 37.2-71.9 83.2-71.9c45.9 0 83.1 32.2 83.1 71.9q0 5.4-0.9 10.5z" />
					<path id="&lt;Path&gt;" class="s4" d="m2548 1743.8q-1.2-7.2-1.2-14.8c0-56 47.2-101.4 105.4-101.4c58.2 0 105.4 45.4 105.4 101.4q0 7.6-1.1 14.8z" />
					<path id="&lt;Path&gt;" class="s5" d="m2722.4 1729q0 7.6-1 14.8h-284.9q-1-5.1-1-10.5c0-39.7 41.9-71.9 93.5-71.9c9.6 0 18.9 1.1 27.6 3.2c17.2-22.6 43.2-37 72.3-37c51.6 0 93.5 45.4 93.5 101.4z" />
				</g>
				<g id="&lt;Group&gt;">
					<path id="&lt;Path&gt;" class="s4" d="m637.4 1699.4q-0.9-5.2-0.9-10.5c0-39.7 37.2-71.9 83.2-71.9c45.9 0 83.1 32.2 83.1 71.9q0 5.3-0.9 10.5z" />
					<path id="&lt;Path&gt;" class="s5" d="m543.3 1681.7q-0.8-7.3-0.9-14.8c0-56 37.3-101.4 83.2-101.4c45.9 0 83.1 45.4 83.1 101.4q0 7.5-0.9 14.8z" />
					<path id="&lt;Path&gt;" class="s5" d="m409.3 1743.8q-0.9-5.1-0.9-10.5c0-39.7 37.2-71.9 83.1-71.9c45.9 0 83.1 32.2 83.1 71.9q0 5.4-0.8 10.5z" />
					<path id="&lt;Path&gt;" class="s4" d="m498.3 1743.8q-1.1-7.2-1.1-14.8c0-56 47.1-101.4 105.3-101.4c58.2 0 105.4 45.4 105.4 101.4q0 7.6-1.1 14.8z" />
					<path id="&lt;Path&gt;" class="s5" d="m625.9 1627.6c29.1 0 55.1 14.4 72.2 37c8.8-2.1 18-3.2 27.6-3.2c51.7 0 93.6 32.2 93.6 71.9q0 5.4-1 10.5h-284.9q-1-7.2-1-14.8c0-56 41.8-101.4 93.5-101.4z" />
				</g>
				<path id="&lt;Path&gt;" class="s6" d="m1990.8 638h-6.5v-44.3h6.5z" />
				<path id="&lt;Path&gt;" class="s6" d="m1939.4 638h-6.5v-44.3h6.5z" />
				<path id="&lt;Path&gt;" class="s6" d="m1888 638h-6.5v-44.3h6.5z" />
				<path id="&lt;Path&gt;" class="s6" d="m1836.6 638h-6.5v-44.3h6.5z" />
				<path id="&lt;Path&gt;" class="s7" d="m1991 983.5h59.8v740.9h-59.8z" />
				<path id="&lt;Path&gt;" class="s6" d="m1785.2 638h-6.5v-44.3h6.5z" />
				<path id="&lt;Path&gt;" class="s6" d="m1733.8 638h-6.5v-44.3h6.5z" />
				<path id="&lt;Path&gt;" class="s6" d="m1682.4 638h-6.5v-44.3h6.5z" />
				<path id="&lt;Path&gt;" class="s6" d="m1631 638h-6.5v-44.3h6.5z" />
				<path id="&lt;Path&gt;" class="s7" d="m1578.7 631.8h-258.6v-44.3h258.6z" />
				<path id="&lt;Path&gt;" class="s7" d="m1989 686.9h420.4v243h-420.4z" />
				<path id="&lt;Path&gt;" class="s8" d="m1989 686.9h49.5v243h-49.5z" />
				<path id="&lt;Path&gt;" class="s9" d="m1785.9 675.2h642.7v23.4h-642.7z" />
				<path id="&lt;Path&gt;" class="s10" d="m2297.8 860.4v-128.3h95.9v128.3z" />
				<path id="&lt;Path&gt;" class="s10" d="m2177.8 860.4v-128.3h95.9v128.3z" />
				<path id="&lt;Path&gt;" class="s10" d="m2060.2 860.4v-128.3h96v128.3z" />
				<path id="&lt;Path&gt;" class="s7" d="m1267.9 929.9h-420.4v-243h420.4z" />
				<path id="&lt;Path&gt;" class="s8" d="m1267.9 929.9h-49.5v-243h49.5z" />
				<path id="&lt;Path&gt;" class="s7" d="m2519.4 1743.8h-531.4v-810.3h531.4z" />
				<path id="&lt;Path&gt;" class="s9" d="m1784.9 921.8h754.9v23.4h-754.9z" />
				<path id="&lt;Path&gt;" class="s10" d="m2277.4 1111.7v-128.3h204.3v128.3z" />
				<path id="&lt;Path&gt;" class="s10" d="m2277.4 1260.5v-128.3h204.3v128.3z" />
				<path id="&lt;Path&gt;" class="s10" d="m2277.4 1409.3v-128.3h204.3v128.3z" />
				<path id="&lt;Path&gt;" class="s10" d="m2277.4 1558.2v-128.3h204.3v128.3z" />
				<path id="&lt;Path&gt;" class="s10" d="m2277.4 1707v-128.3h204.3v128.3z" />
				<path id="&lt;Path&gt;" class="s10" d="m2051 1111.7v-128.3h204.2v128.3z" />
				<path id="&lt;Path&gt;" class="s10" d="m2051 1260.5v-128.3h204.2v128.3z" />
				<path id="&lt;Path&gt;" class="s10" d="m2051 1409.3v-128.3h204.2v128.3z" />
				<path id="&lt;Path&gt;" class="s10" d="m2051 1558.2v-128.3h204.2v128.3z" />
				<path id="&lt;Path&gt;" class="s10" d="m2051 1707v-128.3h204.2v128.3z" />
				<path id="&lt;Path&gt;" class="s7" d="m736.6 933.5h531.3v810.3h-531.3z" />
				<path id="&lt;Path&gt;" class="s11" d="m730.3 1724.5h537.6v19.3h-537.6z" />
				<path id="&lt;Path&gt;" class="s11" d="m1986.4 1724.5h537.6v19.3h-537.6z" />
				<path id="&lt;Path&gt;" class="s8" d="m1218.4 933.5h49.5v810.3h-49.5z" />
				<path id="&lt;Path&gt;" class="s9" d="m1471 945.2h-754.8v-23.4h754.8z" />
				<path id="&lt;Path&gt;" class="s9" d="m1471 698.6h-642.7v-23.4h642.7z" />
				<path id="&lt;Path&gt;" class="s7" d="m1990.8 810.8h-722.9v-168.3h722.9z" />
				<path id="&lt;Path&gt;" class="s7" d="m1990.8 1743.8h-722.9v-796.1h722.9z" />
				<path id="&lt;Path&gt;" class="s10" d="m1310.8 1414.7v-399.8h636.7v399.8z" />
				<path id="&lt;Path&gt;" class="s10" d="m774.3 1111.7v-128.3h204.2v128.3z" />
				<path id="&lt;Path&gt;" class="s10" d="m774.3 1260.5v-128.3h204.2v128.3z" />
				<path id="&lt;Path&gt;" class="s10" d="m774.3 1409.3v-128.3h204.2v128.3z" />
				<path id="&lt;Path&gt;" class="s10" d="m774.3 1558.2v-128.3h204.2v128.3z" />
				<path id="&lt;Path&gt;" class="s10" d="m774.3 1707v-128.3h204.2v128.3z" />
				<path id="&lt;Path&gt;" class="s10" d="m1000.7 1111.7v-128.3h204.3v128.3z" />
				<path id="&lt;Path&gt;" class="s10" d="m863.2 860.4v-128.3h95.9v128.3z" />
				<path id="&lt;Path&gt;" class="s10" d="m983.2 860.4v-128.3h95.9v128.3z" />
				<path id="&lt;Path&gt;" class="s10" d="m1100.7 860.4v-128.3h96v128.3z" />
				<path id="&lt;Path&gt;" class="s10" d="m1000.7 1260.5v-128.3h204.3v128.3z" />
				<path id="&lt;Path&gt;" class="s10" d="m1000.7 1409.3v-128.3h204.3v128.3z" />
				<path id="&lt;Path&gt;" class="s10" d="m1000.7 1558.2v-128.3h204.3v128.3z" />
				<path id="&lt;Path&gt;" class="s10" d="m1000.7 1707v-128.3h204.3v128.3z" />
				<path id="&lt;Path&gt;" class="s6" d="m1738.1 1745.7h-207.4v-201.6h207.4z" />
				<path id="&lt;Path&gt;" class="s9" d="m961.8 862.4h-101.3v-6.7h101.3z" />
				<path id="&lt;Path&gt;" class="s9" d="m1081.8 862.4h-101.3v-6.7h101.3z" />
				<path id="&lt;Path&gt;" class="s9" d="m1199.3 862.4h-101.2v-6.7h101.2z" />
				<path id="&lt;Path&gt;" class="s9" d="m2157.6 862.4h-101.2v-6.7h101.2z" />
				<path id="&lt;Path&gt;" class="s9" d="m2277.6 862.4h-101.2v-6.7h101.2z" />
				<path id="&lt;Path&gt;" class="s9" d="m2395.2 862.4h-101.3v-6.7h101.3z" />
				<path id="&lt;Path&gt;" class="s12" d="m872.2 1700.3h-117.4l135.8-716.9h117.3z" />
				<path id="&lt;Path&gt;" class="s7" d="m774.3 1712.8h-37.7v-729.4h37.7z" />
				<path id="&lt;Path&gt;" class="s12" d="m1023 1700.3h-65.3l135.7-716.9h65.4z" />
				<path id="&lt;Path&gt;" class="s9" d="m1207.5 1111.7h-209.3v-6.7h209.3z" />
				<path id="&lt;Path&gt;" class="s9" d="m981.1 1260.5h-209.4v-6.7h209.4z" />
				<path id="&lt;Path&gt;" class="s9" d="m1207.5 1260.5h-209.3v-6.7h209.3z" />
				<path id="&lt;Path&gt;" class="s9" d="m981.1 1409.3h-209.4v-6.6h209.4z" />
				<path id="&lt;Path&gt;" class="s9" d="m1207.5 1409.3h-209.3v-6.6h209.3z" />
				<path id="&lt;Path&gt;" class="s9" d="m981.1 1558.2h-209.4v-6.7h209.4z" />
				<path id="&lt;Path&gt;" class="s9" d="m1207.5 1558.2h-209.3v-6.7h209.3z" />
				<path id="&lt;Path&gt;" class="s9" d="m1958.9 1421.4h-648.1v-6.7h648.1z" />
				<path id="&lt;Path&gt;" class="s9" d="m981.1 1707h-209.4v-6.7h209.4z" />
				<path id="&lt;Path&gt;" class="s9" d="m1207.5 1707h-209.3v-6.7h209.3z" />
				<path id="&lt;Path&gt;" class="s9" d="m981.1 1111.7h-209.4v-6.7h209.4z" />
				<path id="&lt;Path&gt;" class="s7" d="m1000.7 1712.8h-22.2v-730.3h22.2z" />
				<path id="&lt;Path&gt;" class="s7" d="m1207.5 1578.7h-440.8v-20.5h440.8z" />
				<path id="&lt;Path&gt;" class="s7" d="m1207.5 1429.9h-440.8v-20.6h440.8z" />
				<path id="&lt;Path&gt;" class="s7" d="m1207.5 1281h-440.8v-20.5h440.8z" />
				<path id="&lt;Path&gt;" class="s7" d="m1207.5 1132.2h-440.8v-20.5h440.8z" />
				<path id="&lt;Path&gt;" class="s12" d="m2114.2 1700.3h-117.4l135.8-716.9h117.3z" />
				<path id="&lt;Path&gt;" class="s12" d="m2299.7 1700.3h-65.3l135.8-716.9h65.3z" />
				<path id="&lt;Path&gt;" class="s7" d="m2277.5 1712.8h-22.2v-730.3h22.2z" />
				<path id="&lt;Path&gt;" class="s7" d="m2484.3 1578.7h-440.8v-20.5h440.8z" />
				<path id="&lt;Path&gt;" class="s7" d="m2484.3 1429.9h-440.8v-20.6h440.8z" />
				<path id="&lt;Path&gt;" class="s7" d="m2484.3 1281h-440.8v-20.5h440.8z" />
				<path id="&lt;Path&gt;" class="s7" d="m2484.3 1132.2h-440.8v-20.5h440.8z" />
				<path id="&lt;Path&gt;" class="s12" d="m908.5 855.7h-30.2l35.2-123.6h30.3z" />
				<path id="&lt;Path&gt;" class="s12" d="m1033.4 855.7h-21.2l35.2-123.6h21.2z" />
				<path id="&lt;Path&gt;" class="s12" d="m1123.3 855.7h-16.9l35.2-123.6h16.9z" />
				<path id="&lt;Path&gt;" class="s12" d="m2102 855.7h-30.3l35.3-123.6h30.2z" />
				<path id="&lt;Path&gt;" class="s12" d="m2226.8 855.7h-21.1l35.2-123.6h21.2z" />
				<path id="&lt;Path&gt;" class="s12" d="m2316.7 855.7h-16.8l35.2-123.6h16.8z" />
				<path id="&lt;Path&gt;" class="s9" d="m2483.8 1111.7h-209.3v-6.7h209.3z" />
				<path id="&lt;Path&gt;" class="s9" d="m2257.4 1260.5h-209.3v-6.7h209.3z" />
				<path id="&lt;Path&gt;" class="s9" d="m2483.8 1260.5h-209.3v-6.7h209.3z" />
				<path id="&lt;Path&gt;" class="s9" d="m2257.4 1409.3h-209.3v-6.6h209.3z" />
				<path id="&lt;Path&gt;" class="s9" d="m2483.8 1409.3h-209.3v-6.6h209.3z" />
				<path id="&lt;Path&gt;" class="s9" d="m2257.4 1558.2h-209.3v-6.7h209.3z" />
				<path id="&lt;Path&gt;" class="s9" d="m2483.8 1558.2h-209.3v-6.7h209.3z" />
				<path id="&lt;Path&gt;" class="s9" d="m2257.4 1707h-209.3v-6.7h209.3z" />
				<path id="&lt;Path&gt;" class="s9" d="m2483.8 1707h-209.3v-6.7h209.3z" />
				<path id="&lt;Path&gt;" class="s9" d="m2257.4 1111.7h-209.3v-6.7h209.3z" />
				<path id="&lt;Path&gt;" class="s8" d="m1990.8 698.6h-722.9v-56.1h722.9z" />
				<path id="&lt;Path&gt;" class="s9" d="m2006.8 655.3h-754.8v-23.5h754.8z" />
				<path id="&lt;Path&gt;" class="s9" d="m1585.2 587.5h-271.6v-23.4h271.6z" />
				<path id="&lt;Path&gt;" class="s9" d="m1962.3 1544.1h-665.8v-57.9h665.8z" />
				<path id="&lt;Path&gt;" class="s11" d="m1635.2 1745.7h-1.6v-201.6h1.6z" />
				<path id="&lt;Path&gt;" class="s11" d="m1947.5 1743.8h-37.5v-199.7h37.5z" />
				<path id="&lt;Path&gt;" class="s11" d="m1348.3 1743.8h-37.5v-199.7h37.5z" />
				<path id="&lt;Path&gt;" class="s10" d="m1545.9 1700.3v-145.5h74.3v145.5z" />
				<path id="&lt;Path&gt;" class="s10" d="m1648.6 1700.3v-145.5h74.3v145.5z" />
				<path id="&lt;Path&gt;" class="s13" d="m1584.9 1700.3h-32.4l25.6-145.5h32.4z" />
				<path id="&lt;Path&gt;" class="s13" d="m1689.1 1700.3h-32.4l25.6-145.5h32.4z" />
				<path id="&lt;Path&gt;" class="s12" d="m1440.9 1414.7h-88.7l100.1-399.8h88.7z" />
				<path id="&lt;Path&gt;" class="s12" d="m1833 1414.7h-168.5l100.1-399.8h168.5z" />
				<path id="&lt;Path&gt;" class="s7" d="m1471 1435.2h-5.4v-424.8h5.4z" />
				<path id="&lt;Path&gt;" class="s7" d="m1794.4 1435.2h-5.4v-424.8h5.4z" />
				<path id="&lt;Path&gt;" class="s7" d="m1630.5 1435.2h-5.4v-424.8h5.4z" />
				<path id="&lt;Path&gt;" class="s7" d="m1303.1 1225.7v-5.8h661.5v5.8z" />
				<path id="&lt;Path&gt;" class="s7" d="m1996.9 1367.3h53.9v351.2h-53.9z" />
				<g id="&lt;Group&gt;">
					<path id="&lt;Path&gt;" class="s14" d="m1743.3 1221.7c0 62.3-50.5 112.8-112.9 112.8c-62.3 0-112.8-50.5-112.8-112.8c0-62.3 50.5-112.9 112.8-112.9c62.4 0 112.9 50.6 112.9 112.9z" />
				</g>
				<path id="&lt;Path&gt;" class="s6" d="m1732.7 1221.7c0 56.4-45.8 102.2-102.3 102.2c-56.4 0-102.2-45.8-102.2-102.2c0-56.5 45.8-102.3 102.2-102.3c56.5 0 102.3 45.8 102.3 102.3z" />
				<g id="&lt;Group&gt;">
					<path id="&lt;Path&gt;" class="s14" d="m1640.8 1211.3l58-0.1v20.6l-58.2 0.1l-0.6 58.2l-20.5-0.2l0.5-57.9l-57.9 0.1v-20.6l58.2-0.1l0.6-58.2l20.5 0.2z" />
				</g>
				<path id="&lt;Path&gt;" class="s6" d="m1990.8 600.2h-412.1v-6.5h412.1z" />
				<g id="&lt;Group&gt;">
					<g id="&lt;Group&gt;">
						<path id="&lt;Path&gt;" class="s15" d="m744.3 1741.4c1.4 5.3-6.3 7.4-7.7 2.2c-9.7-25.8-20.5-71.3-54.4-160.5c-10-26.1-19-52.4-25.4-79.7q-5.1-21.5-8.3-43.4c-3.5 1-7.5 1.2-10.8 1.2c-29.7 0.2-66.7-29.3-73.7-90.2c-0.5-4.5-2.2-11.5 1.2-15c0.6-2.2 2.7-1.8 3.3-0.3c2.4 1.7 2.5 4.5 2.8 7.4c3.4 28.6 11 54.4 32.3 73.8c12.4 11.2 27.6 17.5 43.6 13.3q-4.5-35-4.3-70c0.1-13.9 0.5-27.8 2.4-41.5c0.5-3.9 6.7-2.9 6.6 1c-0.8 29.2-6.1 89.8 15.7 173.1c7.1 27.1 16.9 53.1 26.9 79.1c22.9 59.8 49.4 147.6 49.8 149.5z" />
						<path id="&lt;Path&gt;" class="s15" d="m825.3 1440.6c-1.9 11.3-4.4 22.2-8.6 32.9c-8 20-20.3 39.1-37.5 51.6c0 4.9-5.6 126.3-10.6 179.2c-2.8 29.7-2.6 31.8-4.5 37.2c-0.9 2.8-5.8 3.7-6.3 0c-0.3-1.8-0.7-3.6-0.7-5.5c0.2-8.2 12.3-111.1 13.6-192.5c-5.4-5.5-10-12.2-14.5-18.5c-29.1-41.2-48.2-91.5-53-142.4q-1-10.5-1.1-21.1c0-3.7 0-7.3 0.3-11c0.3-3.4 0-7.2 3.2-9c3.6-1.8 4.4 4.6 4.5 6.7q0.1 6.2 0.2 12.4q0.3 12 1.6 23.9c3.2 28.3 10.8 56.2 22.2 82.2c9.4 21.5 22.1 43.5 36.7 61.9c0-47.7-3.3-89.9-12.1-137.4q-1.8-9.7-3.9-19.2c-1.3-6.5-2.7-12.5-2.6-19.1c0-2.3 3.1-3.3 4.1-1.2c3.6 6.7 5.1 13.8 6.7 21.3q2.4 10.6 4.4 21.3q4.1 21.9 6.7 44.1c3 24.7 4.5 49.6 4.9 74.5c13.8-11.9 24.8-30.7 30.9-48.1c3.7-10.8 5.6-22 7.4-33.3c6.5-42.5 4-70.2 5-75.1c0.4-1.6 1.2-2.5 1.4-4c0.4-2.6 4.3-2.3 4.8 0c0.5 1.8 1.6 3.1 1.9 5c1.1 6.3 1.3 44.7-5.1 83.2z" />
					</g>
					<path id="&lt;Path&gt;" class="s9" d="m524.9 1291q-1-8.9-1-18c0-68.1 42.2-123.3 94.3-123.3c52.1 0 94.3 55.2 94.3 123.3q0 9.1-1 18z" />
					<path id="&lt;Path&gt;" class="s4" d="m631.6 1260.7q-1-12.5-1-25.4c0-96 42.3-173.9 94.3-173.9c52.1 0 94.4 77.9 94.4 173.9q0 12.9-1 25.4z" />
					<path id="&lt;Path&gt;" class="s9" d="m632.8 1367.2q-1.3-12.4-1.3-25.3c0-96.1 53.6-173.9 119.6-173.9c66 0 119.5 77.8 119.5 173.9q0 12.9-1.2 25.3z" />
					<path id="&lt;Path&gt;" class="s4" d="m830.7 1341.9q0 12.9-1.1 25.3h-323.3q-1.1-8.8-1.1-18c0-68.1 47.5-123.3 106.1-123.3c10.9 0 21.4 1.9 31.3 5.5c19.5-38.7 49-63.4 82-63.4c58.6 0 106.1 77.8 106.1 173.9z" />
				</g>
				<g id="&lt;Group&gt;">
					<path id="&lt;Path&gt;" class="s15" d="m2716.5 1368c-0.2 1.6-2.5 8.8-3 10.4c-18 53.2-63.9 76.6-70.6 77c-8.7 22.1-22.8 45.6-37.5 64.4c-6.4 8.2-8 10.9-10.6 12.5c0 65.5-0.3 206.9-0.4 210.5c-0.3 8.8-9.5 5.3-11.4 0.3c-1.2-2.9 2.2-235.5 1.4-236.4c-21.3-23.8-38-50.4-49.9-80.1c-5.9-14.7-14.7-41.7-13.7-56.9c0.2-1.6 2.5-1.5 3.1 0c3.9 10.1 5.7 20.8 8.9 31.2c10.8 35.1 29.1 68.7 54 97.5c-1.1-38.7-5.2-81.1-14-119.4c-0.6-2.3-9.1-36.9-9.9-39.6c-0.6-1.9 2.1-2.7 2.8-0.8c3.3 8.1 6.7 15.9 9.2 24.1c15.3 50.3 19.3 106.9 19.8 156.7c24.3-29.4 48.1-71.4 50.8-111c1.1-16.6-2-23.6-1.5-32.9c0.1-1.9 3.1-2.2 4.1-0.6c3.5 6.1 4.4 12.8 4.9 19.4c1.5 18-1.5 35.8-7 52.5c17-10.6 31.7-21.4 45.5-42.6c7.1-11.1 12.9-23.9 16.3-37c1.2-4.6 1.3-3.1 2.8-5.2c1.6-2.2 5.1-0.3 5.5 2.1c0.2 1.3 0.7 2.5 0.4 3.9z" />
					<path id="&lt;Path&gt;" class="s9" d="m2398.9 1288.1q-0.8-10.9-0.8-22.2c0-84.1 35.7-152.3 79.7-152.3c44.1 0 79.8 68.2 79.8 152.3q-0.1 11.3-0.9 22.2z" />
					<path id="&lt;Path&gt;" class="s4" d="m2489.2 1250.6q-0.9-15.3-0.9-31.3c0-118.6 35.7-214.7 79.8-214.7c44 0 79.7 96.1 79.7 214.7q0 16-0.9 31.3z" />
					<path id="&lt;Path&gt;" class="s4" d="m2617.8 1382.2q-0.9-10.8-0.9-22.2c0-84.1 35.7-152.2 79.7-152.2c44.1 0 79.8 68.1 79.8 152.2q0 11.4-0.9 22.2z" />
					<path id="&lt;Path&gt;" class="s9" d="m2490.1 1382.2q-1-15.3-1-31.3c0-118.6 45.2-214.7 101.1-214.7c55.8 0 101 96.1 101 214.7q0 16-1 31.3z" />
					<path id="&lt;Path&gt;" class="s4" d="m2657.4 1350.9q0 16-0.9 31.3h-273.3q-0.9-10.8-0.9-22.2c0-84.1 40.1-152.2 89.7-152.2c9.2 0 18.1 2.3 26.5 6.7c16.4-47.8 41.4-78.3 69.3-78.3c49.5 0 89.6 96.1 89.6 214.7z" />
				</g>
				<path id="&lt;Path&gt;" class="s9" d="m2871.3 1748.2h-2502.3v-8.7h2502.3z" />
				<path id="&lt;Path&gt;" class="s8" d="m2040.5 1739.6h-49.5v-794.5h49.5z" />
				<path id="&lt;Path&gt;" class="s6" d="m2020 979.1h-781.2v-168.3h781.2z" />
				<path id="&lt;Path&gt;" class="s16" d="m2020 979.1h-781.2v-71.1h781.2z" />
				<g id="&lt;Group&gt;">
					<path id="&lt;Compound Path&gt;" class="s7" d="m1342.7 942.9v-90.3h17.7v35.8h35.9v-35.8h17.7v90.3h-17.7v-39.3h-35.9v39.3z" />
					<path id="&lt;Compound Path&gt;" fill-rule="evenodd" class="s7" d="m1429.3 897.9q0-21.9 10.4-34.2q10.4-12.2 28.7-12.2q18.3 0 28.7 12.2q10.4 12.3 10.4 34.2q0 21.8-10.4 34.2q-10.4 12.3-28.7 12.3q-18.2 0-28.6-12.3q-10.5-12.4-10.5-34.2zm18 0q0 15.4 5.4 23.3q5.3 7.9 15.7 7.9q10.4 0 15.7-7.9q5.4-7.9 5.4-23.3q0-15.4-5.4-23.4q-5.3-8.1-15.7-8.1q-10.4 0-15.7 8.1q-5.4 8-5.4 23.4z" />
					<path id="&lt;Compound Path&gt;" class="s7" d="m1515.8 922.5l16.1-6.8q3.7 7.2 8.3 10.5q4.6 3.3 10.8 3.3q7.1 0 11.2-3.1q4.1-3.1 4.1-8.4q0-4.2-3-7q-3-2.8-10.9-5.6q-1.1-0.4-3.1-1.1q-13.9-4.8-19.3-8.2q-5.4-3.3-8.2-8.4q-2.9-5.1-2.9-11.5q0-11 8.5-17.8q8.5-6.8 22.2-6.8q12 0 20 5q8 4.9 11.8 14.7l-16.1 5.6q-3-6-7-8.8q-4.1-2.7-10-2.7q-5.7 0-9.1 2.5q-3.3 2.6-3.3 7q0 6.9 16.3 13q5 1.9 7.8 3.1q13.6 5.5 18.5 11.2q4.9 5.8 4.9 15.1q0 12.5-8.5 19.7q-8.6 7.1-23.5 7.1q-13 0-22-5.4q-9-5.5-13.6-16.2z" />
					<path id="&lt;Compound Path&gt;" fill-rule="evenodd" class="s7" d="m1598.7 942.9v-90.3h33.6q16.6 0 24.8 6.6q8.2 6.6 8.1 20.2q0 13.2-7.9 20.1q-8 6.9-23.3 6.9h-17.4v36.5zm17.9-50.8h13.1q9.7 0 13.8-3q4-2.9 4-9.7q0-6.9-4-9.9q-4.1-2.9-13.8-2.9h-13.1z" />
					<path id="&lt;Compound Path&gt;" class="s7" d="m1682.6 942.9v-90.3h17.8v90.3z" />
					<path id="&lt;Compound Path&gt;" class="s7" d="m1740 942.9v-75.4h-24.7v-14.9h67.3v14.9h-24.7v75.4z" />
					<path id="&lt;Compound Path&gt;" fill-rule="evenodd" class="s7" d="m1777.5 942.9l28.3-90.3h22.2l28.3 90.3h-17.7l-5.8-19.8h-32.5l-6 19.8zm27-34.2h24l-12-40.4z" />
					<path id="&lt;Compound Path&gt;" class="s7" d="m1867.2 942.9v-90.3h18v74.9h39.7v15.4z" />
				</g>
				<path id="&lt;Path&gt;" class="s17" d="m1360.7 735.7h-47v-18h47z" />
				<path id="&lt;Path&gt;" class="s17" d="m1323.7 763.1h-47v-18h47z" />
				<path id="&lt;Path&gt;" class="s17" d="m1354 790.1h-48v-15.2h48z" />
				<path id="&lt;Path&gt;" class="s17" d="m1383.9 761.8h-46.7v-15.2h46.7z" />
				<path id="&lt;Path&gt;" class="s17" d="m1669.9 790h-38v-13.6h38z" />
				<path id="&lt;Path&gt;" class="s17" d="m1695 767.8h-37.9v-13.6h37.9z" />
				<path id="&lt;Path&gt;" class="s17" d="m1474.9 1605.5h-38v-13.6h38z" />
				<path id="&lt;Path&gt;" class="s17" d="m1500 1583.3h-38v-13.6h38z" />
				<path id="&lt;Path&gt;" class="s17" d="m1879.3 1598.8h-37.9v-13.6h37.9z" />
				<path id="&lt;Path&gt;" class="s17" d="m1898.1 1623.6h-37.9v-13.6h37.9z" />
				<path id="&lt;Path&gt;" class="s17" d="m1836.7 724h47v17.9h-47z" />
				<path id="&lt;Path&gt;" class="s17" d="m1975.5 772h15.3v18h-15.3z" />
				<path id="&lt;Path&gt;" class="s17" d="m1958.5 743.2h32.6v18h-32.6z" />
				<path id="&lt;Path&gt;" class="s17" d="m1860 747.6h46.9v18h-46.9z" />
				<path id="&lt;Path&gt;" class="s17" d="m1512.2 753.6h46.9v18h-46.9z" />
				<path id="&lt;Path&gt;" class="s17" d="m1484.1 726.6h46.9v18h-46.9z" />
				<path id="&lt;Path&gt;" class="s17" d="m1843.4 774.9h48v15.2h-48z" />
				<path id="&lt;Path&gt;" class="s17" d="m1764.3 1648.8h47v18h-47z" />
				<path id="&lt;Path&gt;" class="s17" d="m1787.6 1672.4h46.9v18h-46.9z" />
				<path id="&lt;Path&gt;" class="s17" d="m1771 1699.7h48v15.2h-48z" />
				<path id="&lt;Path&gt;" class="s17" d="m1455.6 1670.5h-46.9v-18h46.9z" />
				<path id="&lt;Path&gt;" class="s17" d="m1432.3 1694.1h-46.9v-18h46.9z" />
				<path id="&lt;Path&gt;" class="s17" d="m1448.9 1718.6h-48v-15.2h48z" />
				<path id="&lt;Path&gt;" class="s17" d="m1804.7 750.7h46.6v15.2h-46.6z" />
			</g>
			<g id="&lt;Group&gt;">
				<path id="&lt;Path&gt;" class="s18" d="m2079.3 1725.2h-3.1v-45.6h3.1z" />
				<path id="&lt;Path&gt;" class="s18" d="m2230.3 1725.2h-3.1v-45.6h3.1z" />
				<g id="&lt;Group&gt;">
					<path id="&lt;Path&gt;" class="s19" d="m2240.8 1675.6v4.4c0 1.3-1 2.4-2.3 2.4h-170.5c-1.2 0-2.3-1.1-2.3-2.4v-4.4c0-1.3 1.1-2.3 2.3-2.3h170.5c1.3 0 2.3 1 2.3 2.3z" />
					<path id="&lt;Path&gt;" class="s19" d="m2240.8 1688.5v4.4c0 1.3-1 2.3-2.3 2.3h-170.5c-1.2 0-2.3-1-2.3-2.3v-4.4c0-1.3 1.1-2.3 2.3-2.3h170.5c1.3 0 2.3 1 2.3 2.3z" />
					<path id="&lt;Path&gt;" class="s19" d="m2240.8 1701.4v4.4c0 1.3-1 2.3-2.3 2.3h-170.5c-1.2 0-2.3-1-2.3-2.3v-4.4c0-1.3 1.1-2.4 2.3-2.4h170.5c1.3 0 2.3 1.1 2.3 2.4z" />
				</g>
				<path id="&lt;Path&gt;" class="s19" d="m2241.7 1728.7h-176.8v-1.3c0-3.2 2.5-5.7 5.7-5.7h165.4c3.1 0 5.7 2.5 5.7 5.7z" />
				<path id="&lt;Path&gt;" class="s18" d="m2243.2 1729.1v0.6c0 0.7-0.6 1.2-1.3 1.2h-177.7c-0.7 0-1.2-0.5-1.2-1.2v-0.6c0-0.8 0.5-1.3 1.2-1.3h177.7c0.7 0 1.3 0.5 1.3 1.3z" />
				<path id="&lt;Path&gt;" class="s20" d="m2173.5 1701.6c-1.2 0.5-3.2 2.2-3.7 1.8q-0.3-0.1-0.2-0.4c0.1-0.3 2.4-1.7 2.4-1.9q0.1-0.1-0.2-0.1q-3 2-3.6 2c-0.4 0-0.5-0.5-0.3-0.7c0.2-0.3 2.9-1.8 2.9-2q0-0.2-0.5 0.1q-3.3 2.1-3.9 2c-0.6-0.1-0.4-0.6 0-0.9c0.4-0.4 3.7-2.2 3.7-2.5q0.1-0.2-0.4 0q-3.5 2-3.8 2c-0.4 0.1-0.6-0.3-0.2-0.7c0.3-0.5 2.8-2.1 3-2.3c0.3-0.2 2.4-1.5 2.4-1.7c0.1-0.1-1.4 0.2-2.3 0.1c-0.4 0-0.9-0.1-1.1-0.4c-0.3-0.3 0-0.7 0.3-0.7c0.3 0 0.7 0.1 0.8 0c0.3-0.1 0.9-0.2 1.4-0.3c0.5-0.1 1.3-0.2 1.7-0.3c0.4 0 1.8 0.1 2.5 0.3c0.6 0.1 1.3 0.3 2 0.3q0.5 0 1.2 0q1.4-1 3.7-2.8q12.9-9.3 13.5-9.8l8.2-14.1l8.2 1.9q-9.4 15.1-10 15.7c-0.8 0.8-21 11.8-23.4 13.1c0 0.1-3.2 1.8-4.3 2.3z" />
				<path id="&lt;Path&gt;" class="s3" d="m2202.6 1672.8q-0.3 0.5-2.6 13.2l-6.2-4.9q1.8-6.2 4.1-11.8q2.5-6 4.4-6.6q0.6 9.7 0.3 10.1z" />
				<path id="&lt;Path&gt;" class="s21" d="m2191.3 1761.8q0.3 4.9 0.3 4.9c0.1 0.6 0.5 2.1 0.5 2.7c0 2.1-10.1-1.8-7.8-2.7c0.2-0.1 1.2-0.8 1.3-1.5q0.1-1.1 0.4-3.4z" />
				<path id="&lt;Path&gt;" class="s22" d="m2184.3 1766.6q2.4 0.7 3.6 0.9c1.2 0.1 2.8-1.2 3.6-0.9q1 0.4 1 4.1q-12.7 1-16.3 0c-1.4-0.5 3.3-2.5 8.1-4.1z" />
				<path id="&lt;Path&gt;" class="s21" d="m2174.1 1761.8q0.3 4.9 0.3 4.9c0.1 0.6 0.6 2.1 0.6 2.7c0 2.1-10.1-1.8-7.8-2.7c0.2-0.1 1.7-0.4 1.7-1.1q0.2-1.1 0.3-4.6z" />
				<path id="&lt;Path&gt;" class="s22" d="m2167.2 1766.6q2.3 0.7 3.6 0.9c1.2 0.1 2.8-1.2 3.6-0.9q1 0.4 0.9 4.1q-12.7 1-16.2 0c-1.5-0.5 3.2-2.5 8.1-4.1z" />
				<path id="&lt;Path&gt;" class="s23" d="m2206.5 1719.9q-3.7 3.8-15 4l-9.9-0.6l0.6 6.7c0.3 2.5 0 5.1-0.7 7.5l-7.2 24.9q-0.3 0.3-6 0q0.2-44.7 1.9-48.4q1.7-3.8 12.6-3.5l24.1-0.1q3.4 5.8-0.4 9.5z" />
				<path id="&lt;Path&gt;" class="s24" d="m2224.1 1722.9q-1.2 1.2-27.9 1.7l0.4 5.9c0.2 2.2 0 4.4-0.5 6.6c-1.4 6.9-4.6 25-4.5 25.3q0 0.3-6.6 0q-2.3-44.6-0.6-48.4q1.8-3.8 12.9-4.7l25.9-1.6q4.6 11.5 0.9 15.2z" />
				<path id="&lt;Path&gt;" class="s22" d="m2202.3 1662.7q3.6-0.9 10.4-1q4.3-0.4 5.6 0c2 0.6 5.8 1 5.6 9.8c-0.2 6.3-0.1 27.1-0.1 37.6l-25.9 0.2c2.4-21.2 0.9-45.8 4.4-46.6z" />
				<path id="&lt;Path&gt;" class="s21" d="m2209.7 1654l3.5 7.7q-3.4 5.2-6.3 5.2q-2.4-0.1-1.8-3.6q0-4.7-1.1-6.8q-1-2.2 5.7-2.5z" />
				<path id="&lt;Path&gt;" class="s11" d="m2209.1 1656.9c-0.9 0.9-2.5 2.1-4.2 2.8c-0.2-1.2-0.5-2.4-0.9-3.2c-0.4-1 0.7-1.6 2.1-2q1.9-0.4 3.6-0.5l0.7 1.5c-0.3 0.4-0.9 1.1-1.3 1.4z" />
				<g id="&lt;Group&gt;">
					<path id="&lt;Path&gt;" class="s21" d="m2208.5 1641.3c0.1-0.1 3.5 9.5 1.5 12.7c-1.9 3.2-6.6 5.1-8.8 3.4c-2.5-2-4.6-12.6-1.2-16.2q3.3-3.6 8.5 0.1z" />
					<path id="&lt;Path&gt;" class="s25" d="m2200.4 1635.6c3.1 0 5.5 1.5 6.3 2.1c1.5-0.1 3.5 0.3 6.1 3c3.1 3.5 2.3 8.2 0 10.9q-2.3 2.7-1.8 5.1l-0.7-1.1c-0.5-0.9-0.8-1.9-0.9-3c-0.1-0.6-0.1-1.3 0-1.9c0.4-1.5-1.9-2-2.7-3.1c-0.7-0.8-1.1-2.9-2.1-4.3l-1.1-0.9q-2.3-1.1-4.1-0.3c-1.9 0.8-3.1-6.4 1-6.5z" />
					<path id="&lt;Path&gt;" class="s21" d="m2208 1646.9c0.7-0.1 1.5 0.7 1.7 1.9c0.2 1.3-0.2 2.3-0.9 2.5c-0.7 0.1-1.4-0.8-1.6-2c-0.3-1.2 0.1-2.3 0.8-2.4z" />
				</g>
				<path id="&lt;Path&gt;" class="s14" d="m2201.8 1654.8q-1.7 0.2-2-1.3l3.9-0.6q0.2 1.6-1.9 1.9z" />
				<g id="&lt;Group&gt;">
					<path id="&lt;Path&gt;" class="s20" d="m2208.4 1700.9c-0.6 0.3-2 1-3 1.4c-1.3 0.6-2.9 0.5-3.3 0.6c0 0-1.4 0.3-3.1 0.2q-1.5-0.2-0.1-0.8q2.9-0.3 2.8-0.5c-0.1-0.2-1.6 0.1-3.3 0q-0.6-0.1-1.2-0.1c-1-0.1-1.3-0.8-0.2-0.9c0.4 0 1 0 1.5 0c0.5 0 0.9-0.1 1.4-0.1c0.8-0.1 1.4-0.1 1.4-0.1c-0.1-0.1 0.1-0.2-0.4-0.3c-0.5 0-1.7 0.1-2.5 0q-0.4-0.1-1.4-0.2q-1.4-0.5-1.4-0.6c-0.1-0.5 1-0.4 1.6-0.2q0.4-0.1 1.5 0q2-0.1 2-0.5c0-0.1-1.3-0.1-2.6-0.4c-1.1-0.2-2.3-0.7-2.3-0.9q0-0.5 1.4-0.3q0.9 0.1 1.2 0.1q0.4 0 1.5 0q3.8-0.2 3.7-0.5c0-0.3-0.4-1-0.7-1c-0.2-0.1-0.7 0-0.9-0.1c-0.3 0-0.5-0.4-0.5-0.7q0.1-0.3 1.4-0.4q1-0.1 1.7 0.2c2.3 1.2 2.7 1.7 3 1.9z" />
					<path id="&lt;Path&gt;" class="s20" d="m2231.7 1688.4q-0.1 1.1-5.8 4.1q-14.5 6.8-15.4 7.2c-0.5 0.3-1.2 0.8-2.1 1.3l-0.8-4.3q4.7-2.7 15.7-10.7q-0.1-0.7-2.3-6.6l6.7-3.1q4 10.9 4 12.1z" />
				</g>
				<path id="&lt;Path&gt;" class="s3" d="m2221.8 1683.1q-9.8-17-7.6-19.7c2.2-2.7 6.2-2.8 8.5 0.4q2.3 3.2 7.6 16.2z" />
				<g id="&lt;Group&gt;">
					<g id="&lt;Group&gt;">
						<path id="&lt;Path&gt;" class="s21" d="m2129.6 1762q0.3 2.3 0.4 3.3c0 0.7 1 1.4 1.2 1.5c2 0.9-7 4.7-7 2.6c0-0.5 0.4-2 0.5-2.6q0 0 0.2-4.8z" />
						<path id="&lt;Path&gt;" class="s24" d="m2138.3 1770.7q-3.1 1-14.4 0q-0.1-3.6 0.8-4c0.8-0.3 2.2 1 3.2 0.8q1.1-0.1 3.2-0.8c4.3 1.5 8.5 3.5 7.2 4z" />
						<path id="&lt;Path&gt;" class="s21" d="m2144.5 1761.2q0.2 3.4 0.3 4.5c0 0.7 1.4 1 1.6 1.1c2 0.9-7 4.7-7 2.6c0-0.5 0.4-2 0.5-2.6q0 0 0.2-4.8z" />
						<path id="&lt;Path&gt;" class="s24" d="m2153.5 1770.7q-3.1 1-14.4 0q0-3.6 0.8-4c0.8-0.3 2.2 1 3.3 0.8q1-0.1 3.1-0.8c4.3 1.5 8.5 3.5 7.2 4z" />
						<path id="&lt;Path&gt;" class="s25" d="m2111.3 1710.6l21.4 0.1q9.7-0.3 11.2 3.4q1.5 3.7 1.2 50.5q-5.2 0.8-5.5 0.5l-5.8-28c-0.6-2.4-0.8-4.9-0.6-7.3l0.6-6.5l-9.3-0.8q-9.6 1.1-12.9-2.6q-3.3-3.6-0.3-9.3z" />
						<path id="&lt;Path&gt;" class="s3" d="m2096.8 1708l23 1.5q9.9 0.9 11.4 4.6q1.6 3.7-0.9 50.9q-5.8 0.4-5.8 0.1c0-0.3-2.3-21.6-3.7-28.4q-0.6-3.2-0.4-6.5l0.8-7.5q-21.3-0.2-22.4-1.3q-3.3-3.7-2-13.4z" />
					</g>
					<g id="&lt;Group&gt;">
						<path id="&lt;Path&gt;" class="s26" d="m2144.7 1685.2c-1.5 0.5-2.8 0-5.1 1.6c-2.3 1.6-13.6 11-16.5 9.7c-1-0.5-5.8-8.9-7.2-12.4c1.9-1.2 4.1-1.5 5.9-2.8c0.4 1.1 3.3 6.9 3.7 8c3.3-0.9 12.5-6.2 13-6.4c0.4-0.2 2.2-6.7 2.8-6.2c0.7 0.4-1 3.4-0.2 3.7c0.8 0.4 7.7-3.4 7.7-2.8c0.1 1.2-4.1 2.5-4 3c0.1 0.6 4.3-1.8 4.8-1c0.5 0.8-4.1 1.8-4.2 2.3c-0.1 0.4 4.4-0.3 4.2 0.6c-0.2 0.6-4 0.6-3.9 1.2c0.2 0.7 3.1 1.1 2.9 1.7c-0.2 0.6-2.4-0.7-3.9-0.2z" />
						<path id="&lt;Path&gt;" class="s25" d="m2116.3 1670.1c-1.4 3.8-2.6 8-4.6 11.6c-1.3 2.5-3.3 4.8-5.8 6.2c-4.9 2.7-11 0.8-15-2.7c-5.7-4.9-8.5-15.3-2.3-20.9c1.7-1.5 3.7-2.7 5.5-4.1c5.7-4.6 6.9-16.5 16-16.5c2.9 0 6 1.5 7.3 4.1c1.5 3.1 2 6.3 1.8 9.6c-0.2 4.3-1.4 8.6-2.9 12.7z" />
						<path id="&lt;Path&gt;" class="s24" d="m2116.5 1688.2q-6.8-6.9-8.6-9.9c-1.7-3 1.2-1.1 4.2-1.8c1.2-0.3 0.9-7 3-4.8q3.6 3.5 8 9.7z" />
						<path id="&lt;Path&gt;" class="s11" d="m2115.1 1671.7c0.8 1.1 3.5 11.1 3.7 13.5q0.1 2.5 0 24.3q-14.3-0.5-22.2-0.4q1.9-9.7 1.9-13.1c0-3.4-3.3-23.9-0.6-26.2q2.8-2.4 8.9-1.2q7.6 2 8.3 3.1z" />
						<path id="&lt;Path&gt;" class="s21" d="m2112.3 1659.1q-0.3 1.6-0.7 3.6q-0.2 1.1-0.4 2.2c-0.3 1.3-0.5 2.6-0.7 3.5c-0.1 0.5 1.9 5.1 0.8 5.3c-3.7 0.6-7.5-4.6-6.7-6.2c0.8-1.4 1.8-6.3 2.1-7.8q0.1-0.3 0.1-0.4z" />
						<path id="&lt;Path&gt;" class="s11" d="m2106.7 1659.7q0.1-0.3 0.1-0.4l5.5-0.2q-0.3 1.6-0.7 3.6q-0.2 1.1-0.4 2.2c-0.9-0.1-1.8-0.5-2.7-1.3c-0.9-0.9-1.6-1.9-2-3q0.1-0.5 0.2-0.9z" />
						<path id="&lt;Path&gt;" class="s21" d="m2115.6 1656c-0.6 4.2-4.6 8.2-8.7 4.7c-4-3.5-2.3-10.1-0.6-12.2q1.6-2.1 4.2-1.8c6-0.1 5.7 5 5.1 9.3z" />
						<path id="&lt;Path&gt;" class="s21" d="m2116.8 1655.9c-0.4 1-1.3 1.5-1.8 1.2c-0.5-0.3-0.5-1.3 0-2.3c0.4-0.9 1.3-1.4 1.8-1.1c0.5 0.3 0.5 1.3 0 2.2z" />
						<path id="&lt;Path&gt;" class="s25" d="m2110.8 1646q-3.5 6.2-6 6.5q-2.5 0.3-2.8 3.6q0.9-7.6 3.4-9.1q2.4-1.4 5.4-1z" />
						<path id="&lt;Path&gt;" class="s21" d="m2105.5 1654.1c0.2 1.1-0.2 2.1-0.9 2.2c-0.7 0.2-1.5-0.6-1.7-1.7c-0.2-1.1 0.2-2.1 0.9-2.3c0.7-0.1 1.5 0.7 1.7 1.8z" />
						<path id="&lt;Path&gt;" class="s14" d="m2110 1659.7q-1.7-0.1-1.7-1.5l3.8 0.2q-0.1 1.5-2.1 1.3z" />
						<path id="&lt;Path&gt;" class="s14" d="m2110 1659.7q-1.7-0.1-1.7-1.5l3.8 0.2q-0.1 1.5-2.1 1.3z" />
						<path id="&lt;Path&gt;" class="s21" d="m2129.9 1688.1c-1.6 0.5-2.9 0-5.1 1.6c-2.3 1.6-13.6 11-16.5 9.7c-1-0.4-5.8-8.9-7.2-12.3c1.9-1.2 4.1-1.5 5.9-2.8c0.4 1 3.3 6.8 3.7 7.9c3.3-0.8 12.5-6.1 13-6.4c0.4-0.2 2.2-6.6 2.8-6.2c0.7 0.4-1 3.4-0.2 3.8c0.8 0.3 7.7-3.5 7.7-2.9c0.1 1.2-4.1 2.5-4 3.1c0.1 0.5 4.3-1.9 4.8-1.1c0.5 0.8-4.1 1.9-4.2 2.3c-0.1 0.5 4.4-0.3 4.2 0.7c-0.2 0.5-4 0.6-3.9 1.2c0.2 0.6 3.1 1.1 2.9 1.7c-0.2 0.6-2.4-0.8-3.9-0.3z" />
						<path id="&lt;Path&gt;" class="s24" d="m2100.2 1688q-4-8.8-4.6-12.3c-0.6-3.4 2.4-7.7 5.5-7.4q3.1 0.3 7.7 15.5z" />
					</g>
				</g>
				<path id="&lt;Path&gt;" class="s18" d="m2073.6 1775.9h-3.4v-45h3.4z" />
				<path id="&lt;Path&gt;" class="s18" d="m2237.8 1775.9h-3.4v-45h3.4z" />
			</g>
			<g id="&lt;Group&gt;">
				<path id="&lt;Path&gt;" class="s18" d="m2308.5 1725.2h-3.1v-45.6h3.1z" />
				<path id="&lt;Path&gt;" class="s18" d="m2459.5 1725.2h-3.1v-45.6h3.1z" />
				<g id="&lt;Group&gt;">
					<path id="&lt;Path&gt;" class="s19" d="m2470 1675.6v4.4c0 1.3-1 2.4-2.3 2.4h-170.5c-1.2 0-2.3-1.1-2.3-2.4v-4.4c0-1.3 1.1-2.3 2.3-2.3h170.5c1.3 0 2.3 1 2.3 2.3z" />
					<path id="&lt;Path&gt;" class="s19" d="m2470 1688.5v4.4c0 1.3-1 2.3-2.3 2.3h-170.5c-1.2 0-2.3-1-2.3-2.3v-4.4c0-1.3 1.1-2.3 2.3-2.3h170.5c1.3 0 2.3 1 2.3 2.3z" />
					<path id="&lt;Path&gt;" class="s19" d="m2470 1701.4v4.4c0 1.3-1 2.3-2.3 2.3h-170.5c-1.2 0-2.3-1-2.3-2.3v-4.4c0-1.3 1.1-2.4 2.3-2.4h170.5c1.3 0 2.3 1.1 2.3 2.4z" />
				</g>
				<path id="&lt;Path&gt;" class="s19" d="m2470.9 1728.7h-176.8v-1.3c0-3.2 2.5-5.7 5.7-5.7h165.4c3.1 0 5.7 2.5 5.7 5.7z" />
				<path id="&lt;Path&gt;" class="s18" d="m2472.4 1729.1v0.6c0 0.7-0.6 1.2-1.3 1.2h-177.7c-0.7 0-1.2-0.5-1.2-1.2v-0.6c0-0.8 0.5-1.3 1.2-1.3h177.7c0.7 0 1.3 0.5 1.3 1.3z" />
				<path id="&lt;Path&gt;" class="s18" d="m2302.8 1775.9h-3.4v-45h3.4z" />
				<path id="&lt;Path&gt;" class="s18" d="m2467 1775.9h-3.4v-45h3.4z" />
			</g>
			<g id="&lt;Group&gt;">
				<path id="&lt;Path&gt;" class="s18" d="m1036.3 1725.2h-3.1v-45.6h3.1z" />
				<path id="&lt;Path&gt;" class="s18" d="m1187.3 1725.2h-3.1v-45.6h3.1z" />
				<g id="&lt;Group&gt;">
					<path id="&lt;Path&gt;" class="s19" d="m1197.8 1675.6v4.4c0 1.3-1 2.4-2.3 2.4h-170.4c-1.3 0-2.4-1.1-2.4-2.4v-4.4c0-1.3 1.1-2.3 2.4-2.3h170.4c1.3 0 2.3 1 2.3 2.3z" />
					<path id="&lt;Path&gt;" class="s19" d="m1197.8 1688.5v4.4c0 1.3-1 2.3-2.3 2.3h-170.4c-1.3 0-2.4-1-2.4-2.3v-4.4c0-1.3 1.1-2.3 2.4-2.3h170.4c1.3 0 2.3 1 2.3 2.3z" />
					<path id="&lt;Path&gt;" class="s19" d="m1197.8 1701.4v4.4c0 1.3-1 2.3-2.3 2.3h-170.4c-1.3 0-2.4-1-2.4-2.3v-4.4c0-1.3 1.1-2.4 2.4-2.4h170.4c1.3 0 2.3 1.1 2.3 2.4z" />
				</g>
				<path id="&lt;Path&gt;" class="s19" d="m1198.7 1728.7h-176.8v-1.3c0-3.2 2.5-5.7 5.7-5.7h165.4c3.1 0 5.7 2.5 5.7 5.7z" />
				<path id="&lt;Path&gt;" class="s18" d="m1200.2 1729.1v0.6c0 0.7-0.6 1.2-1.3 1.2h-177.6c-0.8 0-1.3-0.5-1.3-1.2v-0.6c0-0.8 0.5-1.3 1.3-1.3h177.6c0.7 0 1.3 0.5 1.3 1.3z" />
				<path id="&lt;Path&gt;" class="s18" d="m1030.6 1775.9h-3.4v-45h3.4z" />
				<path id="&lt;Path&gt;" class="s18" d="m1194.8 1775.9h-3.4v-45h3.4z" />
			</g>
			<g id="&lt;Group&gt;">
				<path id="&lt;Path&gt;" class="s18" d="m793.8 1725.2h-3.1v-45.6h3.1z" />
				<path id="&lt;Path&gt;" class="s18" d="m944.8 1725.2h-3.1v-45.6h3.1z" />
				<g id="&lt;Group&gt;">
					<path id="&lt;Path&gt;" class="s19" d="m955.3 1675.6v4.4c0 1.3-1.1 2.4-2.3 2.4h-170.5c-1.3 0-2.3-1.1-2.3-2.4v-4.4c0-1.3 1-2.3 2.3-2.3h170.5c1.2 0 2.3 1 2.3 2.3z" />
					<path id="&lt;Path&gt;" class="s19" d="m955.3 1688.5v4.4c0 1.3-1.1 2.3-2.3 2.3h-170.5c-1.3 0-2.3-1-2.3-2.3v-4.4c0-1.3 1-2.3 2.3-2.3h170.5c1.2 0 2.3 1 2.3 2.3z" />
					<path id="&lt;Path&gt;" class="s19" d="m955.3 1701.4v4.4c0 1.3-1.1 2.3-2.3 2.3h-170.5c-1.3 0-2.3-1-2.3-2.3v-4.4c0-1.3 1-2.4 2.3-2.4h170.5c1.2 0 2.3 1.1 2.3 2.4z" />
				</g>
				<path id="&lt;Path&gt;" class="s19" d="m956.1 1728.7h-176.8v-1.3c0-3.2 2.6-5.7 5.7-5.7h165.4c3.2 0 5.7 2.5 5.7 5.7z" />
				<path id="&lt;Path&gt;" class="s18" d="m957.7 1729.1v0.6c0 0.7-0.6 1.2-1.3 1.2h-177.7c-0.7 0-1.3-0.5-1.3-1.2v-0.6c0-0.8 0.6-1.3 1.3-1.3h177.7c0.7 0 1.3 0.5 1.3 1.3z" />
				<path id="&lt;Path&gt;" class="s18" d="m788.1 1775.9h-3.4v-45h3.4z" />
				<path id="&lt;Path&gt;" class="s18" d="m952.2 1775.9h-3.4v-45h3.4z" />
			</g>
			<g id="&lt;Group&gt;">
				<path id="&lt;Path&gt;" class="s21" d="m1080.8 1761.5q0.3 2.4 0.4 3.5c0.1 0.8 1.2 1.5 1.4 1.6c2.4 1-8.2 5.1-8.2 2.9c0-0.6 0.4-2.3 0.5-2.9q0 0 0.4-5.2z" />
				<path id="&lt;Path&gt;" class="s24" d="m1091.1 1770.8q-3.8 1.1-17.1 0q0-3.8 1-4.3c0.9-0.4 2.5 1.1 3.8 0.9q1.3-0.2 3.8-0.9c5.1 1.6 10 3.8 8.5 4.3z" />
				<path id="&lt;Path&gt;" class="s21" d="m1098.4 1760.6q0.2 3.7 0.3 4.8c0.1 0.8 1.7 1.1 1.9 1.2c2.4 1-8.2 5.1-8.2 2.9c0-0.6 0.4-2.3 0.5-2.9q0 0 0.3-5.2z" />
				<path id="&lt;Path&gt;" class="s24" d="m1109.1 1770.8q-3.8 1.1-17.1 0q-0.1-3.8 0.9-4.3c0.9-0.4 2.6 1.1 3.9 0.9q1.3-0.2 3.8-0.9c5 1.6 10 3.8 8.5 4.3z" />
				<path id="&lt;Path&gt;" class="s25" d="m1059.1 1706.3l25.3 0.1q11.5-0.3 13.3 3.6q1.8 4 1.4 54.2q-6.1 0.9-6.5 0.6l-6.8-30.1c-0.8-2.5-1-5.2-0.8-7.9l0.7-6.9l-10.5 0.5q-11.8-0.2-15.7-4.1q-3.9-4-0.4-10z" />
				<g id="&lt;Group&gt;">
					<path id="&lt;Path&gt;" class="s3" d="m1042 1703.5l27.2 1.6q11.7 1 13.5 4.9q1.8 4-1.2 54.7q-6.7 0.4-6.7 0.1c0-0.4-2.8-23.2-4.4-30.5c-0.5-2.3-0.6-4.6-0.5-7l1-5.6q-24.6 1.3-25.8 0q-3.9-3.9-3.1-18.2z" />
				</g>
				<path id="&lt;Path&gt;" class="s27" d="m1072.6 1682l-7.5 0.5v-7l7.3-0.4z" />
				<path id="&lt;Path&gt;" class="s4" d="m1065.9 1678.6q-6.3-4.7-8.2-8c-1.9-3.3 1.3-1.1 4.6-2c1.2-0.3 0.9-7.6 3.2-5.3q3.9 3.9 7.1 11.7z" />
				<path id="&lt;Path&gt;" class="s28" d="m1065.6 1663.4c0.8 1.2 3.8 12.2 3.9 14.9q0.2 2.7-1.4 24.2q-3.2 5.6-26.7 6.6q2-44.2 4.7-47.1q3.4-3.7 10.4-2q8.3 2.2 9.1 3.4z" />
				<path id="&lt;Path&gt;" class="s21" d="m1062.5 1650.2q-0.4 1.8-0.8 4q-0.2 1.2-0.5 2.4c-0.3 1.4-0.5 2.8-0.7 3.8c-0.2 0.6 2.1 5.6 0.9 5.8c-4.1 0.7-8.3-5-7.4-6.8c0.8-1.5 2-6.9 2.3-8.5q0.1-0.3 0.1-0.5z" />
				<path id="&lt;Path&gt;" class="s11" d="m1056.3 1651.2q0-0.4 0.1-0.6l6-0.1q-0.3 1.8-0.8 4q-0.2 1.1-0.4 2.3c-1-0.1-1.9-0.5-2.9-1.4c-1.1-0.9-1.8-2.1-2.2-3.3q0.1-0.5 0.2-0.9z" />
				<g id="&lt;Group&gt;">
					<path id="&lt;Path&gt;" class="s21" d="m1098.3 1677.2q-0.2-0.8 0.3-2.2c0.4-0.9 0.3-2.6 0.8-2.3c0.5 0.4 0 1.9 0.4 1.8c0.4-0.2 1.8-3.3 2.3-3.1c0.4 0.3-1 3.2-0.7 3.1c0.4-0.1 1.5-2.9 2.1-2.5c0.7 0.4-1.5 3.2-1.2 3.4c0.4 0.2 1.7-1.6 2.2-1.3c0.6 0.4-1.9 2.4-1.7 2.3c0.3 0 1.9-0.6 2-0.3c0.1 0.3-3.2 1.8-3.5 2.6c-0.3 0.8-5.4 9-7.1 9.2c-1.7 0.2-9.8-4.1-10.5-5.7c-0.7-1.6-0.2-3.4 0.8-3.8c1.1-0.3 8.7 4 9 3.9q0.4-0.1 4.8-5.1z" />
					<path id="&lt;Path&gt;" class="s26" d="m1099.8 1674.2q0.2 0.4 0.4 0.8c0 0 0.3 0.8-0.2 1.7c0.1-0.6 0.3-1.3-0.2-2.5z" />
					<path id="&lt;Path&gt;" class="s21" d="m1073.7 1717.1q0.7 0.6 2.8 1.1q-0.3 2.6-2.5 8.6q-0.9-0.4-0.9-1.1c-0.1-0.7-0.4-4.1-1.6-5.1c-0.2-0.3-3.5-3.2-6.2-5.9c0.9-1.1 3.9-1.3 4.6-2.5c1.6 1.4 3.5 4.7 3.8 4.9z" />
					<path id="&lt;Path&gt;" class="s28" d="m1078 1718.9c0.2 0.9-3.4 9.4-4.1 9.5c-0.7 0.2-1.3-4.6-1-5.2q0.4-0.6 1.8-5.6q3.1 0.4 3.3 1.3z" />
					<path id="&lt;Path&gt;" class="s21" d="m1068.9 1725.6q0.3 0.8 1.9 2.4q-1.6 1.9-6.7 5.9q-0.6-0.8-0.2-1.4c0.3-0.6 1.9-4.6 1.4-6c-0.1-0.4-1.1-3.1-2-4.6c1.4-0.4 2.8-1.1 4.1-1.7c0.6 2 1.4 5.1 1.5 5.4z" />
					<path id="&lt;Path&gt;" class="s24" d="m1076.7 1698.7l1.3 5.7q-10.8 6.2-11.2 6.7q-0.5 0.4 1.7 10.1q-1.7 1.6-5.8 1.9q-4.4-13.8-3.6-15.1q0.9-1.8 10.4-11.2z" />
					<path id="&lt;Path&gt;" class="s11" d="m1084 1695.3q1.6 7.2-1 9.7c-2.7 2.5-13.7 4-13.8 4.6q-0.1 0.5 2.7 4.2l-4.9 3.8q-5.8-7.8-6.1-10c-0.7-3.8 11.6-9.9 13.1-10.7q1.9-1.1 5.7-6.1z" />
					<path id="&lt;Path&gt;" class="s29" d="m1081.9 1676.3q2.3 0.5 8.9 3.1l-2.2 7.8l-4.8-2.2c0 1.6 0.3 4.3 1.3 8.8q1.1 5-0.9 9.7q-12.2-2.6-17.7-3.7c-2.5-0.6 4.9-25.1 6-24.7q1.1 0.4 4.3 0.8q4.5 0.3 5.1 0.4z" />
					<path id="&lt;Path&gt;" class="s28" d="m1072.1 1729.4c-0.3 0.9-7.9 6.4-8.7 6.1c-0.8-0.2 0.6-4.6 1.2-4.9q0.8-0.4 4.9-4.1q2.9 2 2.6 2.9z" />
					<g id="&lt;Group&gt;">
						<path id="&lt;Path&gt;" class="s19" d="m1083.7 1661.3c1.1 2.5 1.4 4.4 3.3 6.3q1.9 1.9-0.1 4.2c0.5 2.3-2.6 3.9-3.8 3.9c-1.2 0-0.2 0-3 0.8q-2.9 0.7-5.8-0.9c-1.9 0.2-4.1-1.1-5-2.7q-1-1.5-0.1-3q-0.9-0.3-0.9-2.3c0-2 2-1.7 2.8-3c0.8-1.2-0.1-1 1.5-3.5q1.6-2.5 4.1-1.6c1.3-0.6 5.9-0.7 7 1.8z" />
					</g>
					<path id="&lt;Path&gt;" class="s21" d="m1079.1 1671.4l0.4 5.5q-0.5 0.8-1.5 1.3c-0.9 0.5-3 1-3.5 0.2c-0.5-0.9 0-1.4 0.3-1.7q0.3-0.3 0.2-3.8z" />
					<path id="&lt;Path&gt;" class="s11" d="m1075 1674.6q0.1-0.9 0-1.7l4.1-1.5v0.8c-0.9 1.4-2 1.9-2.7 2.1c-0.3 0.1-0.8 0.3-1.4 0.3z" />
					<path id="&lt;Path&gt;" class="s21" d="m1079.8 1667.5q0.1-2 1.3-1.6c1.3 0.4 0.3 3.4-0.7 3.3q-1-0.1-0.6-1.7z" />
					<path id="&lt;Path&gt;" class="s21" d="m1080.5 1669.4c-0.8 2.8-2.5 3.5-3.4 3.8c-0.9 0.3-3 1-4.6-2c-1.7-3-0.6-7.3 0.4-8.9q1-1.5 3-1.4c4.9-0.6 5.5 5.7 4.6 8.5z" />
				</g>
				<g id="&lt;Group&gt;">
					<path id="&lt;Path&gt;" class="s20" d="m1076.3 1684.1c0.2-0.3 0.2-0.9 1.3-3q0.3-0.7 1.2-1.2q1-0.6 1.3-0.4c0.2 0.2 0.1 0.6 0 0.8c-0.2 0.2-0.6 0.4-0.7 0.6c-0.2 0.1-0.1 0.9 0 1.1q0.1 0.3 3.2-1.6q0.8-0.6 1.1-0.8q0.2-0.2 0.8-0.9q0.9-0.8 1.2-0.5c0.1 0.2-0.5 1.2-1.3 2c-0.8 0.9-1.7 1.7-1.7 1.8q0.2 0.2 1.9-0.8q0.6-0.7 1-0.8c0.4-0.5 1.1-1.1 1.4-0.7q0.1 0-0.8 1.2q-0.6 0.6-0.9 0.9c-0.6 0.5-1.5 1.1-1.9 1.4c-0.3 0.3-0.1 0.3-0.1 0.4c0 0 0.4-0.3 1.1-0.7c0.3-0.2 0.8-0.4 1.1-0.7c0.3-0.3 0.8-0.6 1.1-0.8c0.9-0.5 1.1 0.2 0.4 0.8q-0.5 0.3-0.9 0.7c-1.2 1-2.5 1.7-2.5 1.8q0.1 0.3 2.4-1.1q1.4-0.3 0.4 0.6c-1.3 1.1-2.4 1.6-2.5 1.6c-0.4 0.2-1.5 1.1-2.8 1.3c-1 0.3-2.4 0.5-3.1 0.7z" />
					<path id="&lt;Path&gt;" class="s21" d="m1050 1679.7l6.8-1.3q1.5 5.6 1.8 6.2q12.7 0 17.7-0.5l1.8 3.6c-0.9 0.2-1.8 0.2-2.2 0.3q-1 0.2-15.7 3q-5.9 0.9-6.6 0q-0.6-0.9-3.6-11.3z" />
				</g>
				<path id="&lt;Path&gt;" class="s4" d="m1050.4 1685.8q-6.3-14.4-6.5-18.5c-0.1-4 4-8.4 7.5-7.5q3.5 0.9 7.7 22.4z" />
				<path id="&lt;Path&gt;" class="s14" d="m1075 1671q-1.4-0.1-1.4-1.3l3.1 0.2q-0.1 1.2-1.7 1.1z" />
				<g id="&lt;Group&gt;">
					<g id="&lt;Group&gt;">
						<path id="&lt;Path&gt;" class="s21" d="m1066.8 1639c3.1 3.7 0.5 13.9-1.9 15.7c-2.3 1.6-6.8-0.4-8.6-3.7c-1.7-3.2 2-12.4 2.2-12.3q5.2-3.4 8.3 0.3z" />
						<path id="&lt;Path&gt;" class="s15" d="m1067.3 1639.9q-1.7-0.9-4 0.1l-1.1 0.9c-1.1 1.2-1.6 3.3-2.3 4c-0.8 1-3.1 1.4-2.8 3c0.1 0.5 0.1 1.2 0 1.8q-0.2 1-1.3 3.7q0.1-2.1-2-4.9c-2.2-2.7-2.8-7.4 0.5-10.6c2.7-2.6 4.6-2.8 6-2.7c0.9-0.5 3.3-1.8 6.3-1.7c4 0.2 2.5 7.2 0.7 6.4z" />
						<path id="&lt;Path&gt;" class="s21" d="m1059.4 1646.6c-0.3 1.2-1.1 2-1.8 1.8c-0.6-0.2-0.9-1.2-0.7-2.4c0.3-1.2 1.1-2 1.8-1.8c0.6 0.1 1 1.2 0.7 2.4z" />
					</g>
					<path id="&lt;Path&gt;" class="s14" d="m1062.6 1650.3l3.8 0.7q-0.4 1.4-2.1 1.2q-2-0.4-1.7-1.9z" />
				</g>
			</g>
			<g id="&lt;Group&gt;">
				<path id="&lt;Path&gt;" class="s26" d="m1136.2 1687.5c-0.3-0.5 2-1.6 2-2.1c0-0.5-3.1 0.3-3.4-0.1c-0.4-0.8 3.5-1.1 3.3-1.5c-0.2-0.4-4.2-0.2-3.9-0.9c0.2-0.8 4.1 0.2 4.1-0.3c0-0.4-3.7-0.6-3.9-1.6c-0.1-0.5 6.3 1.1 6.9 0.6c0.6-0.4-1.4-2.5-1-3c0.4-0.5 3.3 4.4 3.7 4.5c0.4 0 9 2.3 11.9 2.2c0.1-1 1.2-6.4 1.3-7.3c1.8 0.6 3.6 0.4 5.4 0.9c-0.4 3.2-2.5 11.3-3.2 11.8c-2.2 1.8-13.4-3.4-15.5-4.2c-2.2-0.8-3.2-0.1-4.5-0.2c-1.4 0-2.9 1.6-3.2 1.2z" />
				<path id="&lt;Path&gt;" class="s21" d="m1133.8 1758q-0.5 5.9-0.2 7.9q0.1 0.4 0.3 0.9q0.4 1.1-0.6 4.4l-13.5 0.1c-0.8 0-0.3-0.5 0.3-0.9c1-0.7 1.8-1.2 4.9-2.7c0.2-0.1 1-0.5 1.2-0.7c0.7-0.4 1.4-1 2-1.7q1-1 1.1-6.3z" />
				<path id="&lt;Path&gt;" class="s21" d="m1118.5 1748.1q-2.9 5.2-3.4 7.1q-0.1 0.4-0.2 1q-0.1 1.1-2.4 3.7l-12.3-5.5c-0.7-0.3 0-0.5 0.7-0.7c1.2-0.2 2.1-0.3 5.5-0.3c0.3 0 1.1-0.2 1.5-0.2c0.7-0.1 1.6-0.4 2.4-0.7q1.4-0.6 3.7-5.3z" />
				<path id="&lt;Path&gt;" class="s25" d="m1161.9 1653c0.5-3.6 3.7-6.6 7.2-7.8c11-3.7 17.1 10.1 26 13.2c2.6 0.9 5.4 1.5 8 2.6c0.4 1.2 0.6 2.4 0.6 3.6q-0.1 2-0.6 3.8l-3.6-0.8l2.6 3.4c-1.8 3.6-4.6 6.8-7.4 9.8c-4 4.2-8.7 7-13.9 9c-3.2-3.3-6-7.2-8.9-10.7c-3.4-4.3-6.5-8.8-8.5-14c-1.4-3.8-2.1-7.8-1.5-12.1z" />
				<path id="&lt;Path&gt;" class="s24" d="m1107.9 1753.2c2.8 2.4 5.5 2.9 7 3c-0.1 1.2-1 4.8-1.3 4.6c-3.1-1.4-6-2-14.8-6.2c-0.3-0.1 0.2-1.2 0.6-1.3c0.8-0.4 8.1-0.1 8.5-0.1z" />
				<path id="&lt;Path&gt;" class="s6" d="m1168.9 1674q-0.9-0.3-3.3 10.3q-2.1 1.3-10.4-1.1q2.5-12.6 7.8-14.4z" />
				<path id="&lt;Path&gt;" class="s11" d="m1180.5 1668.8q0.5 0.1 1.1 2.8l-0.7 9.7c-0.5 0.8-1.3 23.7-2.3 25c-1 1.4-15.4 0.6-17.8-1c-0.1 0-1.1-19.4-1.1-20.6c-0.2-8.2 0.9-14.9 2.9-15.8c1.7-0.7 5.8-1.9 5.9-1.9c2.2 0 8.9 1.1 12 1.8z" />
				<path id="&lt;Path&gt;" class="s21" d="m1174.4 1661.9q-0.9 4.8-0.7 6.8c0.1 1.9-0.8 8.1-4.8 8.1c-4.1 0-0.8-7.9-0.4-9.8q0.4-1.8 0.5-7.7z" />
				<path id="&lt;Path&gt;" class="s11" d="m1168.9 1662.3q0-1.6 0.1-3l5.4 2.6q-0.2 1-0.4 2.2c-2.4 0.5-4.1-0.4-5.1-1.8z" />
				<path id="&lt;Path&gt;" class="s21" d="m1172.3 1647.7q2.4 0.4 3.9 2.6c1.5 2.1 2.8 8.6-1.9 11.8c-4.6 3.2-8.5-0.9-8.7-5.1c-0.2-4.2 0.5-9.8 6.7-9.3z" />
				<path id="&lt;Path&gt;" class="s21" d="m1164.7 1653.4c0.6-0.2 1.4 0.4 1.9 1.4c0.4 1 0.3 2-0.3 2.2c-0.6 0.3-1.4-0.3-1.8-1.3c-0.5-1-0.4-2 0.2-2.3z" />
				<path id="&lt;Path&gt;" class="s25" d="m1177.4 1649.1q2.5 1.7 2.8 9.4q-0.1-3.3-2.7-3.8q-2.6-0.5-5.9-7.1q3.2-0.2 5.8 1.5z" />
				<path id="&lt;Path&gt;" class="s21" d="m1178.4 1654.5c0.7 0.2 1.1 1.3 0.8 2.3c-0.3 1.1-1.2 1.9-1.9 1.7c-0.7-0.2-1.1-1.3-0.8-2.4c0.3-1.1 1.2-1.8 1.9-1.6z" />
				<path id="&lt;Path&gt;" class="s25" d="m1179.6 1701.4q7.4 16.7-7 22.3l-31.7-0.5q3.4 13.9-7 41.5l-6.1-0.1l1-32.9l-4 2.7l7.1-21.3l28.7-6.1v-3z" />
				<path id="&lt;Path&gt;" class="s9" d="m1140.2 1714.1c-2 1.2-7.3 13.2-8 14.8q-0.8 1.6-14.5 24.6l-6.9-2.6q15.8-40.4 17.9-42.1q2.1-1.6 31.9-1.8q-18.3 5.9-20.4 7.1z" />
				<path id="&lt;Path&gt;" class="s20" d="m1189.6 1691.1q-2.7 4.2-20.3 3.4l-0.4-3c0.1 0 13-2.3 15.3-3.7l-4.9-8l4.9-4.2c0.1-0.1 7.6 12 5.4 15.5z" />
				<path id="&lt;Path&gt;" class="s21" d="m1165 1695.7c-1.2 0.4-2.5 0.3-2.8 0.3c-0.1 0-1.3 0.3-2.8 0.1q-1.3-0.3 0-0.7q2.5 0 2.5-0.2c-0.1-0.2-1.4-0.1-2.9-0.3q-0.5-0.1-1-0.2c-0.9-0.1-1.1-0.7-0.1-0.7c0.3 0 0.9 0 1.3 0.1c0.4 0 0.8 0 1.2 0c0.7 0 1.2 0 1.2 0c0-0.1 0.1-0.2-0.3-0.2c-0.4-0.1-1.5-0.1-2.2-0.3q-0.3-0.1-1.2-0.2q-1.3-0.5-1.3-0.5c0.1-0.5 1.1-0.5 1.6-0.3q0.4 0 1.2 0.2q1.9 0 1.9-0.3c0-0.2-4.4-1.1-4.4-1.5q0.1-0.4 1.4-0.2q0.8 0.2 1.1 0.3q0.3 0 1.3 0.1q3.3 0.1 3.3-0.2c-0.1-0.2-0.6-0.6-0.8-0.7c-0.2 0-0.5-0.2-0.7-0.2c-0.2-0.1-0.3-0.3-0.2-0.6c0.1-0.3 0.9-0.1 1.2 0c1 0.3 3.3 1.7 3.5 1.9c0.1 0 2.7-0.1 3.1-0.1l1.3 3.3c-0.1 0-5.2 0.7-6.4 1.1z" />
				<path id="&lt;Path&gt;" class="s11" d="m1180.5 1668.8q4.9 2 8.3 14.4q-8.3 2.4-10.5 1.1q-2.4-10.6-3.2-10.3z" />
				<path id="&lt;Path&gt;" class="s24" d="m1126.2 1766.6c3.6 0.9 6.2 0.3 7.7-0.2c0.4 1.1 1.1 4.7 0.7 4.7c-3.4 0-6.3 0.7-16 0.5c-0.3 0-0.3-1.2-0.1-1.5c0.6-0.7 7.5-3.4 7.7-3.5z" />
				<path id="&lt;Path&gt;" class="s14" d="m1168.3 1659.3l3.7 0.4q-0.3 1.5-1.9 1.3q-2-0.1-1.8-1.7z" />
			</g>
			<path id="&lt;Path&gt;" class="s30" d="m828.6 1691q0.2-0.3 6.7 1.4l-0.5 9l1 13.6l-8.5-2.5l-0.2-19.5q1.3-1.7 1.5-2z" />
			<path id="&lt;Path&gt;" class="s9" d="m828.9 1672.6c0.4 0 1.4 0.3 3 3.2q1.9 3.6 2.9 18.1l-6.6-0.3l-1.1-2.3l-1.8-17.7q3.5-1 3.6-1z" />
			<path id="&lt;Path&gt;" class="s4" d="m817.7 1671c2.4 0 8.4 0.7 11.2 1.6q5.4 18.4 1.5 31.7q-0.9 3-0.8 12l-28.1-1.3q4.2-22.3 3.1-25.9q-1.2-3.7-1.2-16.4q0.2 0 5.6-1c2.6-0.4 6.1-0.7 8.7-0.7z" />
			<path id="&lt;Path&gt;" class="s3" d="m823.7 1713.7q14.9-2.3 19 0.1q4.1 2.3-4.4 13q-11.4-0.8-14.8-0.8c-3.3 0.1-13.6 0.9-19.5 0c-5.9-0.8-5.3-10.9-4.1-12.1q1.1-1.3 23.8-0.2z" />
			<path id="&lt;Path&gt;" class="s21" d="m829.1 1767.3q-0.6 2.8 0.7 4.6c1.3 1.7 6.5 3.3 7.2 4.3q0.7 0.9 0.6 1.8h-14.5l0.1-5.4l0.5-3.9z" />
			<path id="&lt;Path&gt;" class="s15" d="m837.6 1775.1c0.4 0.2 1.1 0.6 1.8 1.2c0.9 0.8 0.4 1.9-0.8 2h-16.3q0.1-5.1 0.6-5.5c0.5-0.4 0.5-0.1 2.3 0.9q1.8 1 5.5-1q5.6 1.5 6.9 2.4z" />
			<path id="&lt;Path&gt;" class="s22" d="m834.3 1718c1.3-2.7 4.7-6.7 9-3.9c4.1 2.7 3 11.3 1.2 16.6c-1.8 5.3-13.3 36.1-14 40.4l-7-0.8q3.4-25.1 4.2-31.2c0.8-5.9 4.2-16.3 6.6-21.1z" />
			<path id="&lt;Path&gt;" class="s21" d="m813.3 1759.2q0.6 8.3 1.7 10.5c1 2.3-0.1 6.2-0.1 6.7c-0.1 0.5-2.3 1.3-5.7 0.8c-3.5-0.4-3.5-1.4-3.2-3c0.3-1.6 2.1-3.6 2.3-5.1q0.1-1.6-1.1-7z" />
			<path id="&lt;Path&gt;" class="s15" d="m808.7 1778.4c-3.6-0.5-3.1-2.7-2.8-4.3c0.2-1 1.2-2.2 1.8-3.4c0.3 0.3 0.8 0.9 2.4 1.4c1.6 0.6 3.8-0.5 5.2-1.3c0.5 2.3 0.5 5.3 0.5 5.7c-0.1 0.6-3.5 2.3-7.1 1.9z" />
			<path id="&lt;Path&gt;" class="s22" d="m810.9 1728.9q0.7 6.7 4.3 40.1l-8.3 1.3q-10.2-43.7-9.7-50.3q0.5-6.7 4.3-7.3q7.5-1.6 9.4 16.2z" />
			<g id="&lt;Group&gt;">
				<g id="&lt;Group&gt;">
					<g id="&lt;Group&gt;">
						<path id="&lt;Path&gt;" class="s25" d="m823.6 1651.7c0.6 3 3 11.7-1.9 13c0 0-3.8 1.1-5.4 0.7c-1.5-0.3-3 1-4.4 1.3c-0.9 0.2-1.1-0.6-1.9-0.8c-0.9-0.3-1.7 0.1-2.6-0.5c-0.8-0.5-1.4-1.1-2-1.8c-1.9-2.3-3-4.6-2.6-7.5c0.4-2.5 1.7-5 4.1-6.2c0.7-0.4 1.5-1 2.2-1.2c0.2 0 1.5 0.1 1.5 0.1q1.8-3.8 5.2-1.3c3-0.7 7.2 1.3 7.8 4.2z" />
						<path id="&lt;Path&gt;" class="s21" d="m818.3 1667l0.9 3.2l0.5 1.8q0.9 2-1.5 2.4q-4.5 0.7-6.1-2.8l-0.9-9.9z" />
						<path id="&lt;Path&gt;" class="s11" d="m811.2 1661.7l7.1 5.3l0.9 3.2c-2.4-0.5-5.9-2.1-7.7-5.3z" />
						<path id="&lt;Path&gt;" class="s21" d="m813.6 1651.8c2.9-1.3 6.5 0.2 7.4 3.1c0.4 1.2 0.8 2.8 1.1 4.6c0.7 4.2-1.1 8.6-3.1 8.9c-2.1 0.2-8.3-1.8-9.4-7.8c-0.7-3.7 0.9-7.3 4-8.8z" />
						<path id="&lt;Path&gt;" class="s21" d="m811.2 1660.9c0.2 0.9-0.4 1.8-1.2 1.9c-0.9 0.1-1.7-0.6-1.8-1.5c-0.1-1 0.4-1.8 1.3-1.9c0.8-0.1 1.6 0.6 1.7 1.5z" />
					</g>
					<path id="&lt;Path&gt;" class="s25" d="m821.4 1664c0.6 1.4-0.2 3.7-1 4.2c-0.8 0.5-3.7 0.9-5-0.2c-1.2-1.2-1.4-2.5-1.1-3.4q0.3-0.9 3.1-1.5q3.3-0.5 4 0.9z" />
				</g>
				<path id="&lt;Path&gt;" class="s21" d="m818.3 1664.3q0.7-0.1 1.8 0.3q-0.1 0.9-0.5 1.3q0 0.1-0.1 0.2c-0.4 0.4-1 0.7-1.7 0.5c-0.4 0-0.8-0.2-1.2-0.4q-0.3-0.2-0.3-1.2q1.3-0.7 2-0.7z" />
			</g>
			<g id="&lt;Group&gt;">
				<path id="&lt;Compound Path&gt;" fill-rule="evenodd" class="s31" d="m833.9 1660.3c-0.3 0-0.4-0.5-0.4-1.1c0-0.6-0.7-1.9-1.5-3.1c-1.4-2.3-3-4.8-2.4-6.6q0.2-0.9 1.3-1.4q1-0.4 1.7 0.1c2.5 1.6 2.3 10.4 2.2 10.7v0.3c-0.4 1-0.6 1.1-0.8 1.1q0 0-0.1 0zm0.4-1.4c0.1-2.5-0.1-9.1-1.9-10.3q-0.6-0.3-1.3 0q-0.8 0.4-1 1.1c-0.5 1.5 1 4 2.3 6.1c0.9 1.5 1.6 2.6 1.6 3.4q0 0.3 0.1 0.4q0.1-0.2 0.2-0.5z" />
			</g>
			<g id="&lt;Group&gt;">
				<path id="&lt;Path&gt;" class="s31" d="m833.5 1772.5l-0.2-112.1c0-0.8 0.5-1.4 1-1.4c0.5 0 1 0.6 1 1.4l0.1 112.1c0 0.8-0.4 1.4-1 1.4c-0.5 0-0.9-0.6-0.9-1.4z" />
			</g>
			<path id="&lt;Path&gt;" class="s11" d="m832.8 1777.3l0.2-4.8c0-0.3 0.3-0.6 0.6-0.6h1.6c0.4 0 0.6 0.2 0.7 0.6l0.3 4.7c0 0.4-0.3 0.7-0.6 0.7l-2.2 0.1c-0.4 0-0.7-0.3-0.6-0.7z" />
			<path id="&lt;Path&gt;" class="s11" d="m832.8 1672.1l-0.2-12.4c0-0.7 0.6-1.3 1.3-1.3h0.6c0.7 0 1.3 0.5 1.3 1.3l0.2 12.3c0 0.7-0.6 1.3-1.3 1.3h-0.6c-0.7 0-1.3-0.5-1.3-1.2z" />
			<path id="&lt;Path&gt;" class="s21" d="m807.6 1690q0.2 7.1 0.4 8q14.1 3.1 20.3 3.9q0.2 0 0.3 0c0.1 0 0.3 0.1 0.3-0.1c0.6-0.7 1.3-1.3 2-1.8c1-0.6 1.9-1.1 3.1-0.5c0.3 0.2 0.8 0.2 1.2 0.3c0.5 0.1 1.1 0.3 1.6 0.6c0.5 0.3 0.6 0.8 0.4 1.3c-0.1 0.4-0.4 0.7-0.4 1.1c0 0.6-1.3 5.3-2.3 5.3c-0.5 0.1-3.3-0.5-4.1-0.8c-0.7-0.3-1.3-0.4-1.9-0.4q-0.2 0-0.4-0.1q-4.6-0.2-20-0.7q-7.4-0.7-7.9-1.9q-0.6-1.3-1.1-14.7z" />
			<path id="&lt;Path&gt;" class="s4" d="m798.7 1694.4c-0.5-8.9-0.4-19.8 4.6-21.7c2-0.7 5.4 3.7 4.8 21.9c-2.6 0.2-6.6 0.4-9.4-0.2z" />
			<g id="&lt;Group&gt;">
				<g id="&lt;Group&gt;">
					<path id="&lt;Path&gt;" class="s32" d="m899.8 1657.9q-3.7 49.7-3.9 50.5q-0.2 0.7 1.6 40.1l-6.4-1.4q-1.1-37.9-1.4-40.9q-0.2-3 1.4-18.6l3.1-6.7q-4.8-10.3-2.8-18q1.9-7.6 5.6-12.3z" />
				</g>
				<path id="&lt;Path&gt;" class="s33" d="m889.5 1780.6c0.9-0.7 1.7-1.2 4.7-2.6c0.2-0.1 1-0.6 1.2-0.8c0.7-0.4 1.3-1 1.9-1.6c0.6-0.6 0.8-2.6 0.9-4.2c-0.3-3.4-5.3-59.3-6.4-65.4q-1.1-6.2 0.6-15.7l3.9-1.5l7.4 25.6l-0.6 19.6q1.7 5.6 2 8.9q0.2 3.4-2.5 30.7c0 1 0 1.9 0.1 2.4c0.2 1 1.3 3.1 0.8 4.1q-0.5 0.9-1.1 1.2l-13.3 0.2c-0.7 0-0.2-0.5 0.4-0.9z" />
				<path id="&lt;Path&gt;" class="s33" d="m909.6 1688.3q4.6 6.9 5.7 12.7c1.1 5.8-0.8 23.5 1.3 31c1.2 4.1 5.5 10.4 6.2 15.7q0.6 5.3 2.9 20.5c0.4 1.6 0.9 3.6 1.6 4.5c0.5 0.6 1.3 1.3 1.8 2.3c0.8 1.6 0.3 4-0.3 5.3c-0.3 0.6 0.1 0.6-0.6 0.9c-2.1 0.6-4.3-0.5-5.2-2.5c-0.4-1.1-0.9-2.5-1-4.4c-0.1-2-0.4-3.5-0.7-4.7l-14.7-36.2l-10.7-31.2l-2.8-16.1z" />
				<path id="&lt;Path&gt;" class="s25" d="m922.6 1777.7c3.2 0.6 5.4-1.3 6.5-2.7c0.8 1.6 1.2 4 0.6 5.3c-0.5 1.1-2.1 1.1-3.3 1.1c-1.3 0.1-2.3-0.6-2.9-1.7q-0.5-0.8-0.9-2z" />
				<path id="&lt;Path&gt;" class="s25" d="m895.4 1777.2c3.5 0.9 6.1 0.3 7.6-0.3c0.4 1.1 0.9 2.4 0.6 3.2c-0.3 1-0.8 1.2-1.2 1.2c-3.2 0.1-11.8 0.2-14.2 0.2c-0.3 0-0.5-0.4-0.3-0.6c0.6-0.8 7.3-3.5 7.5-3.7z" />
				<path id="&lt;Path&gt;" class="s11" d="m906.6 1733.5q-0.4 0-0.8 0.1q0 0 0 0q-0.5 0-0.9 0q0 0 0 0q-0.4 0-0.8 0q-0.1 0.1-0.1 0.1q-0.4 0-0.8 0c-3.2 0.1-7.1 0-9.6-0.4c-1.3-12.7-1.7-24.3-2.2-26.9q-1.1-6.3 1-16.1l1-0.2l-0.6-3.6l17.1 2.1q4.8 7 6 12.7c1.1 5.8-0.9 23.5 1.3 31.1q-4.9 0.7-10.6 1.1z" />
				<g id="&lt;Group&gt;">
					<path id="&lt;Path&gt;" class="s32" d="m899.4 1663.6c-0.9 3.3-3 14.1-3.8 14.6c-2.6 1.5-15.9-5.6-18.1-6.8q-0.5-0.2-0.8-0.4l1.4-3.6c0.5 0.1 9.5 2.8 12.6 3.3c0.2-1 2.6-6.8 2.8-7.8c1.8 1.1 4.1-0.2 5.9 0.7z" />
				</g>
				<path id="&lt;Path&gt;" class="s21" d="m876.7 1671c-1.7-0.7-2.8-0.3-4-0.6c-1.5-0.3-3.3 1.2-3.6 0.6c-0.2-0.5 2.4-1.2 2.5-1.8c0.1-0.6-3.5-0.2-3.6-0.7c-0.4-0.9 3.8-0.6 3.7-1c-0.1-0.4-4.4-0.9-4.1-1.7c0.4-0.8 4.4 1 4.5 0.5c0.1-0.5-3.9-1.3-3.9-2.4c0-0.6 6.5 2.2 7.2 1.8c0.7-0.4-1.1-2.9-0.5-3.4c0.5-0.4 2.8 4.9 3.2 5.1q0.1 0 0.4 0.1q-0.3-0.1-0.4-0.1l-1.4 3.6q0 0 0 0z" />
				<path id="&lt;Path&gt;" class="s25" d="m892.9 1639.2c-0.7-3.1-1.3-6.1 0.5-9.5c1.4-2.7 3.9-4.3 6.7-4.6c8.2-1 6.4 6.6 17.8 8.3c3.5 0.5 6.8 1 9.8 2.7c5.3 3.2 7.3 8.3 3.8 16.6c-8.7 20.3-29.4 2.6-32.5-1c-3.2-3.5-5.7-10.5-6.1-12.5z" />
				<path id="&lt;Path&gt;" class="s11" d="m905.7 1648.9q4.1 0.4 6.6 3.1c2.4 2.7-4 24.2-4.4 27.6q-0.5 3.4 4.2 12.8q-16 3.2-20.2 0.4q-0.3-26.3 0.1-28.7c0.5-2.4 4.2-12.3 5.1-13.3q0.9-1 8.6-1.9z" />
				<path id="&lt;Path&gt;" class="s21" d="m903.7 1640.6q0 0.2 0 0.5c0.3 1.5 1.3 6.3 0.7 8.7c-0.4 1.8-1.6 5.9-5.3 5.3c-1.1-0.2 1-4.8 0.9-5.3c-0.2-0.9-0.5-2.2-0.7-3.5q-0.3-1.2-0.5-2.2q-0.4-2-0.7-3.7z" />
				<path id="&lt;Path&gt;" class="s11" d="m903.9 1641.9c-0.4 1.1-1 2.2-2 3c-0.9 0.8-1.8 1.2-2.7 1.4q-0.2-1.2-0.4-2.2q-0.4-2-0.7-3.7l5.6 0.2q0 0.2 0 0.5q0.1 0.3 0.2 0.8z" />
				<path id="&lt;Path&gt;" class="s21" d="m900.3 1627.4q2.3 0.3 3.9 2.4c1.7 2.1 3.4 8.7-0.6 12.2c-4.1 3.6-8.2-0.4-8.8-4.7c-0.5-4.3-0.4-10.1 5.5-9.9z" />
				<path id="&lt;Path&gt;" class="s21" d="m894.2 1634.1c0.6-0.2 1.3 0.5 1.5 1.5c0.3 1 0 2-0.5 2.2c-0.6 0.2-1.3-0.5-1.5-1.6c-0.3-1 0-2 0.5-2.1z" />
				<path id="&lt;Path&gt;" class="s25" d="m905.1 1628.3q2.5 1.5 3.4 9.1q-0.4-3.3-2.9-3.6q-2.5-0.3-7.8-6.4q4.8-0.6 7.3 0.9z" />
				<path id="&lt;Path&gt;" class="s21" d="m906.5 1633.5c0.7 0.2 1.1 1.2 0.9 2.3c-0.2 1.1-1 1.9-1.7 1.7c-0.7-0.1-1.1-1.1-0.9-2.2c0.2-1.1 0.9-1.9 1.7-1.8z" />
				<path id="&lt;Path&gt;" class="s14" d="m897.4 1639.4h3.9q-0.1 1.5-1.8 1.5q-2.1 0.1-2.1-1.5z" />
				<g id="&lt;Group&gt;">
					<path id="&lt;Path&gt;" class="s32" d="m923.4 1747.2c0 0.1-19.9 0.9-23.4 0.8c-1.2-14.3-0.7-75.4 0-84.2c0.5-5.3 3.8-11.8 6-14.9c2.5-0.4 6.3 2.5 8.4 5.1c2.6 3.1-5.3 22.7-5.7 26c0.4 7.7 6.2 13.4 7.8 20.9c1.1 5.7 5.7 36.9 6.9 46.3z" />
				</g>
				<g id="&lt;Group&gt;">
					<path id="&lt;Path&gt;" class="s19" d="m906 1667.1l3.3 22.9c0.1 0.6-0.3 1-0.8 1.1l-17.2 2.5c-0.5 0.1-1-0.2-1.1-0.8l-3.3-22.9c-0.1-0.5 0.3-1 0.8-1.1l17.2-2.5c0.5-0.1 1 0.3 1.1 0.8z" />
					<path id="&lt;Path&gt;" class="s25" d="m892 1667.4c0-0.1 0.1-0.2 0.2-0.2l7.2-1.1c0.1 0 0.2 0.1 0.2 0.2l0.1 0.8l-7.5 1.1z" />
					<path id="&lt;Compound Path&gt;" fill-rule="evenodd" class="s25" d="m895.7 1665.8c0.6-0.1 1.2 0.3 1.3 0.9c0.1 0.7-0.4 1.2-1 1.3c-0.6 0.1-1.2-0.3-1.3-0.9c-0.1-0.7 0.3-1.2 1-1.3zm0.2 1.8c0.4 0 0.7-0.4 0.7-0.8c-0.1-0.4-0.5-0.7-0.9-0.6c-0.4 0-0.7 0.4-0.6 0.8c0.1 0.4 0.4 0.7 0.8 0.6z" />
					<path id="&lt;Path&gt;" class="s11" d="m892.1 1667.2q-0.1 0.1-0.1 0.2l0.2 0.8l7.5-1.1c0.1 0.5-0.3 0.9-0.8 1l-5.7 0.9c-0.5 0-1-0.3-1-0.8l-0.2-0.8q0-0.1 0.1-0.2z" />
				</g>
				<path id="&lt;Path&gt;" class="s21" d="m898.2 1686c-0.9 0-1.5 0.1-1.6 0.1c-0.9 0.1-2.8 0.7-5 0.5c-1.1-0.1-1.9-0.3-2.6-0.5c-0.5-0.2-0.8-0.6-0.8-1.5c-0.1-0.5-0.4-1.8-0.3-2.3c0-0.2 0.1-0.7 0.2-1q0.1-0.3 0.2-0.6c0-0.2 0.1-0.3 0.1-0.3c0.2-0.1 0.3 0.5 0.3 0.7c0 0.2 0.6 0.7 1.1 0.9q0.5 0.2 1.3 0.1c-0.3-0.6-1.4-1.1-1.8-1.3c-0.4-0.2-0.6-0.7-0.1-0.7c0.5 0.1 2.7 0.5 3.5 0.8q0.9 0.4 2.9 1.6q0.6-0.2 1.4-0.3z" />
				<g id="&lt;Group&gt;">
					<path id="&lt;Path&gt;" class="s32" d="m916.9 1678.6c-0.1 2.1-0.1 4-0.3 4.4q-0.3 0.9-5.7 1.7q-13.6 1.3-14.5 1.4q-0.2 0.1-0.6 0.1c-0.2-1.4-0.2-2.7-0.2-3.8q4.5-0.8 13.5-4.6l-1.8-8.7c-1.6-7.7-1.8-11.5 1.7-16.2c0.9-1.3 1.4-2.5 2-2.2q3 1.2 4.7 5.3q1.6 3.8 1.2 22.6z" />
				</g>
			</g>
			<g id="&lt;Group&gt;">
				<g id="&lt;Group&gt;">
					<path id="&lt;Path&gt;" class="s20" d="m1447 1751.3c-1.1 1.2-2.5 4.4-3.3 4.3q-0.3 0-0.4-0.4c0-0.5 1.8-3.4 1.8-3.6q-0.1-0.2-0.3 0q-2.4 3.9-3.1 4.3c-0.6 0.2-0.9-0.2-0.8-0.6c0.1-0.4 2.5-3.7 2.3-3.9q-0.2-0.3-0.5 0.3q-2.7 4.3-3.5 4.5c-0.7 0.2-0.8-0.4-0.5-1c0.3-0.7 3.1-4.6 3-5q-0.1-0.3-0.5 0.2q-3 4.3-3.4 4.5c-0.3 0.3-0.8 0-0.6-0.7c0.2-0.8 2.1-4 2.3-4.4c0.2-0.3 1.9-3.1 1.9-3.3c-0.1-0.2-1.6 1.1-2.8 1.4c-0.4 0.2-1 0.4-1.5 0.2c-0.4-0.2-0.4-0.9 0.1-1c0.3-0.2 0.7-0.3 0.9-0.5c0.2-0.2 0.9-0.7 1.4-1.1c0.5-0.4 1.4-1 1.9-1.3c0.3-0.3 2.1-0.9 3.1-1.1q0 0 0 0c1.4-0.3 2.5-1.2 3-2.5c2.6-6.5 10.1-26.7 10.5-27.6l4.9-16.7l10.6-2.3q-6.9 21.5-7.3 22.6c-0.5 1.3-18.1 33.5-19.2 34.7z" />
					<path id="&lt;Path&gt;" class="s26" d="m1514.9 1824.9q1.7 2.5 3.5 3.7c1.7 1.1 2.9 2.3 3.1 2.8c0.6 1.2-0.8 5-1.4 6.7c-0.4 1.1-1.6 9-2.6 9.1c-3.4 0.1-8.5 0.3-9.2-0.4c-0.8-0.9 1.9-1.5 2.8-2.3c1-0.8 0.8-9.6 0.8-10.4q-0.1-0.8-2.4-3z" />
					<path id="&lt;Path&gt;" class="s21" d="m1485.9 1836.3q2.1 5.7 2.1 5.7c0.1 0.9 0.7 3.2 0.7 4c0 3.1-14-2.6-10.9-4c0.3-0.1 1.2-1.1 1.3-2.2q0.2-1.6-1.2-3.7z" />
					<path id="&lt;Path&gt;" class="s25" d="m1485.9 1734.9l-6.1 37.2l-4.2 18.8l11.6 46.7l-8.9 1.1q-16.5-39-18.1-46.7c-0.6-3.1 2.7-35.7 2.7-52.4q0-0.2 1-10.5z" />
					<path id="&lt;Path&gt;" class="s3" d="m1493.9 1738.2l1.7 9.8l4.6 40.2l17.4 39.4q-2.4 5.7-6.1 6.5l-27.7-40.4l-17.3-51.6l0.6-11.5z" />
					<path id="&lt;Path&gt;" class="s5" d="m1465.8 1681.3c1.6-2.2 4.3-3.3 6.3-3.8c0.7-0.1 1.2 7.4 1.2 13.3q0 4.9-0.6 15l-12.3-1.3q-0.1-15.6 5.4-23.2z" />
					<path id="&lt;Path&gt;" class="s28" d="m1471.9 1677.6c1.9-0.6 12.5-0.5 15.3-0.2c3.2 0.3 6.1 1.1 8.7 1.8c2 0.6 1.2 21.1 0.6 24.2q-0.8 4.6-0.1 38.8q-12.4 8.9-35-1.9q4.8-48.7 5-50.5q1.1-7.5 5.5-12.2z" />
					<path id="&lt;Path&gt;" class="s25" d="m1522.8 1830.4q0.3 0.6-2.6 7.6q-0.6 2.8-1.9 9.4h-11q-0.1-1.2 0-1.6c0.5-1.1 3.1-1.6 3.7-1.8q2-0.7 7.3-15.5q4.1 1.2 4.5 1.9z" />
					<path id="&lt;Path&gt;" class="s25" d="m1466.6 1847.1c-1-1.8 4.5-2.9 11.3-5.1q3.3 0.9 5 1.2q1.6 0.2 5-1.2l1.6 5.1z" />
					<path id="&lt;Path&gt;" class="s21" d="m1484.2 1667.4l1.6 10.1q-6 12.9-9.7 11.9q-3-1-1.1-12q1.6-6 1.1-9q-0.5-2.9 8.1-1z" />
					<path id="&lt;Path&gt;" class="s11" d="m1476.1 1668.4q-0.5-2.9 8.1-1l0.1 0.9q-0.4 0.9-0.9 1.4c-1.9 2-4.9 3.2-7.5 3.3c0.3-1.6 0.4-3.3 0.2-4.6z" />
					<path id="&lt;Path&gt;" class="s21" d="m1485.6 1652.5c0.2-0.1 1.9 12-1.3 15.3c-3.2 3.3-9.5 4.4-11.7 1.8c-2.5-2.9-2.4-15.8 2.6-19.3q5-3.4 10.4 2.2z" />
					<path id="&lt;Path&gt;" class="s19" d="m1484.4 1647.9c1.8 0.2 4.1 1.1 6.6 5c3 4.8 0.8 10.2-2.7 12.8q-3.6 2.6-3.5 5.6l-0.6-1.6c-0.4-1.1-0.5-2.4-0.4-3.6c0.1-0.8 0.2-1.6 0.6-2.2c0.8-1.8-1.9-3-2.6-4.4c-0.6-1.1-0.6-3.7-1.5-5.5l-1.1-1.4q-2.5-1.9-5-1.4c-2.4 0.5 0.6-10.9 10.2-3.3z" />
					<path id="&lt;Path&gt;" class="s21" d="m1483.6 1659c0.9 0 1.6 1.2 1.6 2.7c-0.1 1.5-0.8 2.6-1.7 2.6c-0.9 0-1.6-1.2-1.5-2.7c0-1.4 0.7-2.6 1.6-2.6z" />
					<g id="&lt;Group&gt;">
						<g id="&lt;Group&gt;">
							<path id="&lt;Compound Path&gt;" fill-rule="evenodd" class="s31" d="m1466.7 1692.5c-0.2 0-0.6 0-1.5-1.1l-0.2-0.4c-0.2-0.4-4.3-11.4-1.9-14.6q0.8-1 2.3-0.8q1.5 0.1 2.2 1.2c1.5 2 0.6 5.9-0.2 9.3c-0.4 2-0.9 3.9-0.6 4.7c0.3 0.8 0.3 1.4-0.1 1.6q0 0 0 0.1zm-0.9-1.5c0.1 0.2 0.3 0.4 0.5 0.6q-0.1-0.2-0.2-0.6c-0.3-1 0.1-2.7 0.6-5c0.7-3.2 1.6-7.1 0.4-8.8q-0.6-0.8-1.8-1q-1.1-0.1-1.6 0.6c-1.8 2.4 0.8 10.9 1.9 14z" />
						</g>
						<g id="&lt;Group&gt;">
							<path id="&lt;Path&gt;" class="s31" d="m1510.3 1822.2c-0.6 0.3-1.4-0.3-1.7-1.1l-43.6-128.2c-0.3-0.9 0-1.8 0.7-2c0.7-0.2 1.5 0.3 1.8 1.2l43.5 128.1c0.3 0.9 0 1.8-0.7 2z" />
						</g>
						<path id="&lt;Path&gt;" class="s11" d="m1513.3 1826.4l-2.9 0.9c-0.4 0.2-0.9-0.1-1-0.5l-1.4-5.6c-0.1-0.4 0.1-0.8 0.5-1l2.1-0.7c0.4-0.1 0.9 0.1 1 0.5l2.2 5.3c0.1 0.5-0.1 1-0.5 1.1z" />
						<path id="&lt;Path&gt;" class="s11" d="m1472.6 1708.9l-1.6 0.6c-0.7 0.2-1.4-0.2-1.6-0.8l-5.4-16.8c-0.2-0.6 0.1-1.3 0.8-1.6l1.6-0.5c0.7-0.2 1.4 0.2 1.6 0.8l5.4 16.7c0.2 0.7-0.1 1.4-0.8 1.6z" />
					</g>
					<path id="&lt;Path&gt;" class="s21" d="m1519.2 1717.5c0.6 4.5-11.6 9.9-24.1 15.8q-1.4 0.7-2.6 1.2c-0.6 0.6-1.5 1.3-1.6 1.5c-0.1 0.2-1.3 1.3-1.4 1.3c-0.1 0.1-0.4 0.7-0.5 0.9c-0.2 0.2-2.8 1.9-3.2 2.2q-0.4 0.3-1.5 0.7l-1.7 1q-1.3 0.8-1.7-0.8c-0.6 0.4-1.1 0.4-1.4 0.1c-0.3-0.3-0.4-0.8-0.5-0.8q-0.1-0.1-0.3 0c-0.4 0.2-0.9-0.1-1.1-0.3c-0.2-0.3-0.3-0.9-0.2-1.1q0.1-0.3 0-0.4c-0.4-0.1-1-1.3-0.8-1.7c0.2-0.5 2-1.8 2.2-2c0.1-0.2 0.2-0.6 0.5-0.8c0.2-0.2 1.7-2.1 2.1-2.4c0.4-0.3 2-0.4 2.9-0.7c0.6-0.2 1.7-0.2 2.4-0.2q0.6-0.3 1.1-0.7q1.5-0.8 2.6-1.6q11.9-7.9 16.8-12.8l-6.2-9.8l8.9-6.5c2.9 4.1 8.9 15.4 9.3 17.9z" />
					<path id="&lt;Path&gt;" class="s28" d="m1512 1699.9l-10.8 7.2q-6-9-9.3-12.2c-4-4 1.5-16.3 4.1-15.6q5.9 1.6 16 20.6z" />
					<path id="&lt;Path&gt;" class="s14" d="m1472.5 1664.4l5.3 0.6q-0.3 2-2.7 1.8q-2.8-0.2-2.6-2.4z" />
				</g>
				<g id="&lt;Group&gt;">
					<path id="&lt;Path&gt;" class="s21" d="m1396.8 1828.6q-0.8 7.7-0.3 10.2c0.1 0.4 0.2 0.8 0.4 1.2q0.4 1.5-0.9 5.8h-17.5c-0.9 0-0.3-0.6 0.5-1.1c1.2-0.9 2.3-1.5 6.3-3.4c0.3-0.2 1.2-0.8 1.6-1c0.9-0.5 1.8-1.3 2.5-2.1q1.3-1.4 1.5-8.2z" />
					<path id="&lt;Path&gt;" class="s24" d="m1386.9 1840.3c4.6 1.3 8 0.5 10-0.2c0.5 1.4 1.3 6.1 0.8 6.1c-4.4 0-8.1 0.8-20.7 0.7c-0.4-0.1-0.4-1.6-0.1-1.9c0.8-1 9.6-4.5 10-4.7z" />
					<path id="&lt;Path&gt;" class="s5" d="m1418.7 1737.3q-0.2 11-3.4 18c-3 6.9-17.7 23.8-21.6 33.6c1.2 5.6 4.5 13.4 4.3 19.6q-0.3 6.9 0.1 25.4l-7.9 0.3l-10.3-47.7l15.6-51.5l7-12.5z" />
					<path id="&lt;Path&gt;" class="s21" d="m1452.4 1817.7q4.8 6.6 6.9 8.3c1.2 0.9 4.3 2.1 4.6 3.6q0.3 1.5-14 14.6c-0.8 0.7-0.7-0.2-0.5-1.2c0.4-1.6 0.8-2.8 2.7-7.2c0.1-0.3 0.5-1.4 0.6-1.8c0.4-1.1 0.5-2.4 0.5-3.6q0.1-2-4.5-7.5z" />
					<path id="&lt;Path&gt;" class="s24" d="m1452.7 1834c4.6-2.3 6.8-5.3 7.8-7.3c1.4 0.8 5 2.5 4.7 3c-2.5 3.7-5.2 8.2-15.4 16.9c-0.3 0.3-1.8-1.5-1.8-1.9c0-1.4 4.6-10.3 4.7-10.7z" />
					<path id="&lt;Path&gt;" class="s28" d="m1418.2 1730.3q6.1 9.1 7.5 16.7c1.4 7.3-0.9 29.6 1.5 39.9c4.2 3.9 11.4 8.4 14.7 13.6q3.8 5.9 14.7 20.8l-6.3 4.7l-35.8-33.2l-14.4-44.2l-4-14.9z" />
					<path id="&lt;Path&gt;" class="s20" d="m1386 1754.2c-0.9 1.4-1.8 4.8-2.6 4.8q-0.4 0.1-0.5-0.3c-0.1-0.5 1.3-3.8 1.3-4q-0.1-0.1-0.4 0.1q-1.8 4.4-2.4 4.8c-0.5 0.4-0.9 0-0.9-0.4c0-0.5 1.9-4.2 1.7-4.4q-0.2-0.2-0.5 0.4q-2 4.9-2.8 5.2c-0.7 0.3-0.9-0.3-0.7-1c0.2-0.7 2.5-5.1 2.3-5.5q-0.1-0.3-0.4 0.3q-2.5 4.8-2.8 5.1c-0.3 0.3-0.8 0.1-0.8-0.7c0.1-0.8 1.6-4.4 1.7-4.8c0.2-0.3 1.5-3.4 1.4-3.6c-0.1-0.2-1.4 1.3-2.5 1.9c-0.4 0.2-1.1 0.5-1.6 0.4c-0.5-0.2-0.6-0.9-0.1-1.1c0.3-0.2 0.7-0.4 0.9-0.6c0.2-0.3 0.8-0.8 1.2-1.3c0.5-0.5 1.3-1.3 1.7-1.7c0.4-0.3 2.1-1.2 3-1.6q0 0 0 0c1.3-0.5 2.4-1.6 2.7-3c1.6-7 6-28.7 6.3-29.6l2.3-17.7l10.4-4.1q-3.6 22.9-3.9 24.1c-0.2 1.4-13 36.9-14 38.3z" />
					<path id="&lt;Path&gt;" class="s15" d="m1395.7 1669.4c-0.2-5.1 0.5-10.2 2.8-14.9c1.9-4.1 6.8-6.4 11.2-6.4c13.9 0 15.7 18.5 24.6 25.7c2.7 2.2 5.8 4 8.4 6.3c9.5 8.7 5.2 24.8-3.5 32.5c-6.1 5.3-15.6 8.3-23.1 4.1c-3.9-2.1-6.8-5.7-8.9-9.6c-3-5.6-5-12.1-7.1-18c-2.2-6.4-4.1-13-4.4-19.7z" />
					<path id="&lt;Path&gt;" class="s26" d="m1439.9 1746.2c0-0.1-4.6-19.8-6.5-24.2q-1.9-4.3-9.2-24.6l9.5-2.1q6.1 15.9 8.9 23.1c2.7 7.1 1.5 20.3 1.7 24.1c0 0 0.4 3.1 0.4 3.2c0.1 0.4 0.2 0.7 0.2 0.8c0.1 0.2 0.4 1.4 0.5 1.5c0 0.1 0.2 0.6 0.4 0.8c0.1 0.1 0.3 2.7 0.4 3.1q0 0.4-0.1 1.3l0.1 1.7q0 1.3-1.3 0.9c0.1 0.6-0.1 0.9-0.5 1c-0.3 0.1-0.7 0.1-0.8 0.1q0 0 0 0.2c0 0.4-0.4 0.6-0.7 0.7c-0.3 0.1-0.8-0.1-0.9-0.3q-0.1-0.2-0.2-0.1c-0.3 0.2-1.4 0.2-1.6-0.1c-0.2-0.4-0.5-2.2-0.6-2.3c-0.1-0.2-0.3-0.5-0.4-0.7c0-0.3-0.9-2.1-0.9-2.5c-0.1-0.4 0.5-1.6 0.6-2.3c0.1-0.8 0.8-1.9 1-2.3c0.1-0.1 0.1-0.5 0-1z" />
					<path id="&lt;Path&gt;" class="s25" d="m1393.4 1694q4.4-13.2 9.2-12.7l-3.7 27.9c-2.7-0.8-6.2-2.4-8.9-3.2c0.9-4.1 2.3-8.7 3.4-12z" />
					<path id="&lt;Path&gt;" class="s3" d="m1413.8 1679q8.1-0.6 11.2 2.9c3.2 3.5-7 31-7.6 35.4q-0.6 4.5 3 16.2q-18.9 3.8-24.3 0.2q-0.6-31.8 0-34.9c0.5-3.2 5.4-16.1 6.5-17.3q1.2-1.3 11.2-2.5z" />
					<path id="&lt;Path&gt;" class="s21" d="m1411.1 1668.2q0.1 0.2 0.2 0.6c0.3 2 1.7 8.4 2.6 10.2c1.2 2.1-3.8 8.9-8.6 8.1c-1.5-0.3 1.2-6.3 1.1-6.9c-0.3-1.2-0.6-2.9-1-4.6c-0.1-1-0.3-1.9-0.5-2.9q-0.5-2.6-1-4.7z" />
					<path id="&lt;Path&gt;" class="s11" d="m1411.5 1670c-0.5 1.4-1.4 2.7-2.6 3.8c-1.2 1.1-2.4 1.6-3.5 1.8c-0.1-1-0.3-2-0.5-2.9q-0.5-2.6-1-4.7l7.2 0.2q0.1 0.2 0.2 0.6q0 0.5 0.2 1.2z" />
					<path id="&lt;Path&gt;" class="s21" d="m1406.3 1651.8q3.4-0.4 5.5 2.3c2.1 2.8 4.4 11.3-0.8 16c-5.3 4.6-10.5-0.7-11.3-6.2c-0.8-5.6-1.1-12.3 6.6-12.1z" />
					<path id="&lt;Path&gt;" class="s21" d="m1398.2 1660.9c0.7-0.4 1.7 0.3 2.4 1.5c0.6 1.2 0.6 2.5-0.1 2.9c-0.7 0.4-1.8-0.3-2.4-1.5c-0.6-1.2-0.6-2.5 0.1-2.9z" />
					<path id="&lt;Path&gt;" class="s15" d="m1413 1652.2q3.2 1.9 4.4 11.8q-0.5-4.3-3.7-4.6q-3.2-0.4-7.8-8.5q3.9-0.6 7.1 1.3z" />
					<path id="&lt;Path&gt;" class="s14" d="m1406.1 1668.1q-3 0-3.2-2.5l6.8-0.3q0.1 2.8-3.6 2.8z" />
					<path id="&lt;Path&gt;" class="s3" d="m1427.9 1709.2q-10.4-12.4-12.3-17.1c-1.9-4.6 0.9-11.5 5.3-12q4.4-0.6 15.4 19.9z" />
				</g>
			</g>
			<g id="&lt;Group&gt;">
				<path id="&lt;Path&gt;" class="s21" d="m623 1666.7l6.8 4.1l1.8 6.9q9 4 19.9 7.1q1.3 0.3 2.9 0.6c1.5 0.3 3.5 0.7 4.4 0.8c1.3 0.2 2.5 0.2 3.5 0.1c0.9-0.1 2.6-0.3 3.3 0c0.5 0.2 1.7 0.6 2.4 0.8c0.6 0.2 1.4 0.5 1.7 0.6c0.2 0.1 0.7 0.2 1.1 0.2c0.5 0 0.8 0.7 0.4 1c-0.4 0.3-1.2 0.3-1.6 0.3c-1.3 0-3.2-0.7-3.2-0.5c0 0.2 2.7 2.4 2.9 2.7c0.3 0.3 3.3 2.9 3.7 3.6c0.5 0.7 0.1 1.1-0.4 0.9q-0.3-0.1-4.8-3.4q-0.5-0.4-0.5 0c0 0.4 4 3.4 4.5 3.9c0.6 0.6 0.6 1.2-0.1 1.3q-0.8 0-4.9-3.4q-0.6-0.5-0.7-0.2c0 0.3 3.4 2.8 3.6 3.2c0.2 0.3 0 0.9-0.6 0.8q-0.8-0.1-4.4-3.2q-0.4-0.2-0.4 0c0.1 0.2 2.9 2.6 3 3.1q0 0.4-0.3 0.5c-0.8 0.3-3.2-2.4-4.6-3.2c-1.5-0.9-2.7-2.6-4.6-3.4c-1.1-0.5-3.1-0.9-5-1.1q-1.8-0.2-4-0.4q0 0 0 0c-13.1-1.2-30.4-3.2-29.6-7.5c0.3-2.2 2.6-11.7 3.8-16.2z" />
				<path id="&lt;Path&gt;" class="s21" d="m640.2 1808.9q0.3 3.3 0.5 4.9c0.1 1.1 1.5 2 1.8 2.1c3 1.4-10.5 7.1-10.5 4c0-0.8 0.6-3.1 0.8-4q0 0 0.4-7.1z" />
				<path id="&lt;Path&gt;" class="s9" d="m653.2 1821.7q-4.7 1.5-21.6 0.5q-0.1-5.8 1.2-6.4c1.1-0.5 3.2 1.5 4.9 1.3q1.6-0.3 4.7-1.2c6.5 2.2 12.7 5.2 10.8 5.8z" />
				<path id="&lt;Path&gt;" class="s21" d="m610.6 1809.6q-0.1 2.6 0.1 4.2c0.1 1 1.9 2.7 2.2 2.8c3 1.4-10.4 7-10.4 4c0-0.9 0.5-3.1 0.7-4q0 0 0.4-7.1z" />
				<path id="&lt;Path&gt;" class="s9" d="m624.1 1822.5q-4.2 1.2-22.2-0.1q0-5.3 1.3-5.9c1.1-0.5 3.3 1.5 4.9 1.2q1.6-0.2 4.7-1.1c6.5 2.1 13.2 5.3 11.3 5.9z" />
				<path id="&lt;Path&gt;" class="s34" d="m624.8 1707.2l5.7 2.5l12 58.1l-0.5 43.5l-9.6 0.2q-4.4-38.1-4.4-41q0-3-20.7-51.7z" />
				<path id="&lt;Path&gt;" class="s3" d="m620.5 1710.4q-4.2 44.7-4.2 52.3q0 7.5-3.4 49.7h-9.6q-0.7-12.9-1.7-31.8c-0.2-3 0.2-9 0-12c-1.5-22.1-4.5-42.9-3.1-51.1c0.3-1.4 0.7-4.8 1.5-5.7q6.3-6.6 20.5-1.4z" />
				<path id="&lt;Path&gt;" class="s5" d="m632.2 1675.1l-11.6-0.8q-0.6-10.6-0.6-15.6c0-6.1-1.8-15.2-1.1-15c2 0.5 5.4 2.4 7.1 4.6q5.5 8 6.2 26.8z" />
				<path id="&lt;Path&gt;" class="s28" d="m618.6 1643.6c4.5 1 5.8 5.1 6.6 7.3c0.8 2.5 4.3 38 4.3 41.9q0 3.9 2.9 18.8q-9.3 3.8-33.9 2.2q1.8-12.5 1.8-17.6q0-6.6-8.1-45.7q2.1-3.3 4.1-4.8q1.7-1.3 8.4-2.2q9.4-0.9 13.9 0.1z" />
				<path id="&lt;Path&gt;" class="s21" d="m614.4 1634q-0.5 3.1 1.1 9.3q1.9 11.5-1.1 12.4q-3.6 1.2-9.6-11.8l1.7-11q8.4-2 7.9 1.1z" />
				<path id="&lt;Path&gt;" class="s11" d="m614.6 1638.7c-2.5-0.1-5.5-1.3-7.4-3.3q-0.5-0.6-0.9-1.6l0.2-0.9q8.4-2 7.9 1.1c-0.2 1.3 0 3.1 0.2 4.7z" />
				<g id="&lt;Group&gt;">
					<path id="&lt;Path&gt;" class="s21" d="m615.3 1615.2c4.9 3.6 5.1 17 2.6 20c-2.2 2.7-8.4 1.6-11.5-1.8c-3.2-3.5-1.5-16-1.3-15.9q5.3-5.8 10.2-2.3z" />
					<path id="&lt;Path&gt;" class="s25" d="m616.3 1616.1q-2.5-0.5-4.9 1.4l-1.1 1.5c-0.9 1.9-0.9 4.5-1.5 5.7c-0.7 1.5-3.3 2.7-2.5 4.5c0.3 0.7 0.5 1.6 0.5 2.3c0.2 1.3 0 2.6-0.4 3.9l-0.5 1.6q0-3.2-3.5-5.9c-3.4-2.7-5.6-8.2-2.6-13.2c2.4-4.1 4.7-5.1 6.5-5.3c0.9-1 3.3-3.3 7.1-4.1c4.9-1 5.3 8.2 2.9 7.6z" />
					<path id="&lt;Path&gt;" class="s21" d="m608.7 1626.9c0 1.6-0.7 2.8-1.6 2.8c-0.9 0.1-1.6-1.2-1.6-2.7c0-1.5 0.7-2.8 1.5-2.8c0.9 0 1.6 1.2 1.7 2.7z" />
				</g>
				<path id="&lt;Path&gt;" class="s21" d="m684.8 1675.7v8.5h-8.5l1-8.5z" />
				<path id="&lt;Path&gt;" class="s9" d="m678.6 1715.9h2.7v54.2h-2.7z" />
				<g id="&lt;Group&gt;">
					<path id="&lt;Path&gt;" class="s14" d="m642.7 1760.6h-2.7v-51.4c0-2.9-2.4-5.4-5.4-5.4h-3.2v-2.7h3.2c4.5 0 8.1 3.6 8.1 8.1z" />
				</g>
				<g id="&lt;Group&gt;" style="opacity: .6">
					<g id="&lt;Group&gt;">
						<path id="&lt;Compound Path&gt;" class="s35" d="m692.5 1754.7c14.8 0 26.8 14.5 26.8 32.5c0 17.9-12 32.5-26.8 32.5c-14.7 0-26.7-14.6-26.7-32.5c0-18 12-32.5 26.7-32.5z" />
					</g>
				</g>
				<path id="&lt;Path&gt;" class="s15" d="m622.6 1700.3h9.9c1.1 0 2 0.9 2 2c0 1.1-0.9 2-2 2h-9.9c-1.2 0-2.1-0.9-2.1-2c0-1.1 0.9-2 2.1-2z" />
				<g id="&lt;Group&gt;">
					<path id="&lt;Path&gt;" class="s36" d="m666.4 1761.7h-2.7v-65.9c0-3-2.5-5.4-5.4-5.4h-3.2v-2.8h3.2c4.5 0 8.1 3.7 8.1 8.2z" />
				</g>
				<g id="&lt;Group&gt;">
					<path id="&lt;Compound Path&gt;" fill-rule="evenodd" class="s31" d="m670.1 1809.2c-4.8-6.5-7.5-15.2-7.5-24.5c0-9.2 2.7-17.9 7.5-24.5c4.9-6.6 11.5-10.3 18.5-10.3c7 0 13.5 3.7 18.4 10.3c4.9 6.6 7.5 15.3 7.5 24.5c0 9.3-2.6 18-7.5 24.5c-4.9 6.7-11.4 10.4-18.4 10.4c-7 0-13.6-3.7-18.5-10.4zm-5.2-24.5c0 18 10.6 32.5 23.7 32.5c13 0 23.6-14.5 23.6-32.5c0-17.9-10.6-32.5-23.6-32.5c-13.1 0-23.7 14.6-23.7 32.5z" />
				</g>
				<g id="&lt;Group&gt;">
					<path id="&lt;Compound Path&gt;" fill-rule="evenodd" class="s37" d="m672 1811.7c-5.3-7.3-8.2-16.8-8.2-27c0-10.1 2.9-19.7 8.2-26.9c5.5-7.4 12.8-11.5 20.6-11.5c7.8 0 15.1 4.1 20.6 11.5c5.3 7.2 8.2 16.8 8.2 26.9c0 10.2-2.9 19.7-8.2 27c-5.5 7.4-12.8 11.5-20.6 11.5c-7.8 0-15.1-4.1-20.6-11.5zm-4-27c0 18.9 11 34.2 24.6 34.2c13.6 0 24.6-15.3 24.6-34.2c0-18.8-11-34.2-24.6-34.2c-13.6 0-24.6 15.4-24.6 34.2z" />
				</g>
				<g id="&lt;Group&gt;">
					<path id="&lt;Path&gt;" class="s38" d="m699.8 1783.2l1.5-1.6l35.5 34.1l-1.5 1.6z" />
				</g>
				<path id="&lt;Path&gt;" class="s38" d="m659.8 1774.1h31.7v1.2h-31.7z" />
				<path id="&lt;Path&gt;" class="s38" d="m693.6 1814.7h-2.6v-56.8h2.6z" />
				<path id="&lt;Path&gt;" class="s14" d="m672.9 1741.2v-1.5c0-0.6 0.5-1 1.1-1h38.4c0.6 0 1.1 0.4 1.1 1v1.5c0 0.5-0.5 1-1.1 1h-38.4c-0.6 0-1.1-0.5-1.1-1z" />
				<path id="&lt;Path&gt;" class="s39" d="m671.5 1738.9v-1.4c0-0.6 0.5-1.1 1.1-1.1h42.1c0.6 0 1.1 0.5 1.1 1.1v1.4c0 0.6-0.5 1.1-1.1 1.1h-42.1c-0.6 0-1.1-0.5-1.1-1.1z" />
				<path id="&lt;Path&gt;" class="s38" d="m657.6 1784.7v-31.6h2.9v31.6h32.5v-31.6h2.9v34.2h-0.1h-2.8h-32.5h-2.9h-0.4v-2.6z" />
				<path id="&lt;Path&gt;" class="s40" d="m652.7 1717.7v-24.8h2v24.8h22.6v-24.8h2.1v26.8h-0.1h-2h-22.6h-2h-0.2v-2z" />
				<path id="&lt;Path&gt;" class="s41" d="m641.7 1742.5v-25.1c0-7.5 6.1-13.6 13.6-13.6h18.1c7.5 0 13.6 6.1 13.6 13.6v25.1c0 7.5-6.1 13.6-13.6 13.6h-18.1c-7.5 0-13.6-6.1-13.6-13.6z" />
				<path id="&lt;Path&gt;" class="s4" d="m645.5 1742.5v-25.1c0-7.5 6.1-13.6 13.5-13.6h18.2c7.5 0 13.6 6.1 13.6 13.6v25.1c0 7.5-6.1 13.6-13.6 13.6h-18.2c-7.4 0-13.5-6.1-13.5-13.6z" />
				<path id="&lt;Path&gt;" class="s41" d="m646.4 1695v-7.1c0-3 2.4-5.4 5.4-5.4h25.9c2.9 0 5.3 2.4 5.3 5.4v7.1c0 3-2.4 5.4-5.3 5.4h-25.9c-3 0-5.4-2.4-5.4-5.4z" />
				<path id="&lt;Path&gt;" class="s4" d="m649.5 1695v-7.1c0-3 2.4-5.4 5.3-5.4h25.9c3 0 5.4 2.4 5.4 5.4v7.1c0 3-2.4 5.4-5.4 5.4h-25.9c-2.9 0-5.3-2.4-5.3-5.4z" />
				<path id="&lt;Path&gt;" class="s41" d="m710.3 1758.8v4.2c0 0.8-0.7 1.5-1.5 1.5h-65.6c-0.8 0-1.5-0.7-1.5-1.5v-1.3c0-2.4 2-4.3 4.4-4.3h62.7c0.8 0 1.5 0.6 1.5 1.4z" />
				<path id="&lt;Path&gt;" class="s26" d="m682.3 1697.1q3.3-1.3 4.2 35.4c3.1 2.2 12.9 8.8 15 9.9c0.9 0.4 3.2 0.9 4 1.2c0.9 0.4 1.7 0.8 2.1 1.1c0.1 0.2 3.3 4.4 3.4 4.9c0.2 0.8 0.7 2.7 0.2 3q-0.5 0.4-1.5-2.7l-0.6-1.2c0.5 2 2 5.1 1.3 5.5c-0.7 0.3-2-2.6-2.8-4.7c0.6 2 1 5.2 0.4 5.3c-0.6 0.1-1-3.6-2.6-5.5c-0.6-0.7-1.8-0.4-2.4-0.7c-0.5-0.2-1.2-0.4-1.6-0.8l-1.8-2c-0.8-0.3-1.7-0.7-2.6-1c-1-0.4-2.4-1-3.7-1.4c-7.4-2.3-9.2-2.8-11.5-3.2c-2.2-0.4-3.3-6.4-3.6-15.8c-0.4-10.4-2.2-25 4.1-27.3z" />
				<path id="&lt;Path&gt;" class="s21" d="m724.3 1798.1q0.8 3 3.2 3.8c2.5 0.7 9.3-1.3 10.6-0.9q1.3 0.5 1.7 1.2l-16.5 9.8l-2.9-5l-1.5-4z" />
				<path id="&lt;Path&gt;" class="s24" d="m738.2 1799.6c0.6 0 1.7-0.2 2.7-0.1c1.5 0.2 1.5 1.5 0.2 2.4l-18.6 10.8q-2.7-4.7-2.3-5.4c0.3-0.7 0.4-0.4 3.1-0.7q2.6-0.3 5.8-4.6q7.1-2.3 9.1-2.4z" />
				<path id="&lt;Path&gt;" class="s11" d="m662.6 1736.1q1.7-1.3 20.5 4.1q23.7 3.5 28.3 7.7c1.3 1.1 13.3 47.2 15.5 51.4l-8 5q-13-24-16.1-29.8c-2.1-4-4.2-9.4-5.5-14.4c-9.4 1.5-13.4-2.3-30.8-9c-7.8-2.9-5.7-13.6-3.9-15z" />
				<path id="&lt;Path&gt;" class="s21" d="m704.3 1800.6q-0.1 3.1 2 4.5c2 1.5 9.1 1.6 10.3 2.4q1.1 0.8 1.3 1.7l-18.7 4.3l-1.3-5.6l-0.2-4.3z" />
				<path id="&lt;Path&gt;" class="s24" d="m717.1 1806.2c0.6 0.2 1.6 0.3 2.6 0.8c1.4 0.6 1 1.8-0.5 2.2l-21 4.8q-1.1-5.3-0.6-5.9c0.6-0.6 0.6-0.3 3.2 0.3q2.6 0.5 6.9-2.6q7.5-0.1 9.4 0.4z" />
				<path id="&lt;Path&gt;" class="s24" d="m652.7 1742.3q2.1-0.8 21.3-3.3q26.9 0.2 30 5.6c0.9 1.5 1.6 53.3 2.4 57.9l-9.1 2.4q-7.6-30.9-5.7-49.7c-4.8 1.7-28 10.4-37.3 3.1c-6.5-5.2-3.6-15.2-1.6-16z" />
				<path id="&lt;Path&gt;" class="s11" d="m677.2 1719.4c-0.5-10-0.4-22.4 5.2-24.5c2.3-0.8 6.2 4.2 5.5 24.7c-3 0.2-7.4 0.4-10.7-0.2z" />
				<path id="&lt;Path&gt;" class="s3" d="m670.4 1693c2.7 0 9.5 0.8 12.6 1.8q2.3 19.7-2 34.7q-1 3.3 0.5 11.4l-29.3 1.7q4.7-25.1 3.4-29.2q-1.3-4.1-1.3-18.5q0.2 0 6.4-1c2.8-0.5 6.8-0.9 9.7-0.9z" />
				<path id="&lt;Path&gt;" class="s25" d="m677 1671.3c0.7 3.4 3.4 13.2-2.1 14.7c0 0-4.3 1.2-6 0.8c-1.8-0.4-3.5 1.1-5 1.4c-1.1 0.3-1.3-0.6-2.1-0.9c-1.1-0.3-2 0.1-3-0.6c-0.9-0.5-1.6-1.2-2.2-2c-2.2-2.6-3.5-5.1-3-8.5c0.4-2.7 1.9-5.6 4.7-6.9c0.7-0.4 1.6-1.1 2.4-1.3c0.2-0.1 1.7 0 1.7 0.1q2-4.3 5.8-1.5c3.4-0.8 8.1 1.4 8.8 4.7z" />
				<path id="&lt;Path&gt;" class="s21" d="m671 1688.6l1.1 3.6l0.6 2q0.9 2.3-1.7 2.7q-5.1 0.8-6.9-3.2l-1-11.1z" />
				<path id="&lt;Path&gt;" class="s11" d="m663.1 1682.6l7.9 6l1.1 3.6c-2.7-0.6-6.6-2.4-8.7-6z" />
				<path id="&lt;Path&gt;" class="s21" d="m665.8 1671.5c3.3-1.6 7.3 0.1 8.4 3.4c0.4 1.4 0.9 3.2 1.2 5.2c0.8 4.7-1.2 9.7-3.6 10c-2.3 0.3-9.3-2-10.5-8.8c-0.8-4.1 1-8.2 4.5-9.8z" />
				<path id="&lt;Path&gt;" class="s21" d="m663.1 1681.7c0.1 1-0.5 2-1.4 2.1c-1 0.1-1.8-0.7-2-1.7c-0.1-1.1 0.5-2 1.4-2.1c1-0.1 1.8 0.6 2 1.7z" />
				<path id="&lt;Path&gt;" class="s14" d="m639 1741.2v-1.5c0-0.6 0.5-1 1.1-1h46.6c0.6 0 1.1 0.4 1.1 1v1.5c0 0.5-0.5 1-1.1 1h-46.6c-0.6 0-1.1-0.5-1.1-1z" />
				<path id="&lt;Path&gt;" class="s39" d="m637.4 1738.9v-1.4c0-0.6 0.5-1.1 1.1-1.1h51c0.6 0 1.1 0.5 1.1 1.1v1.4c0 0.6-0.5 1.1-1.1 1.1h-51c-0.6 0-1.1-0.5-1.1-1.1z" />
				<g id="&lt;Group&gt;">
					<path id="&lt;Path&gt;" class="s38" d="m657.2 1783.2l1.5-1.6l35.5 34.1l-1.5 1.6z" />
				</g>
				<path id="&lt;Path&gt;" class="s42" d="m658.7 1780.5c1.9 0 3.5 2.1 3.5 4.7c0 2.6-1.6 4.6-3.5 4.6c-2 0-3.5-2-3.5-4.6c0-2.6 1.5-4.7 3.5-4.7z" />
				<g id="&lt;Group&gt;">
					<g id="&lt;Group&gt;">
						<path id="&lt;Compound Path&gt;" fill-rule="evenodd" class="s42" d="m642.4 1811.7c-5.3-7.3-8.2-16.8-8.2-27c0-10.1 2.9-19.7 8.2-26.9c5.5-7.4 12.8-11.5 20.6-11.5c7.8 0 15.1 4.1 20.6 11.5c5.3 7.2 8.2 16.8 8.2 26.9c0 10.2-2.9 19.7-8.2 27c-5.5 7.4-12.8 11.5-20.6 11.5c-7.8 0-15.1-4.1-20.6-11.5zm-4-27c0 18.9 11 34.2 24.6 34.2c13.6 0 24.6-15.3 24.6-34.2c0-18.8-11-34.2-24.6-34.2c-13.6 0-24.6 15.4-24.6 34.2z" />
					</g>
				</g>
				<path id="&lt;Path&gt;" class="s31" d="m690.8 1816.5v-1c0-0.4 0.3-0.7 0.7-0.7h49.5c0.3 0 0.7 0.3 0.7 0.7v1c0 0.4-0.4 0.7-0.7 0.7h-49.5c-0.4 0-0.7-0.3-0.7-0.7z" />
				<path id="&lt;Path&gt;" class="s4" d="m689.4 1814.3c0-1.1 0.8-1.9 1.8-1.9h49.2c1 0 1.8 0.8 1.8 1.9c0 1-0.8 1.8-1.8 1.8h-49.2c-1 0-1.8-0.8-1.8-1.8z" />
				<path id="&lt;Path&gt;" class="s14" d="m670.8 1687.1q-1.9 0.2-2.3-1.4l4.3-0.7q0.3 1.8-2 2.1z" />
				<g id="&lt;Group&gt;" style="opacity: .6">
					<g id="&lt;Group&gt;">
						<path id="&lt;Compound Path&gt;" class="s35" d="m658.3 1752.2c13 0 23.6 14.6 23.6 32.5c0 18-10.6 32.5-23.6 32.5c-13 0-23.6-14.5-23.6-32.5c0-17.9 10.6-32.5 23.6-32.5z" />
					</g>
				</g>
				<path id="&lt;Path&gt;" class="s14" d="m613.1 1631.8l4.6-0.5q0.1 1.8-1.9 2.1q-2.5 0.3-2.7-1.6z" />
				<g id="&lt;Group&gt;">
					<path id="&lt;Path&gt;" class="s20" d="m682.1 1730c0.3-0.3 0.5-1.1 2.5-3.4q0.6-0.7 1.8-1.1q1.5-0.5 1.7-0.1c0.3 0.3 0.1 0.7-0.1 0.9c-0.3 0.2-0.9 0.3-1.1 0.5c-0.3 0.2-0.4 1.2-0.3 1.5q0.1 0.4 4.4-1.1q1.3-0.5 1.7-0.7q0.3-0.2 1.3-0.8q1.4-0.7 1.6-0.3c0.1 0.3-0.9 1.3-2.1 2.1c-1.3 0.9-2.8 1.6-2.7 1.7q0.1 0.4 2.5-0.4q1.1-0.6 1.6-0.7c0.6-0.5 1.7-1.1 2-0.5q0 0.1-1.4 1.3q-1 0.6-1.5 0.9c-0.8 0.5-2.2 0.9-2.8 1.2c-0.5 0.3-0.2 0.4-0.2 0.4c0 0.1 0.7-0.2 1.6-0.5c0.5-0.2 1.1-0.2 1.6-0.5c0.5-0.3 1.2-0.5 1.7-0.7c1.2-0.4 1.2 0.5 0.1 1.1q-0.6 0.3-1.3 0.6c-1.8 0.9-3.7 1.4-3.6 1.6q0 0.3 3.3-0.7q1.9 0 0.3 0.8c-1.9 1-3.5 1.3-3.6 1.3c-0.5 0.1-2.2 0.9-3.9 0.9c-1.3-0.1-3.2-0.1-4-0.2z" />
					<path id="&lt;Path&gt;" class="s21" d="m650.3 1716.6l8.9 0.4q0.3 7.5 0.5 8.4q15.9 3.8 22.4 4.6l1.2 5.1c-1.3-0.1-2.3-0.3-3-0.3q-1.2-0.1-20.5-0.9q-7.8-0.7-8.4-2q-0.5-1.3-1.1-15.3z" />
				</g>
				<path id="&lt;Path&gt;" class="s11" d="m649 1719.4c-0.5-10-0.4-22.3 5.2-24.4c2.2-0.9 6.1 4.1 5.4 24.6c-3 0.3-7.4 0.5-10.6-0.2z" />
				<path id="&lt;Path&gt;" class="s21" d="m586.2 1671.7l10 5.3l-1.5 5.8q9 3.9 20 7q1.2 0.4 2.8 0.7c1.5 0.2 3.6 0.6 4.4 0.7c1.3 0.3 2.5 0.2 3.5 0.1c1-0.1 2.7-0.3 3.4 0c0.4 0.2 1.7 0.6 2.3 0.8c0.7 0.3 1.4 0.5 1.8 0.7c0.2 0.1 0.7 0.1 1 0.1c0.6 0 0.8 0.7 0.4 1c-0.4 0.4-1.1 0.4-1.6 0.4c-1.2 0-3.1-0.8-3.1-0.6c0 0.2 2.6 2.5 2.9 2.7c0.3 0.3 3.3 2.9 3.7 3.6c0.4 0.7 0 1.1-0.4 1q-0.4-0.1-4.8-3.4q-0.6-0.4-0.6-0.1c0.1 0.4 4.1 3.4 4.6 4c0.5 0.5 0.6 1.2-0.1 1.2q-0.9 0.1-5-3.4q-0.5-0.4-0.6-0.2c-0.1 0.3 3.4 2.8 3.6 3.2c0.2 0.4 0 0.9-0.7 0.8q-0.8-0.1-4.4-3.2q-0.3-0.2-0.3 0.1c0 0.2 2.8 2.5 2.9 3q0.1 0.4-0.3 0.5c-0.7 0.3-3.1-2.3-4.6-3.2c-1.5-0.9-2.7-2.5-4.6-3.4c-1.1-0.5-3.1-0.8-4.9-1.1q-1.9-0.1-4.1-0.3c-13-1.2-30.4-3.3-29.6-7.6c0.4-2.1 2.6-11.6 3.9-16.2z" />
				<path id="&lt;Path&gt;" class="s28" d="m600.6 1663.7l-3.3 5.2l-1 11.3l-12.6-2.1q2.3-23.3 5.9-27.5q4-4.6 7.9-5.5z" />
			</g>
			<g id="&lt;Group&gt;">
				<path id="&lt;Path&gt;" class="s21" d="m2319.6 1690.7c-0.1-0.9 4-0.8 4.3-1.6c0.4-0.8-4.9-1.8-4.9-2.6c-0.2-1.4 5.8 0.7 5.8 0.1c0-0.7-6.1-3.2-5.2-4.1c0.9-1 6 3.2 6.3 2.5c0.3-0.7-5.1-3.5-4.8-5.1c0.2-0.8 8.7 5.9 9.9 5.6c1.1-0.2-0.4-4.7 0.5-5.1c1-0.5 2.2 8.2 2.7 8.6c0.6 0.4 12.6 8 16.9 9.9c0.8-1.4 6.5-8.8 7.2-10.1c2.2 2.2 6.1 1.4 8.4 3.4c-2.7 4.4-10.5 17.6-11.9 17.9c-4.3 1.2-20.5-12.8-23.2-15.5c-2.7-2.7-4.6-2.3-6.6-3.4c-1.9-1-5.2 0.4-5.4-0.5z" />
				<path id="&lt;Path&gt;" class="s28" d="m2355.6 1691.3q6.1-16.3 9.9-20.2c3.8-3.8 12-3.8 14.4 0.5q2.5 4.3-13.3 23.9z" />
				<path id="&lt;Path&gt;" class="s21" d="m2377 1680.4q-6.2-0.1-5.5-12.1q-0.8 0.1-1.3 0.2q0.5-0.1 1.3-0.2c2.4-0.2 4.3-2 4.7-4.3c0.2-1.8 0.4-3.6 0.2-4.9q-0.4-3 7.6-1l1.1 6.9c0.3 2.1 1.8 3.7 3.8 4.1q-5.7 11.4-11.9 11.3z" />
				<path id="&lt;Path&gt;" class="s26" d="m2411.9 1813q1.7 2.5 3.4 3.7c1.7 1.1 2.8 2.2 3.1 2.8c0.5 1.1-0.9 4.8-1.4 6.5c-0.4 1.1-1.6 8.8-2.6 8.9c-3.3 0.2-8.3 0.3-8.9-0.4c-0.9-0.9 1.8-1.4 2.7-2.2c0.9-0.8 0.8-9.4 0.7-10.2q0-0.8-2.3-3z" />
				<path id="&lt;Path&gt;" class="s21" d="m2383.6 1824.2q2 5.6 2 5.7c0.1 0.9 0.7 3.1 0.7 3.9c0 3-13.7-2.6-10.6-4c0.2-0.1 1.1-1.1 1.2-2.1q0.1-1.6-1.2-3.6z" />
				<g id="&lt;Group&gt;">
					<path id="&lt;Path&gt;" class="s3" d="m2383.5 1724.8l3.6 31.4l-8.3 28.3l6 41l-8.7 1.1q-16.2-38.3-17.7-45.8c-0.6-3.1 1.2-35.4 1.2-51.7q0-0.2 2.5-10z" />
					<path id="&lt;Path&gt;" class="s25" d="m2404 1726.4l-3.4 37l13.9 52.3q-2.4 5.6-5.9 6.4l-27.2-39.6l-16.8-50.7l0.6-11.3z" />
				</g>
				<path id="&lt;Path&gt;" class="s5" d="m2419.6 1818.4q0.3 0.6-2.5 7.5q-0.6 2.8-1.9 9.2h-10.7q-0.2-1.2 0-1.5c0.5-1.1 3-1.6 3.6-1.8q2-0.7 7.1-15.2q4.1 1.2 4.4 1.8z" />
				<path id="&lt;Path&gt;" class="s5" d="m2364.7 1834.8c-1-1.8 4.4-2.8 11-5q3.2 0.9 4.9 1.2q1.6 0.2 4.9-1.2l1.6 5z" />
				<path id="&lt;Path&gt;" class="s43" d="m2376.4 1659.1q-0.4-3 7.6-1l0.1 0.8q-0.3 0.9-0.8 1.5c-1.8 1.9-4.6 3.1-7.1 3.2c0.3-1.6 0.4-3.3 0.2-4.5z" />
				<g id="&lt;Group&gt;">
					<path id="&lt;Path&gt;" class="s21" d="m2385.3 1643.4c0.3-0.1 2.1 13.1-0.9 16.3c-3 3.3-9.9 3.4-12 0.8c-2.3-2.8-1.6-15.9 3.2-19.3q4.7-3.3 9.7 2.2z" />
					<path id="&lt;Path&gt;" class="s9" d="m2377.4 1634.9c3.6 0.7 6 3 6.8 3.9c1.7 0.2 3.9 1.1 6.2 5c2.9 4.7 0.8 10-2.5 12.6q-3.4 2.5-3.3 5.5l-0.5-1.5c-0.4-1.2-0.6-2.4-0.4-3.7c0-0.7 0.2-1.5 0.5-2.1c0.8-1.8-1.7-2.9-2.4-4.3c-0.6-1.1-0.6-3.7-1.5-5.5l-1-1.4q-2.3-1.8-4.6-1.3c-2.4 0.5-2-8.2 2.7-7.2z" />
					<path id="&lt;Path&gt;" class="s21" d="m2383.5 1649.8c0.8 0 1.5 1.2 1.4 2.6c0 1.5-0.7 2.6-1.5 2.6c-0.8 0-1.5-1.2-1.5-2.6c0-1.5 0.7-2.6 1.6-2.6z" />
				</g>
				<path id="&lt;Path&gt;" class="s14" d="m2374.4 1655.9q1.3 0.3 1.2 1.4l-3-0.4q0.2-1.3 1.8-1z" />
				<path id="&lt;Path&gt;" class="s41" d="m2366.7 1673.6q1.5-3.2 3.2-5c0.3-0.1 0.9-0.2 1.6-0.3q-0.7 12 5.5 12.1q6.2 0.1 11.9-11.3c1.6 0.4 3.3 0.8 4.4 1.1q5.4 1 6.8 9.1c1.5 8.1 4.2 38.5 4.4 44.7c0.2 4.6-6.8 8.6-16.5 10.4c-2.3 0.6-5.3 1-9 0.9q-1.4 0-2.8 0c-10.7-0.1-14.6-3.2-15.9-5q-0.3-0.1-0.7-0.3q0-0.2 0.1-0.7q-0.1-0.2-0.1-0.2q-7.9-29.8 7.1-55.5z" />
				<path id="&lt;Path&gt;" class="s21" d="m2401.3 1682.3q9.8 13.5 14.6 20.7c4.8 7.2 7.6 24.3 8.7 28.4c1.2 4 3.2 4.9 4.6 7c1.3 2.2 5.3 3.1 5 4c-0.3 0.8-4.4-1.9-5.2-1.4c-0.8 0.4 3.9 4.6 3.5 5.3c-0.7 1.3-5.3-4.3-5.7-3.8c-0.3 0.6 4.2 6.6 2.8 6.8c-1.4 0.3-4-6.6-4.7-6.2c-0.7 0.4 3.1 6.3 1.8 7.4c-0.7 0.6-5.2-10.6-6.5-11.1c-1.3-0.5-2.2 4.2-3.4 4c-1.2-0.2 3.4-8.8 3.1-9.5c-0.3-0.7-8.9-18.1-12.1-22.4q-3.1-4.3-16.3-23z" />
				<path id="&lt;Path&gt;" class="s28" d="m2412.9 1695.4l-12.9 8.7q-7.3-10.9-11.2-14.7c-4.9-4.9 1.8-19.7 4.9-18.8q7.1 1.8 19.2 24.8z" />
			</g>
			<g id="&lt;Group&gt;">
				<path id="&lt;Path&gt;" class="s25" d="m1810 1689.9l11-12.2c0.3-0.3 0.7-0.3 1.1 0l0.6 0.5c0.3 0.3 0.3 0.8 0.1 1.1l-11.1 12.2c-0.2 0.3-0.7 0.3-1 0l-0.7-0.5c-0.3-0.3-0.3-0.8 0-1.1z" />
				<path id="&lt;Path&gt;" class="s21" d="m1772.6 1681.1c1.5-1.2 12.9 3.8 12.8 5.5q-0.2 1.8 7.9 18.7l14-11.2c0.2-0.4 1.5-4.7 1.5-5.5c0.1-0.8 2.5-2.3 3.6-2.1c1.1 0.3-1 1.6-1.1 1.9q-0.4 0.7 1 0.9q4.1-2.2 4.2-3.5c0.1-1.3 0.9-4.1 1.8-3.5c0.4 0.3 0.4 2.3 0.3 3.2c0.2-1.1 0.6-2.2 1-2.4c0.6-0.2 0.9 0.7 0.8 1.1c-0.1 0.4-1.1 4.8-1.5 5.3c-0.3 0.5-6.8 5.8-7.8 7q-18.1 20.7-19.4 21.3c-1.1 0.5-5.1-6.7-8.9-11.5c-3.9-4.7-14.8-21.5-10.2-25.2z" />
				<path id="&lt;Path&gt;" class="s26" d="m1736.1 1833.9q-2.5 2.4-2.6 3.3c0 0.9-0.2 10.5 0.8 11.4c1 0.9 4 1.5 3.1 2.5c-0.8 0.8-6.4 0.6-10.1 0.4c-1-0.1-2.4-8.7-2.8-10c-0.6-1.8-2.1-6-1.6-7.3c0.3-0.6 1.6-1.9 3.5-3.1q1.9-1.2 3.8-4.1z" />
				<path id="&lt;Path&gt;" class="s21" d="m1770.6 1839.4q-1.4 2.3-1.3 4c0.1 1.2 1.1 2.3 1.4 2.4c3.5 1.6-11.9 7.9-11.9 4.5c0-1 0.7-3.4 0.8-4.4q0 0 2.2-6.4z" />
				<g id="&lt;Group&gt;">
					<path id="&lt;Path&gt;" class="s3" d="m1785.9 1721.9q1.2 11.4 1.2 11.5c0 18.4 3.6 54.1 2.9 57.6q-1.7 8.4-19.8 51.2l-9.7-1.2l12.7-51.3l-4.7-20.6l-6.6-40.8z" />
					<path id="&lt;Path&gt;" class="s25" d="m1782.5 1723.6l0.6 12.6l-18.9 56.7l-30.3 44.3q-4-0.9-6.7-7.2l19.1-43.1l5-44.2l1.9-10.7z" />
				</g>
				<path id="&lt;Path&gt;" class="s6" d="m1789.8 1695l-13.5 1.4q-0.6-11.2-0.6-16.5c0-6.4 0.5-14.7 1.3-14.5c2.2 0.5 5.1 1.7 6.9 4.1q6 8.3 5.9 25.5z" />
				<path id="&lt;Path&gt;" class="s11" d="m1783.2 1678.8q0.3 2 5.5 55.4q-24.7 11.9-38.3 2.1q0.8-37.5-0.1-42.6c-0.7-3.4-1.5-25.8 0.7-26.5c2.8-0.8 6-1.6 9.5-2c3-0.3 14.6-0.5 16.7 0.2q4.8 5.1 6 13.4z" />
				<path id="&lt;Path&gt;" class="s19" d="m1726.5 1831.1q5.7 16.2 8 17c0.6 0.2 3.4 0.7 4 2q0.1 0.3 0 1.6h-12q-1.5-7.1-2.1-10.3q-3.2-7.6-2.8-8.3q0.3-0.7 4.9-2z" />
				<path id="&lt;Path&gt;" class="s19" d="m1757.9 1851.4l1.8-5.6q3.7 1.6 5.5 1.3q1.9-0.2 5.5-1.3c7.3 2.4 13.4 3.6 12.3 5.6z" />
				<g id="&lt;Group&gt;">
					<path id="&lt;Path&gt;" class="s21" d="m1790.4 1716.9c-0.1-0.5-0.2-0.9-0.2-1.3c-0.4-6.4 0.5-10.3 2.4-11.7c0.4 0.7 0.7 1.5 0.8 1.6c-1.7 1.7-1.7 6.8-1.3 12c-0.1 0.1-0.3 0.3-0.4 0.3c-0.2 0.1-0.7-0.3-1.3-0.9z" />
				</g>
				<path id="&lt;Path&gt;" class="s20" d="m1726 1734.7q0-0.1 0-0.3c0.4-3.7 3.4-34.8 3.9-36.1q0.5-1.2 14.2-20.9l6.8 9.2l-13.2 17.7q-0.3 1.1-5.1 22.1q-1 3.8-1.4 6.1c0.2 0.6 0.4 1.1 0.6 1.5c0.4 0.9 0.9 1.7 1.4 2.3c0.6 0.8 1.6 2.6 1.7 3c0.1 0.6 0.4 1.7 0.5 2.4c0.2 0.6 0.4 1.4 0.4 1.8c0 0.2 0.2 0.7 0.4 1c0.3 0.4-0.2 1-0.7 0.8c-0.5-0.1-0.8-0.8-1.1-1.2c-0.6-1-1-3-1.1-2.9c-0.2 0.1-0.8 3.5-0.8 3.8c-0.1 0.4-0.8 4.4-1.2 5.1c-0.4 0.7-0.9 0.6-1 0.1q-0.2-0.3 0.4-5.9q0.1-0.7-0.2-0.4c-0.4 0.2-0.9 5.2-1.1 5.9c-0.2 0.7-0.7 1.1-1.1 0.5q-0.5-0.7 0.4-6q0.1-0.7-0.2-0.6c-0.3 0.1-0.7 4.3-0.9 4.7c-0.2 0.4-0.8 0.5-1-0.1q-0.3-0.7 0.5-5.5q-0.1-0.3-0.2-0.2c-0.2 0.1-0.8 3.7-1.1 4.1q-0.4 0.2-0.6 0c-0.7-0.5 0.4-3.9 0.3-5.6c0-1.8 0.8-3.7 0.6-5.7c0-0.1-0.1-0.5-0.1-0.7z" />
				<path id="&lt;Path&gt;" class="s11" d="m1750.8 1667.3c2.9-0.8 8.9 12.7 4.5 17.1q-3.6 3.5-10.2 13.4l-11.7-7.9q11-20.9 17.4-22.6z" />
				<path id="&lt;Path&gt;" class="s21" d="m1769.9 1654.8q-0.6 3.3 1.2 9.8q2 12.3-1.2 13.3q-3.9 1.2-10.3-12.6l1.8-11.6q9-2.2 8.5 1.1z" />
				<path id="&lt;Path&gt;" class="s11" d="m1770.1 1659.8c-2.7-0.1-5.9-1.4-7.9-3.6q-0.6-0.6-1-1.6l0.2-0.9q9-2.2 8.5 1.1c-0.3 1.3-0.1 3.2 0.2 5z" />
				<g id="&lt;Group&gt;">
					<path id="&lt;Path&gt;" class="s21" d="m1770.8 1634.8c5.3 3.8 5.4 18.1 2.8 21.3c-2.4 2.9-9 1.7-12.4-2c-3.3-3.6-1.6-17-1.3-16.9q5.7-6.1 10.9-2.4z" />
					<path id="&lt;Path&gt;" class="s9" d="m1771.8 1635.8q-2.5-0.6-5.2 1.5l-1.1 1.5c-1 2.1-1 4.9-1.6 6.1c-0.8 1.6-3.6 2.9-2.7 4.8c0.3 0.8 0.5 1.7 0.6 2.5c0.1 1.3-0.1 2.7-0.5 4l-0.6 1.8q0.1-3.4-3.6-6.3c-3.8-2.8-6.1-8.7-2.9-14c2.6-4.3 5.1-5.4 6.9-5.6c1-1.1 3.6-3.5 7.7-4.4c5.3-1.1 5.6 8.7 3 8.1z" />
					<path id="&lt;Path&gt;" class="s21" d="m1763.7 1647.3c0 1.6-0.7 2.9-1.6 3c-1 0-1.7-1.3-1.8-2.9c0-1.7 0.7-3 1.7-3c0.9 0 1.7 1.3 1.7 2.9z" />
				</g>
				<path id="&lt;Path&gt;" class="s14" d="m1769.2 1651l5.1-0.2q0 1.9-2.2 2.1q-2.8 0.2-2.9-1.9z" />
			</g>
			<g id="&lt;Group&gt;">
				<path id="&lt;Path&gt;" class="s21" d="m1909.7 1679.4q7.5 16 11 23.3c3.4 7.2 3.6 20.9 4.1 24.7c0.5 3.9 2.3 5 3.2 7.1c1 2.2 4.5 3.6 4.1 4.3c-0.4 0.7-3.8-2.3-4.5-2c-0.8 0.3 2.8 4.8 2.4 5.4c-0.8 1-4.3-4.7-4.7-4.3c-0.4 0.5 3 6.6 1.7 6.6c-1.3 0.1-2.9-6.6-3.5-6.3c-0.7 0.3 1.9 6.1 0.7 7c-0.7 0.4-3.4-10.4-4.5-11c-1.1-0.7-2.6 3.5-3.7 3.1c-1-0.4 4.6-7.9 4.4-8.6c-0.2-0.7-4.4-14.2-6.7-18.5q-2.3-4.4-13-28z" />
				<path id="&lt;Path&gt;" class="s25" d="m1899 1678.4c-2.4 6.9-4.6 14.2-8.1 20.6c-2.4 4.5-5.7 8.6-10.2 11.1c-8.5 4.7-19.4 1.3-26.3-4.8c-10-8.7-14.9-27.1-4-37.1c2.9-2.7 6.4-4.7 9.5-7.2c10.2-8.2 12.2-29.4 28.2-29.4c5 0 10.5 2.7 12.8 7.3c2.6 5.5 3.4 11.2 3.2 17c-0.4 7.8-2.5 15.3-5.1 22.5z" />
				<path id="&lt;Path&gt;" class="s21" d="m1847 1633.3c0.7-0.6 2.6 3.2 3.5 3.2c0.9 0-0.7-5.3 0-5.7c1.3-0.8 2 5.7 2.6 5.4c0.6-0.4 0.1-7 1.4-6.7c1.3 0.4-0.2 7 0.6 6.9c0.8 0 0.8-6.3 2.5-6.6c0.9-0.2-1.5 10.6-0.7 11.6c0.8 0.9 4.2-2.5 5-1.9c0.9 0.7-6.6 5.8-6.7 6.5c-0.1 0.6-1.7 15.2-1.5 20.1c1.7 0 11.1 1.9 12.7 2c-1.1 3 1.5 6.2 0.6 9.2c-5.2-0.4-20.9-1.6-21.9-2.7c-3-3.5 2.5-24.8 3.7-28.5c1.3-3.8 0.1-5.3 0.1-7.6c0.1-2.3-2.7-4.7-1.9-5.2z" />
				<g id="&lt;Group&gt;">
					<path id="&lt;Path&gt;" class="s26" d="m1871.4 1851c1.3-0.9 2.4-1.6 6.6-3.6c0.3-0.2 1.3-0.8 1.7-1c0.9-0.6 1.8-1.5 2.6-2.4c0.8-0.8 1.2-3.6 1.3-5.7c-0.4-4.9-7.4-82.6-8.9-91q-1.5-8.7 0.8-21.9l5.4-2l10.3 35.6l-0.8 27.2q2.4 7.8 2.7 12.5q0.3 4.6-3.5 42.6c0 1.3 0.1 2.6 0.2 3.3c0.3 1.4 1.9 4.4 1.1 5.7q-0.7 1.3-1.5 1.7l-18.5 0.3c-1 0-0.3-0.7 0.5-1.3z" />
					<path id="&lt;Path&gt;" class="s33" d="m1899.5 1722.6q6.4 9.7 7.9 17.7c1.5 8-1.1 32.7 1.8 43.2c1.6 5.6 7.6 14.4 8.6 21.8q0.9 7.3 4.1 28.5c0.4 2.2 1.2 5 2.2 6.3c0.6 0.8 1.7 1.8 2.4 3.2c1.1 2.2 0.5 5.5-0.3 7.3c-0.4 0.9 0 0.9-1 1.2c-2.8 0.9-5.9-0.6-7.1-3.4c-0.7-1.5-1.3-3.6-1.4-6.1c-0.1-2.8-0.5-4.9-1-6.5l-20.5-50.4l-14.9-43.4l-3.8-22.4z" />
					<path id="&lt;Path&gt;" class="s25" d="m1917.6 1847c4.4 0.8 7.4-1.8 8.9-3.8c1.1 2.3 1.7 5.5 0.8 7.4c-0.7 1.6-2.8 1.5-4.5 1.6c-1.8 0-3.2-1-4-2.5c-0.5-0.7-0.9-1.6-1.2-2.7z" />
					<path id="&lt;Path&gt;" class="s25" d="m1879.7 1846.4c4.9 1.2 8.5 0.4 10.5-0.5c0.5 1.5 1.2 3.4 0.9 4.4c-0.5 1.4-1.1 1.7-1.7 1.7c-4.5 0.1-16.3 0.2-19.8 0.3c-0.4 0-0.7-0.6-0.4-0.9c0.9-1 10.1-4.8 10.5-5z" />
					<path id="&lt;Path&gt;" class="s25" d="m1895.3 1784.5q-0.6 0-1.2 0q0 0 0 0q-0.6 0.1-1.2 0.1q0 0 0 0q-0.6 0-1.2 0.1q0 0-0.1 0q-0.6 0-1.1 0c-4.4 0.2-9.8 0.1-13.3-0.5c-1.8-17.7-2.4-33.9-3.1-37.5q-1.6-8.6 1.4-22.4l-0.2-3.2l0.7-2.1l23.9 3q6.6 9.7 8.2 17.7c1.6 8-1.1 32.7 1.9 43.2q-6.8 1-14.7 1.6z" />
				</g>
				<path id="&lt;Path&gt;" class="s44" d="m1862.8 1666.7q17.9-1.8 23.1-0.1c5.3 1.8 9 9.3 6.2 13.5q-2.8 4.2-28.1-1.3z" />
				<path id="&lt;Path&gt;" class="s19" d="m1894.3 1665.1q8.8-0.6 12.3 3.1c3.5 3.7-7.7 33-8.4 37.7q-0.6 4.7 3.3 17.2q-20.8 4.1-26.7 0.3q-1.1-34.2-0.4-37.6c0.6-3.3 6.3-16.7 7.6-18q1.3-1.4 12.3-2.7z" />
				<path id="&lt;Path&gt;" class="s21" d="m1891.4 1653.6q0 0.3 0.1 0.7c0.4 2.1 1.9 8.9 2.9 10.8c1.3 2.3-4.2 9.5-9.5 8.6c-1.6-0.2 1.3-6.6 1.2-7.3c-0.3-1.3-0.6-3.1-1-4.9c-0.2-1-0.4-2.1-0.6-3q-0.6-2.8-1-5.1z" />
				<path id="&lt;Path&gt;" class="s45" d="m1891.7 1655.5c-0.5 1.5-1.4 3-2.8 4.1c-1.3 1.1-2.6 1.7-3.8 1.9c-0.2-1-0.4-2.1-0.6-3q-0.6-2.8-1-5.1l7.9 0.2q0 0.3 0.1 0.7q0.1 0.5 0.2 1.2z" />
				<path id="&lt;Path&gt;" class="s21" d="m1886 1636.2q3.8-0.4 6.1 2.5c2.3 2.9 4.9 12-0.9 16.9c-5.8 4.9-11.6-0.6-12.4-6.6c-0.9-5.9-1.2-13 7.2-12.8z" />
				<path id="&lt;Path&gt;" class="s21" d="m1877.2 1645.8c0.7-0.4 1.9 0.4 2.6 1.7c0.6 1.3 0.6 2.7-0.1 3.1c-0.8 0.4-1.9-0.3-2.6-1.6c-0.7-1.3-0.7-2.7 0.1-3.2z" />
				<path id="&lt;Path&gt;" class="s25" d="m1893.4 1636.6q3.5 2 4.8 12.6q-0.5-4.6-4-5q-3.6-0.4-8.6-9q4.3-0.6 7.8 1.4z" />
				<path id="&lt;Path&gt;" class="s21" d="m1895.6 1644c1 0.2 1.6 1.6 1.3 3.1c-0.3 1.5-1.4 2.6-2.4 2.4c-1-0.2-1.6-1.6-1.3-3.1c0.3-1.5 1.4-2.6 2.4-2.4z" />
				<path id="&lt;Path&gt;" class="s14" d="m1885.9 1652.8q-2.2 0.2-2.6-1.7l5-0.7q0.3 2-2.4 2.4z" />
				<path id="&lt;Path&gt;" class="s19" d="m1906.2 1698.9q-9.9-15-10.8-20.4c-0.9-5.5 4-12.3 9-11.8q5.1 0.5 13.7 25.5z" />
			</g>
		</g>
	</g>
</svg>