<svg version="1.2" xmlns="http://www.w3.org/2000/svg" viewBox="0 0 1280 1280" width="512" height="512">
	<title>java-seeklogo</title>
	<style>
		.s0 { fill: #ff3625;stroke: #ff3625;stroke-width: .4 } 
		.s1 { fill: #1977c1;stroke: #1977c1;stroke-width: .4 } 
	</style>
	<g id="Layer 1">
		<path id="&lt;Path&gt;" class="s0" d="m722.9 41.3c18.8 21.4 25 52 19.6 79.6c-5.8 31-23 58.4-43.2 82c-16.2 19-34.8 35.8-54.2 51.4c-22.6 18.2-44.8 37.8-59 63.4c-12 20.8-14.8 46.4-6.6 69c13.4 38.8 44.6 67.6 61.6 104.2c-18.8-16.6-37.2-33.8-54.4-52c-18-19.2-35-39.6-46.2-63.6c-7.6-16.8-11-36.4-5.2-54.2c5.8-18.2 18.8-32.8 31.8-46.4c36.2-36.2 80.8-62.8 116.2-99.6c19.6-20.2 35.8-44.4 41.4-72.2c4.6-20.4 2.4-41.4-1.8-61.6z" />
		<path id="&lt;Path&gt;" class="s0" d="m693.3 269.1c38.8-28.6 84.2-46.8 130.2-60c-36.4 23.2-74.4 44.4-105.8 74.2c-11.4 11-22.2 23.6-27.2 39c-3.8 11.4-2.2 24 2.4 34.8c8.4 19.2 22.6 34.8 33.4 52.4c9.2 15 10.8 34.2 3.8 50.4c-10.6 23.8-31.4 41.2-53 55c-2.8 1.6-5.2 4.6-8.6 5c14.4-13 25.6-31.4 25.2-51.2c-0.4-14.8-8.6-27.8-18.2-38.4c-19.8-23.6-36.4-53.6-33-85.4c3.4-31.8 26.2-57.4 50.8-75.8z" />
		<path id="&lt;Path&gt;" class="s1" d="m830.9 500.3c8.4-10.2 21.8-12.8 34-14.4c21.2-2.8 43.8 2.6 59.8 17.2c13.2 11.8 20.6 30.2 17.8 48c-3 20.6-16.8 37.8-32.4 50.8c-28.2 22.6-63 35.8-97.8 44.6c2-2.2 4.2-4.2 6.8-5.8c26.4-14.2 52.6-30.8 72-54c11.8-14.4 21-33.2 17.2-52.2c-4-22-25.4-38-47.2-39.2c-10.4-1-20.2 3-30.2 5z" />
		<path id="&lt;Path&gt;" class="s1" d="m428.9 518.5c36.8-15.8 76.8-26 117-25.4c-23.4 6.8-47.4 12.6-69.4 23c-5.2 2.8-11.2 5.4-14.2 10.8c-1.6 4.2 2.8 7 6 8.4c13.6 5.6 28.6 6.4 43.2 7.8c51.2 3.4 102.6 1.4 153.6-1.8c50.4-3.2 100.4-10 150.2-18c-11 5.2-22.2 10.4-32.4 17c-5.2 3.6-11.6 4.6-17.4 6c-61.2 13.6-124 17.8-186.4 18.8c-24.2 0.2-48.2-0.2-72.2-1.8c-26.8-1.8-53.8-3.8-80-10.8c-7.6-2.2-15.6-4.6-21.6-10c-3-2.4-3-7.2-0.4-10c6.6-6.8 15.8-10 24-14z" />
		<path id="&lt;Path&gt;" class="s1" d="m476.1 603.9c10.4-8.2 22.8-12.8 35.2-17.2c-4 4.8-9.6 9.4-10 16c-0.2 4.2 3.2 7.4 6.6 9.4c6.6 3.4 14 4.6 21.4 5.6c38.4 4 77.2 6.2 116 3.6c35.4-1.8 70.6-7.6 105.6-13.8c9.6 9 21 15.2 33 20.6c-42.2 12.4-85.6 19.6-129.2 23c-41.2 2.8-83 2.6-124-4c-16.2-3-32.8-6.4-47.6-14c-6-3.2-12.8-7.4-14.6-14.4c-1.2-6 3.2-11.4 7.6-14.8z" />
		<path id="&lt;Path&gt;" class="s1" d="m499.3 691.1c9.2-7.4 20.6-11.2 31.8-14.4c-3.6 3.4-10 7.6-7.2 13.4c5.4 7 15.4 7.8 23.4 9.6c33.8 4.2 68 7 101.8 4.4c25.6-1.6 50.8-6.2 75.8-10.6c14.4 8.4 29.4 15.6 44.8 22c-23.6 10.6-49 17.4-74.4 22.2c-42.8 7.6-87 8.6-130 1.8c-19-3.4-38.4-7.8-55.6-17.2c-6.6-3.8-13.6-8.2-16.4-15.6c-2.2-5.8 1.4-12 6-15.6z" />
		<path id="&lt;Path&gt;" class="s1" d="m388.3 747.7c18.4-6.2 37.4-11.2 56.8-11.8c7.8-0.2 15.8 0.2 22.6 4.2c-23.2 1.4-46.4 7.2-67.2 17.8c-4.6 2.6-9.8 5.6-11.6 11c0 6.2 7 8.2 11.6 10.2c29 10.8 60 14.2 90.4 17.4c90.6 7.6 181.8 5.6 272.4-2.6c34.2-3.8 68.6-7.6 101.8-17c10.6-3.6 22.6-7.2 29.6-16.6c4.2-5.6 1.4-12.6-2.8-17.4c6.8 3.8 16.4 8.6 15 17.8c-2.6 9.6-12.4 14.6-20.4 19.2c-25.6 13-53.8 19.6-81.8 25.4c-81.4 16-164.8 19.6-247.6 17.2c-62.4-2.2-124.8-8.2-186.4-18.8c-11-2.6-23.4-4.8-31.4-13.4c-5.2-6-0.6-14.4 4.4-18.8c12.6-11.6 28.8-18 44.6-23.8z" />
		<path id="&lt;Path&gt;" class="s1" d="m886.7 816.1c20.2-7 41.8-14.4 56.8-30.4c-2.6 17.4-17.6 29.4-32.4 37.2c-28.4 14.8-60.2 21.6-91.8 27.2c-66.8 10.6-134.6 13.2-202.4 12c-46.2-1.4-92.8-3.2-138.2-12.8c-10.8-3-22.4-5-31.8-11.4c40.4 6.8 81.4 9.6 122.4 11.2c67.4 2 135-0.6 202-9c38.8-5.4 77.8-12 115.4-24z" />
		<path id="&lt;Path&gt;" class="s0" d="m359.7 1112.7c0.2-65.6-0.2-131.2 0.2-197c13.6 0.4 27.2 0 40.8 0.4c-0.2 73.4 0 147-0.2 220.6c-0.4 20.6-0.8 42.2-10.8 60.6c-11 19.6-30.6 33.4-51.4 41.4c-6.6-7.2-12.6-14.8-19.2-22c16.8-9.8 33.6-23.8 37.6-44c3.8-19.8 2.6-40 3-60z" />
		<path id="&lt;Compound Path&gt;" fill-rule="evenodd" class="s0" d="m438.5 994.7c27-11.6 57-17.6 86.4-14.4c15.2 1.8 31 7.4 40.8 19.6c8.2 10.4 11.2 23.8 11 36.8c0 44.8 0 89.4 0 134.2c-10 0-20 0-30.2 0c-1-6.6-2-13.4-2.8-20.2c-11.4 9-23.6 17.6-37.8 21.2c-16.2 4.2-34 3.8-49.8-2.4c-12.2-5-21.8-16-25.2-28.8c-5-18.6-2.4-40.4 10.8-55.4c11.8-13.8 29.6-20.6 47.2-23.8c16.2-3.2 32.8-3.2 49.4-3.2c-0.4-12.6 2-26.4-5.2-37.6c-5.8-8.6-16.4-12-26.2-12.6c-21.4-1.8-42.6 3.6-62.8 10.6c-2-8-3.8-16-5.6-24zm49.6 92.8c-8.8 2.8-17 9.2-19.4 18.4c-2.8 10.2-2 22.2 4.6 30.8c6.4 8.4 18 10.4 28 9.2c14-1.6 26.2-9.6 37-18.2c0-15-0.2-29.8 0-44.8c-16.8 0-34-1-50.2 4.6z" />
		<path id="&lt;Compound Path&gt;" fill-rule="evenodd" class="s0" d="m790.1 994.7c27.2-11.6 57.2-17.8 86.8-14.4c14.8 1.8 30 7.2 39.8 18.8c9.2 11 12 25.6 11.8 39.6c-0.2 44.2 0.2 88.2-0.4 132.4c-10-0.4-20 0.2-30-0.4c-1-6.8-1.8-13.4-3-20c-14 12-30.8 21.8-49.8 23.4c-17.4 1.6-37-0.6-50.6-13c-14.2-13.2-16.6-34.6-13-52.8c3.4-16.8 16-30.6 31.2-38c23.8-11.6 51-12.2 77-12c-0.4-12.2 1.8-25.2-4.4-36.2c-4.8-8.8-15-12.8-24.6-13.8c-22.2-2.4-44.4 3.2-65.2 10.4c-1.8-8-3.8-16-5.6-24zm49 93c-8.4 2.8-16.2 9.2-18.8 18c-2.8 10.2-2 22.2 4.4 31c6.6 8.6 18.4 10.4 28.6 9.2c13.8-2 26.4-9.6 36.8-18.8c-0.4-14.6-0.2-29.4-0.2-44.2c-17 0-34.4-1-50.8 4.8z" />
		<path id="&lt;Path&gt;" class="s0" d="m599.5 982.7q21 0 42 0c8.2 26.4 16.2 52.6 24.4 79c4.8 16.2 10.8 32.2 14.2 48.8c1.8 7.4 3.4 15 5.6 22.2c17.2-48.6 30.4-98.8 37.2-150q20.4 0 40.8 0c-11.8 64.8-30.4 128.6-58.4 188.2q-24 0-48 0c-19.2-62.8-38.6-125.4-57.8-188.2z" />
		<g id="&lt;Group&gt;">
			<path id="&lt;Compound Path&gt;" class="s0" d="m936.5 979.1h-4.9v-1.8h12v1.8h-5v14.4h-2.1z" />
			<path id="&lt;Compound Path&gt;" class="s0" d="m959 986.4c-0.1-2.3-0.3-5-0.3-7c-0.6 1.9-1.2 3.9-2 6.1l-2.9 7.9h-1.6l-2.6-7.7c-0.8-2.3-1.4-4.4-1.9-6.3c-0.1 2-0.2 4.7-0.3 7.2l-0.5 6.9h-1.9l1.1-16.2h2.6l2.8 7.8c0.7 2 1.2 3.8 1.6 5.5h0.1c0.4-1.6 1-3.4 1.7-5.5l2.9-7.8h2.6l1.1 16.2h-2.1z" />
		</g>
	</g>
</svg>