<svg version="1.2" xmlns="http://www.w3.org/2000/svg" viewBox="0 0 1128 1128" width="512" height="512">
	<title>javascript-seeklogo</title>
	<style>
		.s0 { fill: #f3a233 } 
		.s1 { fill: #febd38 } 
		.s2 { fill: #ffffff } 
		.s3 { fill: #edf0f0 } 
		.s4 { fill: #2c2e35 } 
	</style>
	<g id="code_html5">
		<g id="code_html5">
		</g>
		<g id="&lt;Group&gt;">
			<path id="&lt;Path&gt;" class="s0" d="m859.2 990.9l-294.4 83.5l-294.6-83.5l-67.9-736.9h362.5h362.5z" />
			<path id="&lt;Path&gt;" class="s1" d="m861.4 314l-58.1 630.4l-238.5 67.6v-698z" />
			<path id="&lt;Path&gt;" class="s2" d="m774.7 548.9h-92.4l-3.4-52.8h-229.5l-4.2 92.3h330.6l-25.5 277.1l-185.5 52.6l-185.5-52.6l-13.1-141.2h91.6l6.1 70.6l100.9 29.1l99.4-28.6l10.2-116.8h-311.7l-0.5 1.8l25.5-276h366.9z" />
			<g id="&lt;Group&gt;">
				<path id="&lt;Compound Path&gt;" class="s3" d="m564.8 496.1h-102.7l-4.2 92.3h106.9v90.2h-202.1l-0.5 1.8l25.5-276h177.1zm-100.9 298.9l100.9 29.1v94l-185.5-52.6l-13.1-141.1h91.6z" />
			</g>
			<g id="&lt;Group&gt;">
				<path id="&lt;Path&gt;" class="s4" d="m494.3 54h46.1v137.6h-11.6h-34.5h-64.5v-46.3h64.5z" />
				<path id="&lt;Path&gt;" class="s4" d="m699.8 102.8h-44.9l44.9 44.1v44h-112.4v-44q31.9 0 44.6 0c-21.7-21.8-29.6-29-44.6-44.1q0-23.9 0-48.1h112.4z" />
			</g>
		</g>
	</g>
	<g id="Layer 2">
	</g>
</svg>