<svg version="1.2" xmlns="http://www.w3.org/2000/svg" viewBox="0 0 2500 2500" width="512" height="512">
	<title>laravel-framework-seeklogo</title>
	<style>
		.s0 { fill: #ff5139 } 
		.s1 { fill: #646e6e } 
	</style>
	<g id="Layer 1">
		<g id="&lt;Group&gt;">
			<path id="&lt;Compound Path&gt;" fill-rule="evenodd" class="s0" d="m1546.4 1850.6c-13 0-25.4-6.7-32.4-18.3l-285.5-476.2l-533.4 145c-17.1 4.7-35-3.1-43.3-18.7l-623.5-1173c-5.8-10.9-5.9-23.9-0.3-34.9c5.7-11 16.3-18.6 28.6-20.2l529.9-71.3c14.9-2 29.6 5 37.4 18l639.9 1067.2l743.3-202.1l-248.2-349.9c-7.3-10.2-9-23.4-4.5-35.2c4.4-11.7 14.4-20.5 26.6-23.4l347.8-82.1c14.2-3.4 29 1.7 38.1 13.1l301 375.8c7.9 9.9 10.3 23.2 6.4 35.3c-4 12-13.7 21.3-26 24.7l-317 86.2l276.4 389.6c6.8 9.7 8.8 22 5.2 33.3c-3.6 11.3-12.3 20.2-23.5 24.2l-830.5 290.8c-4.1 1.4-8.3 2.1-12.5 2.1zm-242.2-515.1l258.8 431.6l754.1-264.1l-263.4-371.3zm-1183.8-1013.6l583.9 1098.5l483.8-131.6l-616.2-1027.7zm1732.5 396.3l231.8 326.8l288.2-78.3l-250-312.2z" />
		</g>
		<g id="&lt;Group&gt;">
			<path id="&lt;Compound Path&gt;" class="s1" d="m564.4 1958.9h31.6v339.9h-31.6z" />
			<path id="&lt;Compound Path&gt;" fill-rule="evenodd" class="s1" d="m905.9 2053.6v245.2h-31.1v-42.1q-19.8 24.1-44.5 36.3q-24.7 12.2-54 12.2q-52.1 0-88.9-37.8q-36.9-37.8-36.9-91.9q0-52.9 37.2-90.6q37.2-37.6 89.5-37.6q30.2 0 54.7 12.8q24.4 12.9 42.9 38.6v-45.1zm-126.1 24.1q-26.3 0-48.6 12.9q-22.3 13-35.5 36.4q-13.2 23.4-13.2 49.5q0 25.9 13.3 49.6q13.3 23.6 35.7 36.8q22.4 13.2 48.1 13.2q25.9 0 49.1-13.1q23.1-13.1 35.6-35.3q12.5-22.3 12.5-50.3q0-42.5-28-71.1q-28-28.6-69-28.6z" />
			<path id="&lt;Compound Path&gt;" class="s1" d="m965 2053.6h32.2v35.8q14.5-21.2 30.5-31.7q16-10.4 33.3-10.4q13.1 0 28 8.3l-16.5 26.6q-9.9-4.3-16.7-4.3q-15.7 0-30.4 13q-14.6 12.9-22.3 40.2q-5.9 21-5.9 84.8v82.9h-32.2z" />
			<path id="&lt;Compound Path&gt;" fill-rule="evenodd" class="s1" d="m1360.2 2053.6v245.2h-31.1v-42.1q-19.9 24.1-44.6 36.3q-24.6 12.2-54 12.2q-52 0-88.9-37.8q-36.8-37.8-36.8-91.9q0-52.9 37.2-90.6q37.2-37.6 89.5-37.6q30.2 0 54.6 12.8q24.5 12.9 43 38.6v-45.1zm-126.2 24.1q-26.3 0-48.6 12.9q-22.3 13-35.5 36.4q-13.1 23.4-13.1 49.5q0 25.9 13.2 49.6q13.3 23.6 35.7 36.8q22.4 13.2 48.1 13.2q25.9 0 49.1-13.1q23.2-13.1 35.7-35.3q12.5-22.3 12.5-50.3q0-42.5-28.1-71.1q-28-28.6-69-28.6z" />
			<path id="&lt;Compound Path&gt;" class="s1" d="m1408 2053.6h33.5l82.4 178.8l81.3-178.8h33.8l-112.2 245.2h-5.9z" />
			<path id="&lt;Compound Path&gt;" fill-rule="evenodd" class="s1" d="m1893.5 2217.5l26.6 13.9q-13.1 25.7-30.2 41.5q-17.2 15.8-38.6 24q-21.4 8.3-48.5 8.3q-60 0-93.9-39.4q-33.8-39.3-33.8-88.9q0-46.7 28.6-83.2q36.4-46.4 97.3-46.4q62.7 0 100.2 47.5q26.6 33.6 27 83.9h-220.6q0.9 42.7 27.3 70q26.4 27.4 65.2 27.4q18.7 0 36.4-6.5q17.8-6.6 30.2-17.3q12.4-10.8 26.8-34.8zm0-66.1q-6.3-25.2-18.4-40.3q-12-15.1-31.9-24.4q-19.9-9.2-41.8-9.2q-36.1 0-62 23.2q-19 16.9-28.7 50.7z" />
			<path id="&lt;Compound Path&gt;" class="s1" d="m1982.3 1958.9h31.6v339.9h-31.6z" />
		</g>
	</g>
</svg>