<svg version="1.2" xmlns="http://www.w3.org/2000/svg" viewBox="0 0 256 256" width="512" height="512">
	<title>linkedin-svg</title>
	<style>
		.s0 { fill: #ffffff } 
		.s1 { fill: #0a66c2 } 
	</style>
	<g id="Layer">
		<path id="Layer 1" class="s0" d="m11 28h240v210h-240z" />
		<path id="Layer" fill-rule="evenodd" class="s1" d="m237 0c10.4-0.1 18.9 8.1 19 18.5v219c-0.1 10.4-8.6 18.6-19 18.5h-218.1c-10.3 0.1-18.8-8.2-18.9-18.5v-219c0.1-10.3 8.6-18.6 18.9-18.5h218.1m-164.5 72.8c4.1-4.1 6.5-9.7 6.5-15.5c0-12.2-9.9-22.1-22.1-22.1c-12.1 0-22 9.9-22 22.1c0 12.1 9.9 22 22.1 22c5.8 0 11.4-2.4 15.5-6.5zm3.4 23.2h-38v122.1h38zm142.2 55.2c0-32.9-7-58.2-45.5-58.2c-14.7-0.6-28.5 7-35.9 19.7h-0.5v-16.7h-36.4v122.2h37.9v-60.4c0-16 3-31.4 22.8-31.4c19.4 0 19.7 18.2 19.7 32.4v59.4h37.9z" />
	</g>
</svg>