<svg version="1.2" xmlns="http://www.w3.org/2000/svg" viewBox="0 0 1386 1386" width="512" height="512">
	<title>mysql-ai</title>
	<style>
		.s0 { fill: #5d87a1 } 
		.s1 { fill: #f8981d } 
	</style>
	<g id="Layer 1">
		<g id="&lt;Group&gt;">
			<path id="&lt;Path&gt;" class="s0" d="m387.6 1021.8h-45.4q-2.4-114.9-13.3-216.1h-0.4l-69.1 216.1h-34.5l-68.7-216.1h-0.4q-7.6 97.2-9.6 216.1h-41.4q4-144.6 20.1-271.1h56.2l65.5 199.2h0.4l65.9-199.2h53.8q17.7 148.2 20.9 271.1z" />
			<path id="&lt;Path&gt;" class="s0" d="m584.4 821.8q-27.7 150.4-73.1 218.6q-35.4 52.5-77.5 52.5q-11.3 0-27.7-6.7v-24.2q8 1.2 18.8 1.2q19.7 0 31.8-10.9q14.4-13.2 14.4-29.7q0-11.2-11.2-46.2l-49.8-154.6h44.6l35.7 115.7q12.1 39.3 10 55q29.4-78.3 41-170.7z" />
			<path id="&lt;Path&gt;" class="s1" d="m1188.5 1021.8h-128.9v-271.1h43.4v237.8h85.5z" />
			<path id="&lt;Compound Path&gt;" fill-rule="evenodd" class="s1" d="m1008.2 1058.8l-64.9-37.7q-16.2 4.7-35.5 4.7q-51.9 0-77.6-30.1q-28.1-33.3-28.1-104.8q0-72.7 31.7-110.1q29-34.2 80.8-34.1q105.6 0 105.6 134.5q0 73.2-31.7 110.5c-3.8 4.5-8 8.5-12.5 12.1l49.9 24.6zm-96-66.8q62.2 0 62.2-103.2q0-57.9-16.4-84.4q-15.3-24.5-47.8-24.5q-62.3 0-62.3 102.5q0 58.6 16.5 85.1q15.2 24.5 47.8 24.5z" />
			<path id="&lt;Path&gt;" class="s1" d="m783.2 946.7q0 34.5-25.3 56.6c-16.8 14.7-39.5 22.1-67.8 22.1c-26.6 0-52.3-8.5-77.2-25.3l11.7-23.3q32.1 16 58.2 16c16.3 0 29.1-3.6 38.4-10.8c9.2-7.2 14.7-17.3 14.7-30.1c0-16.1-11.2-29.8-31.8-41.4q-19-10.4-57-32.2c-20.6-15-31-31.2-31-57.7q0-33 23.1-53.2q23.1-20.3 59.7-20.3q37.7 0 68.7 20.1l-10.5 23.2q-26.5-11.2-52.2-11.2c-13.9 0-24.6 3.3-32.1 10.1c-7.5 6.6-12.2 15.2-12.2 25.6c0 16.1 11.5 30 32.7 41.8q19.2 10.4 58.2 32.7c21.2 15 31.7 30.9 31.7 57.3z" />
			<path id="&lt;Path&gt;" class="s0" d="m1220.4 641.2c-10.5-7.6-21.6-15.4-32.8-22.3c-5.9-3.6-16.1-6.2-22.6-9.2c-8.8-3.6-28.5-7.2-33.4-14.1c-9.8-12.8-16.4-28.5-23.3-43.9c-6.8-15.7-15.4-32.1-22.3-48.1c-3.6-7.9-5.2-14.8-9.1-22.3c-23.9-46.2-59.3-84.9-102.2-112.1c-14.1-8.8-29.9-17-47.2-22.6c-9.8-2.9-21.7-1.3-32.1-3.5h-6.9c-5.9-1.7-10.8-7.9-15.4-11.2c-10.2-6.9-20.3-11.5-32.4-16.4c-4.3-2-16.4-6.5-20.7-2.9c-2.6 0.6-3.9 1.6-4.6 4.2c-2.6 4-0.3 9.9 1.3 13.5c5 10.4 11.8 16.7 18.1 25.5c5.5 7.9 12.4 16.7 16.4 25.2c8.4 18.4 12.4 38.7 20.3 57c2.9 6.9 7.5 14.8 11.7 21c3.6 4.9 10.2 8.5 12.2 14.8c3.9 6.5-5.9 28.1-8.2 35c-8.6 26.9-6.9 64.2 2.9 87.5c4 9.2 7.6 20 18 22.6c0.7-0.7 0-0.3 1.4-0.7c2.3-18 2.9-35.4 9.1-49.5c3.6-8.8 10.8-15 15.8-22.2c3.2 2 3.2 7.9 5.2 11.8c4.3 10.1 8.8 21.3 14.1 31.4c10.8 21 22.9 41.3 36.7 59.7c4.6 6.5 11.1 13.7 17 19.6c2.6 2.3 5.6 3.6 7.6 6.6h0.6v1c-9.8-3.7-16.1-13.8-23.9-19.7c-14.8-11.1-32.4-27.9-42.6-43.9c-4.3-9.2-8.9-18-13.4-27.2v-0.6c-2 2.6-1.3 5.2-2.3 9.1c-4.3 16.4-1 35.1-15.7 41c-16.8 6.9-29.2-11.2-34.5-19.4c-16.7-27.1-21.2-73-9.5-110c2.7-8.2 3-18.1 7.6-24.6c-1-5.9-5.6-7.5-8.2-11.2c-4.6-6.2-8.5-13.4-12.1-20.3c-6.9-13.4-11.8-29.4-17.1-43.9c-2.3-5.9-2.9-11.8-5.2-17.3c-3.9-8.5-11.1-17.1-16.7-24.6c-7.5-10.8-29.5-31.8-20.7-53.1c13.8-33.7 62-8.2 80.6 3.6c4.6 3 9.9 9.2 15.1 11.5c8.2 0.3 16.4 1 24.6 1.3c15.4 3.6 29.8 6.6 41.9 13.4c56.4 33.1 93 66.9 126.8 122.6c7.2 11.8 10.8 24.5 16.7 37.3c8.2 19 17.4 39 26.9 57c4.2 8.6 7.5 18 13.4 25.2c2.3 3.3 8.9 4.3 12.8 6.3c10.8 5.6 23.9 9.8 34.1 16.4c19 11.8 37.3 25.8 54 40.3c6.3 5.5 10.5 13.4 16.4 19.3v2.9c-5.2 1.7-10.5 3.3-15.7 4.6c-11.5 3-21.7 2.3-32.8 5.2c-6.9 2-15.4 4.7-22.6 5.3q0.3 0.3 0.7 0.7c4.2 12.1 27.2 21.9 37.6 29.1c12.8 9.2 24.6 20.3 34.1 33.1c3.3 3.3 6.6 6.2 9.8 9.5c2.3 3.3 3 7.5 5.3 10.5v1c-4.6-1.6-6.9-5.9-10.5-8.5c-7.2-5-14.4-10.8-21.6-15.4c-12.5-7.9-26.9-12.5-39.7-20.4c-7.2-4.5-14.1-9.8-20.9-15c-6.3-4.6-13.1-13.4-17.1-20c-2.3-3.6-2.6-7.9-5.2-10.5c0.7-6.2 8.5-6.2 13.4-8.2c17.1-7.2 37.4-9.8 63.6-9.1c-1-6.6-17.4-14.8-22.6-18.7z" />
			<path id="&lt;Path&gt;" class="s0" d="m917.7 382.7c1.6 2.3 1.9 4.5 3.9 6.9c0 7.8-2.3 13.1-6.9 16.3q-0.3 0.4-0.7 0.7c-2.6-5.3-4.9-10.5-7.5-15.7c-3.3-4.6-7.8-8.2-10.5-13.5h-0.6v-0.6c3.9-1 7.8-1.7 13.4-1.7c2.6 2.7 6.9 4.3 8.9 7.6z" />
			<path id="&lt;Compound Path&gt;" class="s1" d="m1274.2 996.5l-9.4 25.3h-4.9l-9.5-25.3h-0.3v25.3h-6.5v-33.2h9.9l9 22.6l8.3-22.6h10.2v33.2h-6.8zm-54.7-2.3h-9.8v-5.6h26.4v5.6h-9.4v27.6h-7.2z" />
		</g>
	</g>
</svg>