<svg version="1.2" xmlns="http://www.w3.org/2000/svg" viewBox="0 0 512 512" width="512" height="512">
	<title>whatsapp-ai</title>
	<defs>
		<linearGradient id="g1" x1="258.8" y1="411.7" x2="258.8" y2="90.6" gradientUnits="userSpaceOnUse">
			<stop offset="0" stop-color="#59be4e"/>
			<stop offset=".5" stop-color="#34a647"/>
			<stop offset="1" stop-color="#51bc4a"/>
		</linearGradient>
	</defs>
	<style>
		.s0 { fill: #ffffff } 
		.s1 { fill: url(#g1) } 
	</style>
	<g id="Capa 1">
		<g id="&lt;Group&gt;">
			<path id="&lt;Path&gt;" class="s0" d="m450 251.1c0 105.6-85.6 191.2-191.2 191.2c-53.2 0-92.1-23.6-92.1-23.6l-104.7 33.4l33.4-101.7c0 0-27.7-46.9-27.7-99.3c0-105.5 85.6-191.1 191.1-191.1c105.6 0 191.2 85.6 191.2 191.1z" />
			<path id="&lt;Compound Path&gt;" fill-rule="evenodd" class="s1" d="m258.8 90.6c88.7 0 160.6 71.9 160.6 160.5c0 88.7-71.9 160.6-160.6 160.6c-32.7 0-63.1-9.8-88.5-26.6l-60.3 19.7l19.6-58.4c-19.7-26.6-31.3-59.6-31.3-95.3c0-88.6 71.8-160.5 160.5-160.5zm-72.8 77.3c-15.4 9.9-18.1 33.1-18.5 38c-0.5 5-0.9 15.6 7.2 33.5c8.2 17.8 28.2 42 52.8 65c24.7 23 62.4 32.8 73.9 36c11.4 3.2 35.5-2.4 46.9-14.7c11.3-12.2 8.7-25 8.5-29.2c-0.2-4.3-4-4.9-4-4.9c0 0-31.3-15.2-37.8-18.2c-6.4-2.9-9.7 1.9-9.7 1.9c0 0-9.5 12-12.5 15.9c-3.1 4-4.8 7.5-12.8 4.8c-8-2.6-24-11.2-37-22.9c-13.1-11.7-23-27.2-25.9-31.8c-2.8-4.7 0.5-7.7 0.5-7.7c0 0 8.2-9.5 12.2-14.6c3.9-5.1 1.5-10.8 0.5-13.1c-0.9-2.3-13.6-32.1-15.5-36.3c-1.8-4.2-5.9-4.9-5.9-4.9c0 0-12.3 0-15 0c-2.7 0-7.9 3.2-7.9 3.2z" />
		</g>
	</g>
</svg>